<svg width="35" height="35" viewBox="0 0 35 35" fill="none" xmlns="http://www.w3.org/2000/svg">
<rect x="0.5" width="34" height="34.8733" rx="17" fill="#FA6705"/>
<mask id="path-2-outside-1_1031_10128" maskUnits="userSpaceOnUse" x="7.5" y="6.87329" width="20" height="21" fill="black">
<rect fill="white" x="7.5" y="6.87329" width="20" height="21"/>
<path d="M13.5592 8.03595C13.4194 8.05195 13.2372 8.08396 13.1483 8.11196C12.6612 8.26399 12.1486 8.66405 11.8945 9.08811C11.6064 9.56819 11.6276 9.17213 11.581 15.6371C11.5598 18.8616 11.5344 21.522 11.5259 21.55C11.5132 21.586 11.204 21.598 10.1662 21.598C8.90387 21.598 8.82339 21.602 8.70902 21.6781C8.49722 21.8221 8.48875 21.8821 8.50569 23.3023C8.52264 24.6065 8.52264 24.6225 8.63701 24.9386C9.0013 25.9667 9.88661 26.6748 11.0218 26.8389C11.2209 26.8669 13.3559 26.8789 17.668 26.8709L24.022 26.8589L24.3608 26.7588C25.3266 26.4708 26.051 25.7907 26.3899 24.8625C26.4746 24.6265 26.4746 24.5265 26.5 20.9779V10.0163C26.5 10.0163 26.5 10.1043 26.5 9.36016C26.5 8.61602 25.7692 8.03595 25.2123 8.03595C24.6554 8.03595 24.5303 8.03081 24.5303 8.03081L20.862 7.99995C16.9861 8.00395 13.699 8.01995 13.5592 8.03595ZM24.742 8.96009C25.5257 8.96009 25.6316 9.63618 25.6359 9.73621C25.6401 9.83625 25.585 11.8925 25.5681 17.0773L25.5469 24.4185L25.4537 24.6545C25.3309 24.9546 25.2123 25.1346 24.9793 25.3706C24.4032 25.9547 23.4713 26.1267 22.7173 25.7827C22.2005 25.5507 21.8743 25.2186 21.6625 24.7225C21.5736 24.5105 21.5651 24.4265 21.5439 23.1983C21.5228 21.7821 21.5143 21.7501 21.2644 21.6461C21.1881 21.61 20.0063 21.598 16.8166 21.598H12.479L12.5044 17.9655C12.5171 15.9692 12.5426 13.3208 12.5595 12.0766C12.5849 9.83623 12.5891 9.81623 12.6823 9.6162C12.8348 9.30015 13.1314 9.05211 13.4575 8.96009C13.627 8.91609 23.9584 8.96009 24.742 8.96009ZM20.5697 23.3783C20.5697 24.6345 20.684 25.0946 21.1415 25.6987L21.3364 25.9587L16.1346 25.9507C11.0939 25.9387 10.9287 25.9347 10.7423 25.8627C10.45 25.7427 10.1238 25.5267 9.95439 25.3426C9.72141 25.0906 9.52232 24.6665 9.47149 24.3185C9.4249 23.9784 9.41219 22.5462 9.45878 22.5062C9.47149 22.4902 11.9792 22.4782 15.0291 22.4782H20.5697V23.3783Z"/>
</mask>
<path d="M13.5592 8.03595C13.4194 8.05195 13.2372 8.08396 13.1483 8.11196C12.6612 8.26399 12.1486 8.66405 11.8945 9.08811C11.6064 9.56819 11.6276 9.17213 11.581 15.6371C11.5598 18.8616 11.5344 21.522 11.5259 21.55C11.5132 21.586 11.204 21.598 10.1662 21.598C8.90387 21.598 8.82339 21.602 8.70902 21.6781C8.49722 21.8221 8.48875 21.8821 8.50569 23.3023C8.52264 24.6065 8.52264 24.6225 8.63701 24.9386C9.0013 25.9667 9.88661 26.6748 11.0218 26.8389C11.2209 26.8669 13.3559 26.8789 17.668 26.8709L24.022 26.8589L24.3608 26.7588C25.3266 26.4708 26.051 25.7907 26.3899 24.8625C26.4746 24.6265 26.4746 24.5265 26.5 20.9779V10.0163C26.5 10.0163 26.5 10.1043 26.5 9.36016C26.5 8.61602 25.7692 8.03595 25.2123 8.03595C24.6554 8.03595 24.5303 8.03081 24.5303 8.03081L20.862 7.99995C16.9861 8.00395 13.699 8.01995 13.5592 8.03595ZM24.742 8.96009C25.5257 8.96009 25.6316 9.63618 25.6359 9.73621C25.6401 9.83625 25.585 11.8925 25.5681 17.0773L25.5469 24.4185L25.4537 24.6545C25.3309 24.9546 25.2123 25.1346 24.9793 25.3706C24.4032 25.9547 23.4713 26.1267 22.7173 25.7827C22.2005 25.5507 21.8743 25.2186 21.6625 24.7225C21.5736 24.5105 21.5651 24.4265 21.5439 23.1983C21.5228 21.7821 21.5143 21.7501 21.2644 21.6461C21.1881 21.61 20.0063 21.598 16.8166 21.598H12.479L12.5044 17.9655C12.5171 15.9692 12.5426 13.3208 12.5595 12.0766C12.5849 9.83623 12.5891 9.81623 12.6823 9.6162C12.8348 9.30015 13.1314 9.05211 13.4575 8.96009C13.627 8.91609 23.9584 8.96009 24.742 8.96009ZM20.5697 23.3783C20.5697 24.6345 20.684 25.0946 21.1415 25.6987L21.3364 25.9587L16.1346 25.9507C11.0939 25.9387 10.9287 25.9347 10.7423 25.8627C10.45 25.7427 10.1238 25.5267 9.95439 25.3426C9.72141 25.0906 9.52232 24.6665 9.47149 24.3185C9.4249 23.9784 9.41219 22.5462 9.45878 22.5062C9.47149 22.4902 11.9792 22.4782 15.0291 22.4782H20.5697V23.3783Z" fill="white"/>
<path d="M13.1483 8.11196L13.2384 8.39812L13.2377 8.39834L13.1483 8.11196ZM11.8945 9.08811L12.1518 9.24234L12.1517 9.24246L11.8945 9.08811ZM11.581 15.6371L11.281 15.6352L11.281 15.635L11.581 15.6371ZM11.5259 21.55L11.8134 21.637L11.8088 21.6499L11.5259 21.55ZM8.70902 21.6781L8.54032 21.43L8.54297 21.4282L8.70902 21.6781ZM8.50569 23.3023L8.20572 23.3062L8.20572 23.3059L8.50569 23.3023ZM8.63701 24.9386L8.91911 24.8365L8.91978 24.8384L8.63701 24.9386ZM11.0218 26.8389L10.9801 27.1359L10.9789 27.1358L11.0218 26.8389ZM17.668 26.8709L17.6686 27.1709H17.6686L17.668 26.8709ZM24.022 26.8589L24.1069 27.1466L24.0656 27.1588L24.0225 27.1589L24.022 26.8589ZM24.3608 26.7588L24.4466 27.0463L24.4458 27.0466L24.3608 26.7588ZM26.3899 24.8625L26.6722 24.9639L26.6717 24.9654L26.3899 24.8625ZM26.5 20.9779H26.8L26.8 20.9801L26.5 20.9779ZM20.862 7.99995L20.8616 7.69993L20.8645 7.69996L20.862 7.99995ZM25.5681 17.0773L25.2681 17.0765V17.0764L25.5681 17.0773ZM25.5469 24.4185L25.8469 24.4193L25.8467 24.476L25.826 24.5286L25.5469 24.4185ZM25.4537 24.6545L25.7328 24.7647L25.7314 24.7682L25.4537 24.6545ZM24.9793 25.3706L24.7657 25.16L24.7658 25.1599L24.9793 25.3706ZM22.7173 25.7827L22.8402 25.509L22.8418 25.5098L22.7173 25.7827ZM21.6625 24.7225L21.3866 24.8403L21.3859 24.8386L21.6625 24.7225ZM21.5439 23.1983L21.244 23.2035L21.244 23.2028L21.5439 23.1983ZM21.2644 21.6461L21.149 21.9233L21.1363 21.9173L21.2644 21.6461ZM12.479 21.598V21.898H12.1769L12.179 21.5959L12.479 21.598ZM12.5044 17.9655L12.8044 17.9674L12.8044 17.9676L12.5044 17.9655ZM12.5595 12.0766L12.8595 12.08L12.8595 12.0807L12.5595 12.0766ZM12.6823 9.6162L12.4104 9.48949L12.4121 9.48583L12.6823 9.6162ZM13.4575 8.96009L13.376 8.6713L13.3821 8.66973L13.4575 8.96009ZM21.1415 25.6987L21.3807 25.5176L21.3816 25.5188L21.1415 25.6987ZM21.3364 25.9587L21.5765 25.7788L21.9367 26.2596L21.3359 26.2587L21.3364 25.9587ZM16.1346 25.9507L16.1342 26.2507L16.1339 26.2507L16.1346 25.9507ZM10.7423 25.8627L10.6341 26.1426L10.6283 26.1402L10.7423 25.8627ZM9.95439 25.3426L10.1747 25.139L10.1751 25.1394L9.95439 25.3426ZM9.47149 24.3185L9.17463 24.3618L9.17427 24.3592L9.47149 24.3185ZM9.45878 22.5062L9.69372 22.6927L9.67592 22.7152L9.65421 22.7338L9.45878 22.5062ZM20.5697 22.4782V22.1782H20.8697V22.4782H20.5697ZM24.5303 8.03081L24.5328 7.73066L24.5426 7.73106L24.5303 8.03081ZM13.5933 8.33401C13.459 8.34938 13.2996 8.37885 13.2384 8.39812L13.0582 7.82581C13.1749 7.78907 13.3798 7.75453 13.5251 7.7379L13.5933 8.33401ZM13.2377 8.39834C12.8189 8.52904 12.367 8.8832 12.1518 9.24234L11.6371 8.93389C11.9302 8.44489 12.5035 7.99893 13.0589 7.82558L13.2377 8.39834ZM12.1517 9.24246C12.0634 9.38962 12.0431 9.40652 12.018 9.49065C11.9902 9.58349 11.9651 9.7482 11.9468 10.1325C11.9107 10.8937 11.9043 12.4011 11.881 15.6393L11.281 15.635C11.3043 12.4081 11.3106 10.8811 11.3475 10.104C11.3658 9.71923 11.3923 9.48887 11.4431 9.31892C11.4964 9.14027 11.5815 9.02664 11.6372 8.93376L12.1517 9.24246ZM11.881 15.6391C11.8704 17.2516 11.8587 18.7231 11.8487 19.7951C11.8436 20.331 11.839 20.7674 11.8351 21.0716C11.8331 21.2237 11.8314 21.3432 11.8298 21.4259C11.829 21.467 11.8283 21.5 11.8276 21.5235C11.8272 21.535 11.8268 21.5458 11.8264 21.5547C11.8262 21.5589 11.8259 21.5649 11.8253 21.5713C11.8251 21.5743 11.8246 21.5799 11.8238 21.5866C11.8237 21.5873 11.8212 21.6101 11.8131 21.6369L11.2388 21.4632C11.2339 21.4795 11.2315 21.4925 11.2306 21.4972C11.2295 21.5034 11.2289 21.5084 11.2285 21.5112C11.2278 21.5168 11.2274 21.521 11.2273 21.5223C11.2271 21.5252 11.2271 21.5266 11.2271 21.5248C11.2273 21.5218 11.2275 21.5157 11.2278 21.5054C11.2284 21.4853 11.2291 21.4551 11.2299 21.4145C11.2314 21.3337 11.2332 21.2156 11.2352 21.0639C11.239 20.7607 11.2437 20.3252 11.2487 19.7894C11.2588 18.7181 11.2704 17.2472 11.281 15.6352L11.881 15.6391ZM11.8088 21.6499C11.7767 21.7409 11.7128 21.7892 11.6821 21.8089C11.6485 21.8305 11.617 21.842 11.5985 21.8479C11.5608 21.8601 11.5224 21.8663 11.4932 21.8702C11.4313 21.8783 11.347 21.8835 11.2412 21.8873C11.0265 21.8951 10.6846 21.898 10.1662 21.898V21.298C10.6856 21.298 11.0172 21.295 11.2197 21.2877C11.3225 21.284 11.3828 21.2795 11.4149 21.2753C11.4327 21.273 11.4286 21.2723 11.4143 21.2769C11.4075 21.2791 11.385 21.2866 11.3578 21.3041C11.3335 21.3197 11.2736 21.3637 11.243 21.4502L11.8088 21.6499ZM10.1662 21.898C9.53029 21.898 9.20531 21.8992 9.02349 21.9091C8.9323 21.9141 8.89578 21.9206 8.88163 21.9242C8.8796 21.9247 8.88407 21.9219 8.87507 21.9279L8.54297 21.4282C8.59115 21.3962 8.64858 21.3644 8.73325 21.3428C8.8058 21.3243 8.88974 21.3155 8.99076 21.31C9.19336 21.2989 9.53977 21.298 10.1662 21.298V21.898ZM8.87771 21.9261C8.82857 21.9595 8.83407 21.9612 8.83927 21.9529C8.84298 21.947 8.83017 21.9621 8.81924 22.049C8.79604 22.2335 8.79705 22.5762 8.80567 23.2987L8.20572 23.3059C8.19739 22.6082 8.19417 22.2108 8.22392 21.9742C8.23946 21.8506 8.26743 21.7349 8.33176 21.6329C8.39759 21.5285 8.48357 21.4686 8.54033 21.43L8.87771 21.9261ZM8.80567 23.2984C8.81423 23.9571 8.81847 24.2734 8.83387 24.4672C8.84735 24.6368 8.86674 24.6918 8.91911 24.8365L8.35491 25.0406C8.29291 24.8693 8.25511 24.7583 8.23576 24.5148C8.21833 24.2955 8.21411 23.9517 8.20572 23.3062L8.80567 23.2984ZM8.91978 24.8384C9.24476 25.7556 10.0334 26.3929 11.0647 26.5419L10.9789 27.1358C9.73978 26.9567 8.75784 26.1779 8.35423 25.0388L8.91978 24.8384ZM11.0636 26.5418C11.0632 26.5417 11.0728 26.5429 11.0995 26.5444C11.1239 26.5459 11.1565 26.5473 11.1982 26.5488C11.2814 26.5517 11.3959 26.5544 11.5429 26.5568C11.8367 26.5617 12.2556 26.5656 12.804 26.5684C13.9006 26.5739 15.5116 26.5749 17.6675 26.5709L17.6686 27.1709C15.5123 27.1749 13.8997 27.1739 12.801 27.1684C12.2518 27.1656 11.8302 27.1617 11.5329 27.1568C11.2486 27.152 11.0532 27.1462 10.9801 27.1359L11.0636 26.5418ZM17.6675 26.5709L24.0214 26.5589L24.0225 27.1589L17.6686 27.1709L17.6675 26.5709ZM23.9371 26.5711L24.2759 26.4711L24.4458 27.0466L24.1069 27.1466L23.9371 26.5711ZM24.2751 26.4714C25.1514 26.21 25.8022 25.5975 26.1081 24.7597L26.6717 24.9654C26.2998 25.9839 25.5019 26.7316 24.4466 27.0463L24.2751 26.4714ZM26.1075 24.7612C26.1324 24.6919 26.1536 24.65 26.1673 24.1542C26.1809 23.6601 26.1873 22.7524 26.2 20.9758L26.8 20.9801C26.7873 22.7521 26.7809 23.6687 26.7671 24.1707C26.7532 24.6711 26.7321 24.7971 26.6722 24.9639L26.1075 24.7612ZM20.8623 8.29995C18.9246 8.30195 17.1342 8.30695 15.811 8.31344C15.1493 8.31669 14.6048 8.32032 14.2171 8.32412C14.0232 8.32603 13.8691 8.32797 13.7595 8.32993C13.6389 8.33208 13.5923 8.33412 13.5933 8.33401L13.5251 7.7379C13.561 7.73379 13.6477 7.73182 13.7488 7.73002C13.8608 7.72802 14.0168 7.72606 14.2112 7.72415C14.6003 7.72033 15.146 7.7167 15.8081 7.71345C17.1323 7.70695 18.9234 7.70195 20.8616 7.69995L20.8623 8.29995ZM25.9356 9.72342C25.9382 9.78448 25.9251 10.3434 25.9099 11.5039C25.8946 12.6776 25.8766 14.4869 25.8681 17.0783L25.2681 17.0764C25.2766 14.483 25.2946 12.6718 25.31 11.4961C25.3176 10.9082 25.3247 10.4794 25.3295 10.1913C25.3319 10.0471 25.3338 9.9388 25.3349 9.86325C25.3355 9.82543 25.3358 9.79654 25.336 9.7758C25.3362 9.75162 25.336 9.74608 25.3361 9.74901L25.9356 9.72342ZM25.8681 17.0782L25.8469 24.4193L25.2469 24.4176L25.2681 17.0765L25.8681 17.0782ZM25.826 24.5286L25.7328 24.7647L25.1747 24.5443L25.2679 24.3083L25.826 24.5286ZM25.7314 24.7682C25.5935 25.1048 25.453 25.3177 25.1928 25.5814L24.7658 25.1599C24.9715 24.9515 25.0682 24.8043 25.1761 24.5408L25.7314 24.7682ZM25.1929 25.5813C24.5279 26.2555 23.4608 26.4517 22.5928 26.0556L22.8418 25.5098C23.4818 25.8018 24.2785 25.6539 24.7657 25.16L25.1929 25.5813ZM22.5944 26.0564C22.0109 25.7944 21.6289 25.4078 21.3866 24.8403L21.9385 24.6047C22.1198 25.0294 22.3901 25.3069 22.8402 25.509L22.5944 26.0564ZM21.3859 24.8386C21.3287 24.7021 21.2971 24.5968 21.2788 24.3651C21.262 24.1525 21.2545 23.8131 21.244 23.2035L21.8439 23.1931C21.8546 23.8116 21.8619 24.1283 21.8769 24.3178C21.8904 24.4882 21.9075 24.5309 21.9392 24.6065L21.3859 24.8386ZM21.244 23.2028C21.2331 22.4785 21.2251 22.1505 21.1948 21.9838C21.181 21.9079 21.1699 21.9147 21.1889 21.9355C21.2036 21.9517 21.2178 21.9516 21.1491 21.923L21.3796 21.3691C21.4359 21.3925 21.5448 21.4354 21.6321 21.5311C21.7237 21.6314 21.7629 21.7542 21.7851 21.8764C21.8268 22.1057 21.8336 22.5018 21.8439 23.1938L21.244 23.2028ZM21.1363 21.9173C21.1761 21.9361 21.2079 21.9386 21.1919 21.9362C21.1879 21.9356 21.1774 21.9343 21.1576 21.9326C21.1186 21.9294 21.0591 21.9262 20.975 21.9232C20.8076 21.9171 20.5562 21.9123 20.2048 21.9085C19.5029 21.901 18.4115 21.898 16.8166 21.898V21.298C18.4114 21.298 19.5057 21.301 20.2112 21.3086C20.5636 21.3123 20.8213 21.3172 20.9966 21.3236C21.0838 21.3267 21.1541 21.3303 21.2068 21.3347C21.2328 21.3368 21.2586 21.3394 21.2819 21.343C21.2931 21.3447 21.3431 21.3515 21.3925 21.3748L21.1363 21.9173ZM16.8166 21.898H12.479V21.298H16.8166V21.898ZM12.179 21.5959L12.2044 17.9634L12.8044 17.9676L12.779 21.6001L12.179 21.5959ZM12.2044 17.9636C12.2171 15.9668 12.2426 13.3176 12.2595 12.0725L12.8595 12.0807C12.8425 13.3239 12.8171 15.9716 12.8044 17.9674L12.2044 17.9636ZM12.2595 12.0732C12.2722 10.9568 12.2796 10.3836 12.2959 10.0659C12.304 9.90763 12.3149 9.79667 12.334 9.70725C12.3553 9.60783 12.385 9.54395 12.4104 9.4895L12.9543 9.74289C12.933 9.78845 12.9273 9.80209 12.9208 9.83269C12.9121 9.87329 12.9029 9.94485 12.8951 10.0966C12.8796 10.399 12.8722 10.956 12.8595 12.08L12.2595 12.0732ZM12.4121 9.48583C12.6015 9.09347 12.9661 8.78702 13.3761 8.67136L13.539 9.24883C13.2966 9.31719 13.0682 9.50682 12.9525 9.74656L12.4121 9.48583ZM13.3821 8.66973C13.413 8.66171 13.4427 8.65957 13.4472 8.65919C13.4599 8.6581 13.4739 8.65727 13.4878 8.65658C13.516 8.6552 13.5527 8.654 13.5962 8.65293C13.6836 8.65078 13.8053 8.64898 13.9559 8.64747C14.2574 8.64445 14.6789 8.64256 15.1814 8.64153C16.1867 8.63947 17.519 8.64084 18.8701 8.64359C21.5736 8.6491 24.3504 8.66009 24.742 8.66009V9.26009C24.3501 9.26009 21.5693 9.24909 18.8688 9.24359C17.5179 9.24084 16.1866 9.23947 15.1826 9.24153C14.6805 9.24256 14.2609 9.24445 13.9619 9.24744C13.8122 9.24894 13.6939 9.25071 13.6109 9.25275C13.5692 9.25378 13.5382 9.25483 13.5173 9.25586C13.5067 9.25638 13.5008 9.2568 13.4984 9.257C13.4879 9.25791 13.5074 9.2571 13.5329 9.25046L13.3821 8.66973ZM20.8697 23.3783C20.8697 24.0027 20.8988 24.401 20.9753 24.7112C21.049 25.0098 21.17 25.2394 21.3807 25.5176L20.9024 25.8798C20.6556 25.5539 20.4906 25.2514 20.3928 24.8549C20.2978 24.47 20.2697 24.0102 20.2697 23.3783H20.8697ZM21.3816 25.5188L21.5765 25.7788L21.0963 26.1386L20.9014 25.8786L21.3816 25.5188ZM21.3359 26.2587L16.1342 26.2507L16.1351 25.6507L21.3368 25.6587L21.3359 26.2587ZM16.1339 26.2507C13.6149 26.2447 12.3105 26.2407 11.6131 26.2292C10.9377 26.218 10.7881 26.202 10.6342 26.1425L10.8504 25.5829C10.8828 25.5954 10.909 25.6174 11.623 25.6293C12.315 25.6407 13.6136 25.6447 16.1354 25.6507L16.1339 26.2507ZM10.6283 26.1402C10.3051 26.0075 9.93921 25.769 9.73369 25.5458L10.1751 25.1394C10.3084 25.2843 10.5948 25.4779 10.8562 25.5852L10.6283 26.1402ZM9.73409 25.5463C9.45846 25.2481 9.23389 24.7675 9.17464 24.3618L9.76834 24.2751C9.81075 24.5655 9.98436 24.9331 10.1747 25.139L9.73409 25.5463ZM9.17427 24.3592C9.14788 24.1666 9.13334 23.7036 9.1302 23.3022C9.12859 23.0973 9.1299 22.8996 9.13471 22.7488C9.13709 22.6742 9.14046 22.6067 9.1453 22.5541C9.14764 22.5287 9.15093 22.4998 9.15613 22.4728C9.15861 22.4599 9.16304 22.4392 9.17094 22.4162C9.17338 22.4092 9.19557 22.3368 9.26336 22.2786L9.65421 22.7338C9.69242 22.701 9.7125 22.6666 9.72064 22.6516C9.73016 22.6339 9.73559 22.6193 9.73823 22.6116C9.74345 22.5965 9.74532 22.5862 9.74534 22.586C9.74563 22.5845 9.74446 22.5908 9.74278 22.6091C9.73958 22.6438 9.73666 22.6974 9.73441 22.768C9.72995 22.9077 9.72861 23.0967 9.73018 23.2975C9.73339 23.7072 9.74851 24.1303 9.76871 24.2777L9.17427 24.3592ZM9.22385 22.3196C9.26478 22.2681 9.31166 22.2442 9.32564 22.2373C9.34546 22.2275 9.36222 22.2219 9.37095 22.2192C9.38879 22.2137 9.4034 22.211 9.4092 22.21C9.42247 22.2076 9.43386 22.2065 9.43902 22.206C9.45114 22.2049 9.46416 22.2041 9.4753 22.2036C9.49884 22.2024 9.53084 22.2014 9.56932 22.2005C9.64702 22.1986 9.75946 22.1968 9.90205 22.1951C10.1876 22.1917 10.5984 22.1887 11.1035 22.1862C12.1139 22.1812 13.5038 22.1782 15.0291 22.1782V22.7782C13.5044 22.7782 12.1156 22.7812 11.1065 22.7862C10.6018 22.7887 10.1927 22.7917 9.90917 22.795C9.76722 22.7967 9.65784 22.7985 9.58405 22.8003C9.54679 22.8012 9.52063 22.8021 9.50455 22.8029C9.49588 22.8033 9.49373 22.8035 9.49543 22.8034C9.49616 22.8033 9.4979 22.8031 9.50037 22.8028C9.50258 22.8026 9.50718 22.802 9.5132 22.8009C9.51758 22.8001 9.53109 22.7977 9.54812 22.7924C9.55645 22.7899 9.57288 22.7844 9.59245 22.7747C9.60618 22.7679 9.65289 22.7442 9.69372 22.6927L9.22385 22.3196ZM15.0291 22.1782H20.5697V22.7782H15.0291V22.1782ZM20.8697 22.4782V23.3783H20.2697V22.4782H20.8697ZM24.742 8.66009C25.2377 8.66009 25.5504 8.88199 25.7283 9.14053C25.8934 9.38032 25.9317 9.63334 25.9356 9.72342L25.3361 9.74901C25.3362 9.75081 25.3334 9.71395 25.3168 9.65737C25.3007 9.60277 25.2746 9.53953 25.2341 9.48075C25.1622 9.37624 25.03 9.26009 24.742 9.26009V8.66009ZM26.2 9.36016C26.2 9.08917 26.0663 8.83265 25.8591 8.63722C25.6478 8.43789 25.3962 8.33595 25.2123 8.33595V7.73595C25.5853 7.73595 25.9775 7.92405 26.2708 8.20078C26.5683 8.48142 26.8 8.887 26.8 9.36016H26.2ZM26.2 20.9779V10.0163H26.8V20.9779H26.2ZM26.5 10.0163C26.8 10.0163 26.8 10.0163 26.8 10.0163V10.0163C26.8 10.0163 26.8 10.0163 26.8 10.0163C26.8 10.0163 26.8 10.0163 26.8 10.0163C26.8 10.0163 26.8 10.0163 26.8 10.0163C26.8 10.0163 26.8 10.0163 26.8 10.0163C26.8 10.0163 26.8 10.0163 26.8 10.0163C26.8 10.0163 26.8 10.0163 26.8 10.0163C26.8 10.0163 26.8 10.0163 26.8 10.0163C26.8 10.0163 26.8 10.0163 26.8 10.0163C26.8 10.0164 26.8 10.0164 26.8 10.0164C26.8 10.0164 26.8 10.0164 26.8 10.0164C26.8 10.0164 26.8 10.0164 26.8 10.0164C26.8 10.0164 26.8 10.0164 26.8 10.0164C26.8 10.0164 26.8 10.0165 26.8 10.0165C26.8 10.0165 26.8 10.0165 26.8 10.0165C26.8 10.0165 26.8 10.0165 26.8 10.0165C26.8 10.0165 26.8 10.0165 26.8 10.0165C26.8 10.0166 26.8 10.0166 26.8 10.0166C26.8 10.0166 26.8 10.0166 26.8 10.0166C26.8 10.0166 26.8 10.0166 26.8 10.0166C26.8 10.0166 26.8 10.0167 26.8 10.0167C26.8 10.0167 26.8 10.0167 26.8 10.0167C26.8 10.0167 26.8 10.0167 26.8 10.0167C26.8 10.0168 26.8 10.0168 26.8 10.0168C26.8 10.0168 26.8 10.0168 26.8 10.0168C26.8 10.0168 26.8 10.0168 26.8 10.0169C26.8 10.0169 26.8 10.0169 26.8 10.0169C26.8 10.0169 26.8 10.0169 26.8 10.0169C26.8 10.017 26.8 10.017 26.8 10.017C26.8 10.017 26.8 10.017 26.8 10.017C26.8 10.017 26.8 10.017 26.8 10.0171C26.8 10.0171 26.8 10.0171 26.8 10.0171C26.8 10.0171 26.8 10.0171 26.8 10.0172C26.8 10.0172 26.8 10.0172 26.8 10.0172C26.8 10.0172 26.8 10.0172 26.8 10.0172C26.8 10.0173 26.8 10.0173 26.8 10.0173C26.8 10.0173 26.8 10.0173 26.8 10.0173C26.8 10.0174 26.8 10.0174 26.8 10.0174C26.8 10.0174 26.8 10.0174 26.8 10.0174C26.8 10.0174 26.8 10.0175 26.8 10.0175C26.8 10.0175 26.8 10.0175 26.8 10.0175C26.8 10.0175 26.8 10.0176 26.8 10.0176C26.8 10.0176 26.8 10.0176 26.8 10.0176C26.8 10.0176 26.8 10.0177 26.8 10.0177C26.8 10.0177 26.8 10.0177 26.8 10.0177C26.8 10.0177 26.8 10.0178 26.8 10.0178C26.8 10.0178 26.8 10.0178 26.8 10.0178C26.8 10.0178 26.8 10.0179 26.8 10.0179C26.8 10.0179 26.8 10.0179 26.8 10.0179C26.8 10.0179 26.8 10.018 26.8 10.018C26.8 10.018 26.8 10.018 26.8 10.018C26.8 10.018 26.8 10.018 26.8 10.0181C26.8 10.0181 26.8 10.0181 26.8 10.0181C26.8 10.0181 26.8 10.0181 26.8 10.0182C26.8 10.0182 26.8 10.0182 26.8 10.0182C26.8 10.0182 26.8 10.0182 26.8 10.0183C26.8 10.0183 26.8 10.0183 26.8 10.0183C26.8 10.0183 26.8 10.0183 26.8 10.0184C26.8 10.0184 26.8 10.0184 26.8 10.0184C26.8 10.0184 26.8 10.0184 26.8 10.0184C26.8 10.0185 26.8 10.0185 26.8 10.0185C26.8 10.0185 26.8 10.0185 26.8 10.0185C26.8 10.0186 26.8 10.0186 26.8 10.0186C26.8 10.0186 26.8 10.0186 26.8 10.0186C26.8 10.0186 26.8 10.0187 26.8 10.0187C26.8 10.0187 26.8 10.0187 26.8 10.0187C26.8 10.0187 26.8 10.0187 26.8 10.0188C26.8 10.0188 26.8 10.0188 26.8 10.0188C26.8 10.0188 26.8 10.0188 26.8 10.0188C26.8 10.0189 26.8 10.0189 26.8 10.0189C26.8 10.0189 26.8 10.0189 26.8 10.0189C26.8 10.0189 26.8 10.0189 26.8 10.019C26.8 10.019 26.8 10.019 26.8 10.019C26.8 10.019 26.8 10.019 26.8 10.019C26.8 10.019 26.8 10.0191 26.8 10.0191C26.8 10.0191 26.8 10.0191 26.8 10.0191C26.8 10.0191 26.8 10.0191 26.8 10.0191C26.8 10.0191 26.8 10.0192 26.8 10.0192C26.8 10.0192 26.8 10.0192 26.8 10.0192C26.8 10.0192 26.8 10.0192 26.8 10.0192C26.8 10.0192 26.8 10.0192 26.8 10.0193C26.8 10.0193 26.8 10.0193 26.8 10.0193C26.8 10.0193 26.8 10.0193 26.8 10.0193C26.8 10.0193 26.8 10.0193 26.8 10.0193C26.8 10.0193 26.8 10.0193 26.8 10.0193C26.8 10.0194 26.8 10.0194 26.8 10.0194C26.8 10.0194 26.8 10.0194 26.8 10.0194C26.8 10.0194 26.8 10.0194 26.8 10.0194C26.8 10.0194 26.8 10.0194 26.8 10.0194C26.8 10.0194 26.8 10.0194 26.8 10.0194C26.8 10.0194 26.8 10.0194 26.8 10.0194C26.8 10.0194 26.8 10.0195 26.8 10.0195C26.8 10.0195 26.8 10.0195 26.8 10.0195C26.8 10.0195 26.8 10.0195 26.8 10.0195C26.8 10.0195 26.8 10.0195 26.8 10.0195C26.8 10.0195 26.8 10.0195 26.8 10.0195C26.8 10.0195 26.5 10.0195 26.2 10.0195C26.2 10.0195 26.2 10.0195 26.2 10.0195V10.0195C26.2 10.0195 26.2 10.0195 26.2 10.0195C26.2 10.0195 26.2 10.0195 26.2 10.0195C26.2 10.0195 26.2 10.0195 26.2 10.0195C26.2 10.0194 26.2 10.0194 26.2 10.0194C26.2 10.0194 26.2 10.0194 26.2 10.0194C26.2 10.0194 26.2 10.0194 26.2 10.0194C26.2 10.0194 26.2 10.0194 26.2 10.0194C26.2 10.0194 26.2 10.0194 26.2 10.0194C26.2 10.0194 26.2 10.0194 26.2 10.0193C26.2 10.0193 26.2 10.0193 26.2 10.0193C26.2 10.0193 26.2 10.0193 26.2 10.0193C26.2 10.0193 26.2 10.0193 26.2 10.0193C26.2 10.0193 26.2 10.0192 26.2 10.0192C26.2 10.0192 26.2 10.0192 26.2 10.0192C26.2 10.0192 26.2 10.0192 26.2 10.0192C26.2 10.0191 26.2 10.0191 26.2 10.0191C26.2 10.0191 26.2 10.0191 26.2 10.0191C26.2 10.0191 26.2 10.019 26.2 10.019C26.2 10.019 26.2 10.019 26.2 10.019C26.2 10.019 26.2 10.0189 26.2 10.0189C26.2 10.0189 26.2 10.0189 26.2 10.0189C26.2 10.0188 26.2 10.0188 26.2 10.0188C26.2 10.0188 26.2 10.0188 26.2 10.0187C26.2 10.0187 26.2 10.0187 26.2 10.0187C26.2 10.0187 26.2 10.0186 26.2 10.0186C26.2 10.0186 26.2 10.0186 26.2 10.0185C26.2 10.0185 26.2 10.0185 26.2 10.0185C26.2 10.0184 26.2 10.0184 26.2 10.0184C26.2 10.0184 26.2 10.0183 26.2 10.0183C26.2 10.0183 26.2 10.0182 26.2 10.0182C26.2 10.0182 26.2 10.0182 26.2 10.0181C26.2 10.0181 26.2 10.0181 26.2 10.018C26.2 10.018 26.2 10.018 26.2 10.0179C26.2 10.0179 26.2 10.0179 26.2 10.0179C26.2 10.0178 26.2 10.0178 26.2 10.0177C26.2 10.0177 26.2 10.0177 26.2 10.0176C26.2 10.0176 26.2 10.0176 26.2 10.0175C26.2 10.0175 26.2 10.0175 26.2 10.0174C26.2 10.0174 26.2 10.0173 26.2 10.0173C26.2 10.0173 26.2 10.0172 26.2 10.0172C26.2 10.0171 26.2 10.0171 26.2 10.0171C26.2 10.017 26.2 10.017 26.2 10.0169C26.2 10.0169 26.2 10.0169 26.2 10.0168C26.2 10.0168 26.2 10.0167 26.2 10.0167C26.2 10.0166 26.2 10.0166 26.2 10.0165C26.2 10.0165 26.2 10.0164 26.2 10.0164C26.2 10.0163 26.2 10.0163 26.2 10.0162C26.2 10.0162 26.2 10.0161 26.2 10.0161C26.2 10.016 26.2 10.016 26.2 10.0159C26.2 10.0159 26.2 10.0158 26.2 10.0158C26.2 10.0157 26.2 10.0157 26.2 10.0156C26.2 10.0156 26.2 10.0155 26.2 10.0155C26.2 10.0154 26.2 10.0153 26.2 10.0153C26.2 10.0152 26.2 10.0152 26.2 10.0151C26.2 10.0151 26.2 10.015 26.2 10.0149C26.2 10.0149 26.2 10.0148 26.2 10.0147C26.2 10.0147 26.2 10.0146 26.2 10.0146C26.2 10.0145 26.2 10.0144 26.2 10.0144C26.2 10.0143 26.2 10.0142 26.2 10.0142C26.2 10.0141 26.2 10.014 26.2 10.014C26.2 10.0139 26.2 10.0138 26.2 10.0138C26.2 10.0137 26.2 10.0136 26.2 10.0135C26.2 10.0135 26.2 10.0134 26.2 10.0133C26.2 10.0133 26.2 10.0132 26.2 10.0131C26.2 10.013 26.2 10.013 26.2 10.0129C26.2 10.0128 26.2 10.0127 26.2 10.0127C26.2 10.0126 26.2 10.0125 26.2 10.0124C26.2 10.0123 26.2 10.0123 26.2 10.0122C26.2 10.0121 26.2 10.012 26.2 10.0119C26.2 10.0119 26.2 10.0118 26.2 10.0117C26.2 10.0116 26.2 10.0115 26.2 10.0114C26.2 10.0113 26.2 10.0113 26.2 10.0112C26.2 10.0111 26.2 10.011 26.2 10.0109C26.2 10.0108 26.2 10.0107 26.2 10.0106C26.2 10.0105 26.2 10.0105 26.2 10.0104C26.2 10.0103 26.2 10.0102 26.2 10.0101C26.2 10.01 26.2 10.0099 26.2 10.0098C26.2 10.0097 26.2 10.0096 26.2 10.0095C26.2 10.0094 26.2 10.0093 26.2 10.0092C26.2 10.0091 26.2 10.009 26.2 10.0089C26.2 10.0088 26.2 10.0087 26.2 10.0086C26.2 10.0085 26.2 10.0084 26.2 10.0083C26.2 10.0082 26.2 10.0081 26.2 10.008C26.2 10.0079 26.2 10.0078 26.2 10.0077C26.2 10.0075 26.2 10.0074 26.2 10.0073C26.2 10.0072 26.2 10.0071 26.2 10.007C26.2 10.0069 26.2 10.0068 26.2 10.0067C26.2 10.0065 26.2 10.0064 26.2 10.0063C26.2 10.0062 26.2 10.0061 26.2 10.006C26.2 10.0058 26.2 10.0057 26.2 10.0056C26.2 10.0055 26.2 10.0054 26.2 10.0052C26.2 10.0051 26.2 10.005 26.2 10.0049C26.2 10.0047 26.2 10.0046 26.2 10.0045C26.2 10.0044 26.2 10.0042 26.2 10.0041C26.2 10.004 26.2 10.0039 26.2 10.0037C26.2 10.0036 26.2 10.0035 26.2 10.0033C26.2 10.0032 26.2 10.0031 26.2 10.0029C26.2 10.0028 26.2 10.0027 26.2 10.0025C26.2 10.0024 26.2 10.0023 26.2 10.0021C26.2 10.002 26.2 10.0018 26.2 10.0017C26.2 10.0016 26.2 10.0014 26.2 10.0013C26.2 10.0011 26.2 10.001 26.2 10.0009C26.2 10.0007 26.2 10.0006 26.2 10.0004C26.2 10.0003 26.2 10.0001 26.2 9.99998C26.2 9.99983 26.2 9.99968 26.2 9.99953C26.2 9.99938 26.2 9.99923 26.2 9.99907C26.2 9.99892 26.2 9.99877 26.2 9.99862C26.2 9.99846 26.2 9.9983 26.2 9.99815C26.2 9.99799 26.2 9.99783 26.2 9.99767C26.2 9.99751 26.2 9.99735 26.2 9.99719C26.2 9.99703 26.2 9.99687 26.2 9.9967C26.2 9.99654 26.2 9.99638 26.2 9.99621C26.2 9.99605 26.2 9.99588 26.2 9.99571C26.2 9.99554 26.2 9.99537 26.2 9.9952C26.2 9.99503 26.2 9.99486 26.2 9.99469C26.2 9.99452 26.2 9.99434 26.2 9.99417C26.2 9.99399 26.2 9.99382 26.2 9.99364C26.2 9.99346 26.2 9.99328 26.2 9.9931C26.2 9.99293 26.2 9.99275 26.2 9.99256C26.2 9.99238 26.2 9.9922 26.2 9.99202C26.2 9.99183 26.2 9.99165 26.2 9.99146C26.2 9.99127 26.2 9.99109 26.2 9.9909C26.2 9.99071 26.2 9.99052 26.2 9.99033C26.2 9.99014 26.2 9.98994 26.2 9.98975C26.2 9.98956 26.2 9.98936 26.2 9.98916C26.2 9.98897 26.2 9.98877 26.2 9.98857C26.2 9.98837 26.2 9.98818 26.2 9.98797C26.2 9.98777 26.2 9.98757 26.2 9.98737C26.2 9.98717 26.2 9.98696 26.2 9.98676C26.2 9.98655 26.2 9.98634 26.2 9.98613C26.2 9.98593 26.2 9.98572 26.2 9.98551C26.2 9.98529 26.2 9.98508 26.2 9.98487C26.2 9.98466 26.2 9.98444 26.2 9.98423C26.2 9.98401 26.2 9.98379 26.2 9.98358C26.2 9.98336 26.2 9.98314 26.2 9.98292C26.2 9.9827 26.2 9.98248 26.2 9.98225C26.2 9.98203 26.2 9.9818 26.2 9.98158C26.2 9.98135 26.2 9.98112 26.2 9.9809C26.2 9.98067 26.2 9.98044 26.2 9.98021C26.2 9.97997 26.2 9.97974 26.2 9.97951C26.2 9.97927 26.2 9.97904 26.2 9.9788C26.2 9.97857 26.2 9.97833 26.2 9.97809C26.2 9.97785 26.2 9.97761 26.2 9.97737C26.2 9.97713 26.2 9.97688 26.2 9.97664C26.2 9.9764 26.2 9.97615 26.2 9.9759C26.2 9.97566 26.2 9.97541 26.2 9.97516C26.2 9.97491 26.2 9.97466 26.2 9.97441C26.2 9.97415 26.2 9.9739 26.2 9.97364C26.2 9.97339 26.2 9.97313 26.2 9.97288C26.2 9.97262 26.2 9.97236 26.2 9.9721C26.2 9.97184 26.2 9.97157 26.2 9.97131C26.2 9.97105 26.2 9.97078 26.2 9.97052C26.2 9.97025 26.2 9.96998 26.2 9.96972C26.2 9.96945 26.2 9.96918 26.2 9.9689C26.2 9.96863 26.2 9.96836 26.2 9.96808C26.2 9.96781 26.2 9.96754 26.2 9.96726C26.2 9.96698 26.2 9.9667 26.2 9.96642C26.2 9.96614 26.2 9.96586 26.2 9.96558C26.2 9.96529 26.2 9.96501 26.2 9.96472C26.2 9.96444 26.2 9.96415 26.2 9.96386C26.2 9.96357 26.2 9.96328 26.2 9.96299C26.2 9.9627 26.2 9.9624 26.2 9.96211C26.2 9.96181 26.2 9.96152 26.2 9.96122C26.2 9.96092 26.2 9.96062 26.2 9.96032C26.2 9.96002 26.2 9.95972 26.2 9.95942C26.2 9.95911 26.2 9.95881 26.2 9.9585C26.2 9.9582 26.2 9.95789 26.2 9.95758C26.2 9.95727 26.2 9.95696 26.2 9.95665C26.2 9.95633 26.2 9.95602 26.2 9.9557C26.2 9.95539 26.2 9.95507 26.2 9.95475C26.2 9.95444 26.2 9.95411 26.2 9.95379C26.2 9.95347 26.2 9.95315 26.2 9.95283C26.2 9.9525 26.2 9.95217 26.2 9.95185C26.2 9.95152 26.2 9.95119 26.2 9.95086C26.2 9.95053 26.2 9.9502 26.2 9.94986C26.2 9.94953 26.2 9.94919 26.2 9.94886C26.2 9.94852 26.2 9.94818 26.2 9.94784C26.2 9.9475 26.2 9.94716 26.2 9.94682C26.2 9.94647 26.2 9.94613 26.2 9.94578C26.2 9.94544 26.2 9.94509 26.2 9.94474C26.2 9.94439 26.2 9.94404 26.2 9.94369C26.2 9.94333 26.2 9.94298 26.2 9.94262C26.2 9.94227 26.2 9.94191 26.2 9.94155C26.2 9.94119 26.2 9.94083 26.2 9.94047C26.2 9.94011 26.2 9.93974 26.2 9.93938C26.2 9.93901 26.2 9.93864 26.2 9.93828C26.2 9.93791 26.2 9.93754 26.2 9.93716C26.2 9.93679 26.2 9.93642 26.2 9.93604C26.2 9.93567 26.2 9.93529 26.2 9.93491C26.2 9.93453 26.2 9.93415 26.2 9.93377C26.2 9.93339 26.2 9.93301 26.2 9.93262C26.2 9.93224 26.2 9.93185 26.2 9.93146C26.2 9.93107 26.2 9.93068 26.2 9.93029C26.2 9.9299 26.2 9.92951 26.2 9.92911C26.2 9.92872 26.2 9.92832 26.2 9.92792C26.2 9.92752 26.2 9.92712 26.2 9.92672C26.2 9.92632 26.2 9.92591 26.2 9.92551C26.2 9.9251 26.2 9.9247 26.2 9.92429C26.2 9.92388 26.2 9.92347 26.2 9.92306C26.2 9.92265 26.2 9.92223 26.2 9.92182C26.2 9.9214 26.2 9.92098 26.2 9.92056C26.2 9.92015 26.2 9.91972 26.2 9.9193C26.2 9.91888 26.2 9.91846 26.2 9.91803C26.2 9.9176 26.2 9.91718 26.2 9.91675C26.2 9.91632 26.2 9.91589 26.2 9.91545C26.2 9.91502 26.2 9.91459 26.2 9.91415C26.2 9.91371 26.2 9.91327 26.2 9.91283C26.2 9.91239 26.2 9.91195 26.2 9.91151C26.2 9.91106 26.2 9.91062 26.2 9.91017C26.2 9.90973 26.2 9.90928 26.2 9.90883C26.2 9.90837 26.2 9.90792 26.2 9.90747C26.2 9.90701 26.2 9.90656 26.2 9.9061C26.2 9.90564 26.2 9.90518 26.2 9.90472C26.2 9.90426 26.2 9.9038 26.2 9.90333C26.2 9.90287 26.2 9.9024 26.2 9.90193C26.2 9.90146 26.2 9.90099 26.2 9.90052C26.2 9.90005 26.2 9.89957 26.2 9.8991C26.2 9.89862 26.2 9.89814 26.2 9.89766C26.2 9.89718 26.2 9.8967 26.2 9.89622C26.2 9.89573 26.2 9.89525 26.2 9.89476C26.2 9.89428 26.2 9.89379 26.2 9.8933C26.2 9.89281 26.2 9.89231 26.2 9.89182C26.2 9.89132 26.2 9.89083 26.2 9.89033C26.2 9.88983 26.2 9.88933 26.2 9.88883C26.2 9.88832 26.2 9.88782 26.2 9.88732C26.2 9.88681 26.2 9.8863 26.2 9.88579C26.2 9.88528 26.2 9.88477 26.2 9.88426C26.2 9.88374 26.2 9.88323 26.2 9.88271C26.2 9.88219 26.2 9.88167 26.2 9.88115C26.2 9.88063 26.2 9.88011 26.2 9.87958C26.2 9.87906 26.2 9.87853 26.2 9.878C26.2 9.87747 26.2 9.87694 26.2 9.87641C26.2 9.87588 26.2 9.87534 26.2 9.87481C26.2 9.87427 26.2 9.87373 26.2 9.87319C26.2 9.87265 26.2 9.87211 26.2 9.87156C26.2 9.87102 26.2 9.87047 26.2 9.86992C26.2 9.86938 26.2 9.86883 26.2 9.86827C26.2 9.86772 26.2 9.86717 26.2 9.86661C26.2 9.86605 26.2 9.8655 26.2 9.86494C26.2 9.86438 26.2 9.86381 26.2 9.86325C26.2 9.86269 26.2 9.86212 26.2 9.86155C26.2 9.86098 26.2 9.86041 26.2 9.85984C26.2 9.85927 26.2 9.85869 26.2 9.85812C26.2 9.85754 26.2 9.85696 26.2 9.85638C26.2 9.8558 26.2 9.85522 26.2 9.85464C26.2 9.85405 26.2 9.85347 26.2 9.85288C26.2 9.85229 26.2 9.8517 26.2 9.85111C26.2 9.85051 26.2 9.84992 26.2 9.84932C26.2 9.84873 26.2 9.84813 26.2 9.84753C26.2 9.84693 26.2 9.84632 26.2 9.84572C26.2 9.84511 26.2 9.84451 26.2 9.8439C26.2 9.84329 26.2 9.84268 26.2 9.84207C26.2 9.84145 26.2 9.84084 26.2 9.84022C26.2 9.8396 26.2 9.83898 26.2 9.83836C26.2 9.83774 26.2 9.83712 26.2 9.83649C26.2 9.83587 26.2 9.83524 26.2 9.83461C26.2 9.83398 26.2 9.83335 26.2 9.83271C26.2 9.83208 26.2 9.83144 26.2 9.8308C26.2 9.83017 26.2 9.82952 26.2 9.82888C26.2 9.82824 26.2 9.82759 26.2 9.82695C26.2 9.8263 26.2 9.82565 26.2 9.825C26.2 9.82435 26.2 9.8237 26.2 9.82304C26.2 9.82239 26.2 9.82173 26.2 9.82107C26.2 9.82041 26.2 9.81975 26.2 9.81909C26.2 9.81842 26.2 9.81775 26.2 9.81709C26.2 9.81642 26.2 9.81575 26.2 9.81507C26.2 9.8144 26.2 9.81373 26.2 9.81305C26.2 9.81237 26.2 9.8117 26.2 9.81101C26.2 9.81033 26.2 9.80965 26.2 9.80896C26.2 9.80828 26.2 9.80759 26.2 9.8069C26.2 9.80621 26.2 9.80552 26.2 9.80482C26.2 9.80413 26.2 9.80343 26.2 9.80273C26.2 9.80203 26.2 9.80133 26.2 9.80063C26.2 9.79993 26.2 9.79922 26.2 9.79851C26.2 9.79781 26.2 9.79709 26.2 9.79638C26.2 9.79567 26.2 9.79496 26.2 9.79424C26.2 9.79352 26.2 9.7928 26.2 9.79208C26.2 9.79136 26.2 9.79064 26.2 9.78991C26.2 9.78919 26.2 9.78846 26.2 9.78773C26.2 9.787 26.2 9.78626 26.2 9.78553C26.2 9.7848 26.2 9.78406 26.2 9.78332C26.2 9.78258 26.2 9.78184 26.2 9.78109C26.2 9.78035 26.2 9.7796 26.2 9.77886C26.2 9.77811 26.2 9.77736 26.2 9.7766C26.2 9.77585 26.2 9.77509 26.2 9.77434C26.2 9.77358 26.2 9.77282 26.2 9.77206C26.2 9.7713 26.2 9.77053 26.2 9.76976C26.2 9.769 26.2 9.76823 26.2 9.76746C26.2 9.76669 26.2 9.76591 26.2 9.76513C26.2 9.76436 26.2 9.76358 26.2 9.7628C26.2 9.76202 26.2 9.76123 26.2 9.76045C26.2 9.75966 26.2 9.75888 26.2 9.75809C26.2 9.7573 26.2 9.7565 26.2 9.75571C26.2 9.75491 26.2 9.75412 26.2 9.75331C26.2 9.75252 26.2 9.75171 26.2 9.75091C26.2 9.7501 26.2 9.7493 26.2 9.74849C26.2 9.74768 26.2 9.74687 26.2 9.74606C26.2 9.74524 26.2 9.74442 26.2 9.74361C26.2 9.74279 26.2 9.74197 26.2 9.74114C26.2 9.74032 26.2 9.73949 26.2 9.73866C26.2 9.73784 26.2 9.73701 26.2 9.73617C26.2 9.73534 26.2 9.7345 26.2 9.73367C26.2 9.73283 26.2 9.73199 26.2 9.73114C26.2 9.7303 26.2 9.72946 26.2 9.72861C26.2 9.72776 26.2 9.72691 26.2 9.72606C26.2 9.72521 26.2 9.72435 26.2 9.72349C26.2 9.72264 26.2 9.72178 26.2 9.72091C26.2 9.72005 26.2 9.71919 26.2 9.71832C26.2 9.71745 26.2 9.71658 26.2 9.71571C26.2 9.71484 26.2 9.71396 26.2 9.71309C26.2 9.71221 26.2 9.71133 26.2 9.71045C26.2 9.70957 26.2 9.70868 26.2 9.70779C26.2 9.70691 26.2 9.70602 26.2 9.70513C26.2 9.70423 26.2 9.70334 26.2 9.70244C26.2 9.70155 26.2 9.70065 26.2 9.69974C26.2 9.69884 26.2 9.69794 26.2 9.69703C26.2 9.69612 26.2 9.69521 26.2 9.6943C26.2 9.69339 26.2 9.69247 26.2 9.69156C26.2 9.69064 26.2 9.68972 26.2 9.6888C26.2 9.68788 26.2 9.68695 26.2 9.68602C26.2 9.6851 26.2 9.68417 26.2 9.68323C26.2 9.6823 26.2 9.68137 26.2 9.68043C26.2 9.67949 26.2 9.67855 26.2 9.67761C26.2 9.67667 26.2 9.67572 26.2 9.67477C26.2 9.67383 26.2 9.67287 26.2 9.67192C26.2 9.67097 26.2 9.67001 26.2 9.66906C26.2 9.6681 26.2 9.66714 26.2 9.66617C26.2 9.66521 26.2 9.66424 26.2 9.66328C26.2 9.66231 26.2 9.66134 26.2 9.66036C26.2 9.65939 26.2 9.65841 26.2 9.65743C26.2 9.65646 26.2 9.65547 26.2 9.65449C26.2 9.65351 26.2 9.65252 26.2 9.65153C26.2 9.65054 26.2 9.64955 26.2 9.64855C26.2 9.64756 26.2 9.64656 26.2 9.64556C26.2 9.64456 26.2 9.64356 26.2 9.64255C26.2 9.64155 26.2 9.64054 26.2 9.63953C26.2 9.63852 26.2 9.63751 26.2 9.63649C26.2 9.63548 26.2 9.63446 26.2 9.63344C26.2 9.63242 26.2 9.63139 26.2 9.63037C26.2 9.62934 26.2 9.62831 26.2 9.62728C26.2 9.62625 26.2 9.62521 26.2 9.62417C26.2 9.62314 26.2 9.6221 26.2 9.62105C26.2 9.62001 26.2 9.61897 26.2 9.61792C26.2 9.61687 26.2 9.61582 26.2 9.61477C26.2 9.61371 26.2 9.61266 26.2 9.6116C26.2 9.61054 26.2 9.60948 26.2 9.60841C26.2 9.60735 26.2 9.60628 26.2 9.60521C26.2 9.60414 26.2 9.60307 26.2 9.602C26.2 9.60092 26.2 9.59984 26.2 9.59876C26.2 9.59768 26.2 9.5966 26.2 9.59551C26.2 9.59443 26.2 9.59334 26.2 9.59225C26.2 9.59115 26.2 9.59006 26.2 9.58896C26.2 9.58787 26.2 9.58677 26.2 9.58566C26.2 9.58456 26.2 9.58345 26.2 9.58235C26.2 9.58124 26.2 9.58013 26.2 9.57901C26.2 9.5779 26.2 9.57678 26.2 9.57566C26.2 9.57454 26.2 9.57342 26.2 9.5723C26.2 9.57117 26.2 9.57005 26.2 9.56891C26.2 9.56778 26.2 9.56665 26.2 9.56551C26.2 9.56438 26.2 9.56324 26.2 9.5621C26.2 9.56096 26.2 9.55981 26.2 9.55866C26.2 9.55752 26.2 9.55637 26.2 9.55521C26.2 9.55406 26.2 9.5529 26.2 9.55174C26.2 9.55059 26.2 9.54943 26.2 9.54826C26.2 9.5471 26.2 9.54593 26.2 9.54476C26.2 9.54359 26.2 9.54242 26.2 9.54124C26.2 9.54006 26.2 9.53889 26.2 9.5377C26.2 9.53652 26.2 9.53534 26.2 9.53415C26.2 9.53296 26.2 9.53177 26.2 9.53058C26.2 9.52939 26.2 9.52819 26.2 9.52699C26.2 9.52579 26.2 9.52459 26.2 9.52339C26.2 9.52218 26.2 9.52097 26.2 9.51976C26.2 9.51855 26.2 9.51734 26.2 9.51612C26.2 9.51491 26.2 9.51369 26.2 9.51247C26.2 9.51124 26.2 9.51002 26.2 9.50879C26.2 9.50756 26.2 9.50633 26.2 9.5051C26.2 9.50387 26.2 9.50263 26.2 9.50139C26.2 9.50015 26.2 9.49891 26.2 9.49766C26.2 9.49642 26.2 9.49517 26.2 9.49392C26.2 9.49267 26.2 9.49141 26.2 9.49015C26.2 9.4889 26.2 9.48764 26.2 9.48637C26.2 9.48511 26.2 9.48384 26.2 9.48257C26.2 9.48131 26.2 9.48003 26.2 9.47876C26.2 9.47748 26.2 9.47621 26.2 9.47492C26.2 9.47364 26.2 9.47236 26.2 9.47107C26.2 9.46979 26.2 9.4685 26.2 9.4672C26.2 9.46591 26.2 9.46461 26.2 9.46331C26.2 9.46202 26.2 9.46071 26.2 9.45941C26.2 9.4581 26.2 9.4568 26.2 9.45548C26.2 9.45417 26.2 9.45286 26.2 9.45154C26.2 9.45023 26.2 9.44891 26.2 9.44758C26.2 9.44626 26.2 9.44493 26.2 9.44361C26.2 9.44228 26.2 9.44094 26.2 9.43961C26.2 9.43827 26.2 9.43694 26.2 9.43559C26.2 9.43425 26.2 9.43291 26.2 9.43156C26.2 9.43021 26.2 9.42886 26.2 9.42751C26.2 9.42616 26.2 9.4248 26.2 9.42344C26.2 9.42208 26.2 9.42072 26.2 9.41935C26.2 9.41798 26.2 9.41662 26.2 9.41524C26.2 9.41387 26.2 9.4125 26.2 9.41112C26.2 9.40974 26.2 9.40836 26.2 9.40697C26.2 9.40559 26.2 9.4042 26.2 9.40281C26.2 9.40142 26.2 9.40003 26.2 9.39863C26.2 9.39723 26.2 9.39583 26.2 9.39443C26.2 9.39303 26.2 9.39162 26.2 9.39021C26.2 9.3888 26.2 9.38739 26.2 9.38597C26.2 9.38456 26.2 9.38314 26.2 9.38172C26.2 9.3803 26.2 9.37887 26.2 9.37745C26.2 9.37602 26.2 9.37459 26.2 9.37315C26.2 9.37172 26.2 9.37028 26.2 9.36884C26.2 9.3674 26.2 9.36595 26.2 9.36451C26.2 9.36306 26.2 9.36161 26.2 9.36016H26.8C26.8 9.36161 26.8 9.36306 26.8 9.36451C26.8 9.36595 26.8 9.3674 26.8 9.36884C26.8 9.37028 26.8 9.37172 26.8 9.37315C26.8 9.37459 26.8 9.37602 26.8 9.37745C26.8 9.37887 26.8 9.3803 26.8 9.38172C26.8 9.38314 26.8 9.38456 26.8 9.38597C26.8 9.38739 26.8 9.3888 26.8 9.39021C26.8 9.39162 26.8 9.39303 26.8 9.39443C26.8 9.39583 26.8 9.39723 26.8 9.39863C26.8 9.40003 26.8 9.40142 26.8 9.40281C26.8 9.4042 26.8 9.40559 26.8 9.40697C26.8 9.40836 26.8 9.40974 26.8 9.41112C26.8 9.4125 26.8 9.41387 26.8 9.41524C26.8 9.41662 26.8 9.41798 26.8 9.41935C26.8 9.42072 26.8 9.42208 26.8 9.42344C26.8 9.4248 26.8 9.42616 26.8 9.42751C26.8 9.42886 26.8 9.43021 26.8 9.43156C26.8 9.43291 26.8 9.43425 26.8 9.43559C26.8 9.43694 26.8 9.43827 26.8 9.43961C26.8 9.44094 26.8 9.44228 26.8 9.44361C26.8 9.44493 26.8 9.44626 26.8 9.44758C26.8 9.44891 26.8 9.45023 26.8 9.45154C26.8 9.45286 26.8 9.45417 26.8 9.45548C26.8 9.4568 26.8 9.4581 26.8 9.45941C26.8 9.46071 26.8 9.46202 26.8 9.46331C26.8 9.46461 26.8 9.46591 26.8 9.4672C26.8 9.4685 26.8 9.46979 26.8 9.47107C26.8 9.47236 26.8 9.47364 26.8 9.47492C26.8 9.47621 26.8 9.47748 26.8 9.47876C26.8 9.48003 26.8 9.48131 26.8 9.48257C26.8 9.48384 26.8 9.48511 26.8 9.48637C26.8 9.48764 26.8 9.4889 26.8 9.49015C26.8 9.49141 26.8 9.49267 26.8 9.49392C26.8 9.49517 26.8 9.49642 26.8 9.49766C26.8 9.49891 26.8 9.50015 26.8 9.50139C26.8 9.50263 26.8 9.50387 26.8 9.5051C26.8 9.50633 26.8 9.50756 26.8 9.50879C26.8 9.51002 26.8 9.51124 26.8 9.51247C26.8 9.51369 26.8 9.51491 26.8 9.51612C26.8 9.51734 26.8 9.51855 26.8 9.51976C26.8 9.52097 26.8 9.52218 26.8 9.52339C26.8 9.52459 26.8 9.52579 26.8 9.52699C26.8 9.52819 26.8 9.52939 26.8 9.53058C26.8 9.53177 26.8 9.53296 26.8 9.53415C26.8 9.53534 26.8 9.53652 26.8 9.5377C26.8 9.53889 26.8 9.54006 26.8 9.54124C26.8 9.54242 26.8 9.54359 26.8 9.54476C26.8 9.54593 26.8 9.5471 26.8 9.54826C26.8 9.54943 26.8 9.55059 26.8 9.55174C26.8 9.5529 26.8 9.55406 26.8 9.55521C26.8 9.55637 26.8 9.55752 26.8 9.55866C26.8 9.55981 26.8 9.56096 26.8 9.5621C26.8 9.56324 26.8 9.56438 26.8 9.56551C26.8 9.56665 26.8 9.56778 26.8 9.56891C26.8 9.57005 26.8 9.57117 26.8 9.5723C26.8 9.57342 26.8 9.57454 26.8 9.57566C26.8 9.57678 26.8 9.5779 26.8 9.57901C26.8 9.58013 26.8 9.58124 26.8 9.58235C26.8 9.58345 26.8 9.58456 26.8 9.58566C26.8 9.58677 26.8 9.58787 26.8 9.58896C26.8 9.59006 26.8 9.59115 26.8 9.59225C26.8 9.59334 26.8 9.59443 26.8 9.59551C26.8 9.5966 26.8 9.59768 26.8 9.59876C26.8 9.59984 26.8 9.60092 26.8 9.602C26.8 9.60307 26.8 9.60414 26.8 9.60521C26.8 9.60628 26.8 9.60735 26.8 9.60841C26.8 9.60948 26.8 9.61054 26.8 9.6116C26.8 9.61266 26.8 9.61371 26.8 9.61477C26.8 9.61582 26.8 9.61687 26.8 9.61792C26.8 9.61897 26.8 9.62001 26.8 9.62105C26.8 9.6221 26.8 9.62314 26.8 9.62417C26.8 9.62521 26.8 9.62625 26.8 9.62728C26.8 9.62831 26.8 9.62934 26.8 9.63037C26.8 9.63139 26.8 9.63242 26.8 9.63344C26.8 9.63446 26.8 9.63548 26.8 9.63649C26.8 9.63751 26.8 9.63852 26.8 9.63953C26.8 9.64054 26.8 9.64155 26.8 9.64255C26.8 9.64356 26.8 9.64456 26.8 9.64556C26.8 9.64656 26.8 9.64756 26.8 9.64855C26.8 9.64955 26.8 9.65054 26.8 9.65153C26.8 9.65252 26.8 9.65351 26.8 9.65449C26.8 9.65547 26.8 9.65646 26.8 9.65743C26.8 9.65841 26.8 9.65939 26.8 9.66036C26.8 9.66134 26.8 9.66231 26.8 9.66328C26.8 9.66424 26.8 9.66521 26.8 9.66617C26.8 9.66714 26.8 9.6681 26.8 9.66906C26.8 9.67001 26.8 9.67097 26.8 9.67192C26.8 9.67287 26.8 9.67383 26.8 9.67477C26.8 9.67572 26.8 9.67667 26.8 9.67761C26.8 9.67855 26.8 9.67949 26.8 9.68043C26.8 9.68137 26.8 9.6823 26.8 9.68323C26.8 9.68417 26.8 9.6851 26.8 9.68602C26.8 9.68695 26.8 9.68788 26.8 9.6888C26.8 9.68972 26.8 9.69064 26.8 9.69156C26.8 9.69247 26.8 9.69339 26.8 9.6943C26.8 9.69521 26.8 9.69612 26.8 9.69703C26.8 9.69794 26.8 9.69884 26.8 9.69974C26.8 9.70065 26.8 9.70155 26.8 9.70244C26.8 9.70334 26.8 9.70423 26.8 9.70513C26.8 9.70602 26.8 9.70691 26.8 9.70779C26.8 9.70868 26.8 9.70957 26.8 9.71045C26.8 9.71133 26.8 9.71221 26.8 9.71309C26.8 9.71396 26.8 9.71484 26.8 9.71571C26.8 9.71658 26.8 9.71745 26.8 9.71832C26.8 9.71919 26.8 9.72005 26.8 9.72091C26.8 9.72178 26.8 9.72264 26.8 9.72349C26.8 9.72435 26.8 9.72521 26.8 9.72606C26.8 9.72691 26.8 9.72776 26.8 9.72861C26.8 9.72946 26.8 9.7303 26.8 9.73114C26.8 9.73199 26.8 9.73283 26.8 9.73367C26.8 9.7345 26.8 9.73534 26.8 9.73617C26.8 9.73701 26.8 9.73784 26.8 9.73866C26.8 9.73949 26.8 9.74032 26.8 9.74114C26.8 9.74197 26.8 9.74279 26.8 9.74361C26.8 9.74442 26.8 9.74524 26.8 9.74606C26.8 9.74687 26.8 9.74768 26.8 9.74849C26.8 9.7493 26.8 9.7501 26.8 9.75091C26.8 9.75171 26.8 9.75252 26.8 9.75331C26.8 9.75412 26.8 9.75491 26.8 9.75571C26.8 9.7565 26.8 9.7573 26.8 9.75809C26.8 9.75888 26.8 9.75966 26.8 9.76045C26.8 9.76123 26.8 9.76202 26.8 9.7628C26.8 9.76358 26.8 9.76436 26.8 9.76513C26.8 9.76591 26.8 9.76669 26.8 9.76746C26.8 9.76823 26.8 9.769 26.8 9.76976C26.8 9.77053 26.8 9.7713 26.8 9.77206C26.8 9.77282 26.8 9.77358 26.8 9.77434C26.8 9.77509 26.8 9.77585 26.8 9.7766C26.8 9.77736 26.8 9.77811 26.8 9.77886C26.8 9.7796 26.8 9.78035 26.8 9.78109C26.8 9.78184 26.8 9.78258 26.8 9.78332C26.8 9.78406 26.8 9.7848 26.8 9.78553C26.8 9.78626 26.8 9.787 26.8 9.78773C26.8 9.78846 26.8 9.78919 26.8 9.78991C26.8 9.79064 26.8 9.79136 26.8 9.79208C26.8 9.7928 26.8 9.79352 26.8 9.79424C26.8 9.79496 26.8 9.79567 26.8 9.79638C26.8 9.79709 26.8 9.79781 26.8 9.79851C26.8 9.79922 26.8 9.79993 26.8 9.80063C26.8 9.80133 26.8 9.80203 26.8 9.80273C26.8 9.80343 26.8 9.80413 26.8 9.80482C26.8 9.80552 26.8 9.80621 26.8 9.8069C26.8 9.80759 26.8 9.80828 26.8 9.80896C26.8 9.80965 26.8 9.81033 26.8 9.81101C26.8 9.8117 26.8 9.81237 26.8 9.81305C26.8 9.81373 26.8 9.8144 26.8 9.81507C26.8 9.81575 26.8 9.81642 26.8 9.81709C26.8 9.81775 26.8 9.81842 26.8 9.81909C26.8 9.81975 26.8 9.82041 26.8 9.82107C26.8 9.82173 26.8 9.82239 26.8 9.82304C26.8 9.8237 26.8 9.82435 26.8 9.825C26.8 9.82565 26.8 9.8263 26.8 9.82695C26.8 9.82759 26.8 9.82824 26.8 9.82888C26.8 9.82952 26.8 9.83017 26.8 9.8308C26.8 9.83144 26.8 9.83208 26.8 9.83271C26.8 9.83335 26.8 9.83398 26.8 9.83461C26.8 9.83524 26.8 9.83587 26.8 9.83649C26.8 9.83712 26.8 9.83774 26.8 9.83836C26.8 9.83898 26.8 9.8396 26.8 9.84022C26.8 9.84084 26.8 9.84145 26.8 9.84207C26.8 9.84268 26.8 9.84329 26.8 9.8439C26.8 9.84451 26.8 9.84511 26.8 9.84572C26.8 9.84632 26.8 9.84693 26.8 9.84753C26.8 9.84813 26.8 9.84873 26.8 9.84932C26.8 9.84992 26.8 9.85051 26.8 9.85111C26.8 9.8517 26.8 9.85229 26.8 9.85288C26.8 9.85347 26.8 9.85405 26.8 9.85464C26.8 9.85522 26.8 9.8558 26.8 9.85638C26.8 9.85696 26.8 9.85754 26.8 9.85812C26.8 9.85869 26.8 9.85927 26.8 9.85984C26.8 9.86041 26.8 9.86098 26.8 9.86155C26.8 9.86212 26.8 9.86269 26.8 9.86325C26.8 9.86381 26.8 9.86438 26.8 9.86494C26.8 9.8655 26.8 9.86605 26.8 9.86661C26.8 9.86717 26.8 9.86772 26.8 9.86827C26.8 9.86883 26.8 9.86938 26.8 9.86992C26.8 9.87047 26.8 9.87102 26.8 9.87156C26.8 9.87211 26.8 9.87265 26.8 9.87319C26.8 9.87373 26.8 9.87427 26.8 9.87481C26.8 9.87534 26.8 9.87588 26.8 9.87641C26.8 9.87694 26.8 9.87747 26.8 9.878C26.8 9.87853 26.8 9.87906 26.8 9.87958C26.8 9.88011 26.8 9.88063 26.8 9.88115C26.8 9.88167 26.8 9.88219 26.8 9.88271C26.8 9.88323 26.8 9.88374 26.8 9.88426C26.8 9.88477 26.8 9.88528 26.8 9.88579C26.8 9.8863 26.8 9.88681 26.8 9.88732C26.8 9.88782 26.8 9.88832 26.8 9.88883C26.8 9.88933 26.8 9.88983 26.8 9.89033C26.8 9.89083 26.8 9.89132 26.8 9.89182C26.8 9.89231 26.8 9.89281 26.8 9.8933C26.8 9.89379 26.8 9.89428 26.8 9.89476C26.8 9.89525 26.8 9.89573 26.8 9.89622C26.8 9.8967 26.8 9.89718 26.8 9.89766C26.8 9.89814 26.8 9.89862 26.8 9.8991C26.8 9.89957 26.8 9.90005 26.8 9.90052C26.8 9.90099 26.8 9.90146 26.8 9.90193C26.8 9.9024 26.8 9.90287 26.8 9.90333C26.8 9.9038 26.8 9.90426 26.8 9.90472C26.8 9.90518 26.8 9.90564 26.8 9.9061C26.8 9.90656 26.8 9.90701 26.8 9.90747C26.8 9.90792 26.8 9.90837 26.8 9.90883C26.8 9.90928 26.8 9.90973 26.8 9.91017C26.8 9.91062 26.8 9.91106 26.8 9.91151C26.8 9.91195 26.8 9.91239 26.8 9.91283C26.8 9.91327 26.8 9.91371 26.8 9.91415C26.8 9.91459 26.8 9.91502 26.8 9.91545C26.8 9.91589 26.8 9.91632 26.8 9.91675C26.8 9.91718 26.8 9.9176 26.8 9.91803C26.8 9.91846 26.8 9.91888 26.8 9.9193C26.8 9.91972 26.8 9.92015 26.8 9.92056C26.8 9.92098 26.8 9.9214 26.8 9.92182C26.8 9.92223 26.8 9.92265 26.8 9.92306C26.8 9.92347 26.8 9.92388 26.8 9.92429C26.8 9.9247 26.8 9.9251 26.8 9.92551C26.8 9.92591 26.8 9.92632 26.8 9.92672C26.8 9.92712 26.8 9.92752 26.8 9.92792C26.8 9.92832 26.8 9.92872 26.8 9.92911C26.8 9.92951 26.8 9.9299 26.8 9.93029C26.8 9.93068 26.8 9.93107 26.8 9.93146C26.8 9.93185 26.8 9.93224 26.8 9.93262C26.8 9.93301 26.8 9.93339 26.8 9.93377C26.8 9.93415 26.8 9.93453 26.8 9.93491C26.8 9.93529 26.8 9.93567 26.8 9.93604C26.8 9.93642 26.8 9.93679 26.8 9.93716C26.8 9.93754 26.8 9.93791 26.8 9.93828C26.8 9.93864 26.8 9.93901 26.8 9.93938C26.8 9.93974 26.8 9.94011 26.8 9.94047C26.8 9.94083 26.8 9.94119 26.8 9.94155C26.8 9.94191 26.8 9.94227 26.8 9.94262C26.8 9.94298 26.8 9.94333 26.8 9.94369C26.8 9.94404 26.8 9.94439 26.8 9.94474C26.8 9.94509 26.8 9.94544 26.8 9.94578C26.8 9.94613 26.8 9.94647 26.8 9.94682C26.8 9.94716 26.8 9.9475 26.8 9.94784C26.8 9.94818 26.8 9.94852 26.8 9.94886C26.8 9.94919 26.8 9.94953 26.8 9.94986C26.8 9.9502 26.8 9.95053 26.8 9.95086C26.8 9.95119 26.8 9.95152 26.8 9.95185C26.8 9.95217 26.8 9.9525 26.8 9.95283C26.8 9.95315 26.8 9.95347 26.8 9.95379C26.8 9.95411 26.8 9.95444 26.8 9.95475C26.8 9.95507 26.8 9.95539 26.8 9.9557C26.8 9.95602 26.8 9.95633 26.8 9.95665C26.8 9.95696 26.8 9.95727 26.8 9.95758C26.8 9.95789 26.8 9.9582 26.8 9.9585C26.8 9.95881 26.8 9.95911 26.8 9.95942C26.8 9.95972 26.8 9.96002 26.8 9.96032C26.8 9.96062 26.8 9.96092 26.8 9.96122C26.8 9.96152 26.8 9.96181 26.8 9.96211C26.8 9.9624 26.8 9.9627 26.8 9.96299C26.8 9.96328 26.8 9.96357 26.8 9.96386C26.8 9.96415 26.8 9.96444 26.8 9.96472C26.8 9.96501 26.8 9.96529 26.8 9.96558C26.8 9.96586 26.8 9.96614 26.8 9.96642C26.8 9.9667 26.8 9.96698 26.8 9.96726C26.8 9.96754 26.8 9.96781 26.8 9.96808C26.8 9.96836 26.8 9.96863 26.8 9.9689C26.8 9.96918 26.8 9.96945 26.8 9.96972C26.8 9.96998 26.8 9.97025 26.8 9.97052C26.8 9.97078 26.8 9.97105 26.8 9.97131C26.8 9.97157 26.8 9.97184 26.8 9.9721C26.8 9.97236 26.8 9.97262 26.8 9.97288C26.8 9.97313 26.8 9.97339 26.8 9.97364C26.8 9.9739 26.8 9.97415 26.8 9.97441C26.8 9.97466 26.8 9.97491 26.8 9.97516C26.8 9.97541 26.8 9.97566 26.8 9.9759C26.8 9.97615 26.8 9.9764 26.8 9.97664C26.8 9.97688 26.8 9.97713 26.8 9.97737C26.8 9.97761 26.8 9.97785 26.8 9.97809C26.8 9.97833 26.8 9.97857 26.8 9.9788C26.8 9.97904 26.8 9.97927 26.8 9.97951C26.8 9.97974 26.8 9.97997 26.8 9.98021C26.8 9.98044 26.8 9.98067 26.8 9.9809C26.8 9.98112 26.8 9.98135 26.8 9.98158C26.8 9.9818 26.8 9.98203 26.8 9.98225C26.8 9.98248 26.8 9.9827 26.8 9.98292C26.8 9.98314 26.8 9.98336 26.8 9.98358C26.8 9.98379 26.8 9.98401 26.8 9.98423C26.8 9.98444 26.8 9.98466 26.8 9.98487C26.8 9.98508 26.8 9.98529 26.8 9.98551C26.8 9.98572 26.8 9.98593 26.8 9.98613C26.8 9.98634 26.8 9.98655 26.8 9.98676C26.8 9.98696 26.8 9.98717 26.8 9.98737C26.8 9.98757 26.8 9.98777 26.8 9.98797C26.8 9.98818 26.8 9.98837 26.8 9.98857C26.8 9.98877 26.8 9.98897 26.8 9.98916C26.8 9.98936 26.8 9.98956 26.8 9.98975C26.8 9.98994 26.8 9.99014 26.8 9.99033C26.8 9.99052 26.8 9.99071 26.8 9.9909C26.8 9.99109 26.8 9.99127 26.8 9.99146C26.8 9.99165 26.8 9.99183 26.8 9.99202C26.8 9.9922 26.8 9.99238 26.8 9.99256C26.8 9.99275 26.8 9.99293 26.8 9.9931C26.8 9.99328 26.8 9.99346 26.8 9.99364C26.8 9.99382 26.8 9.99399 26.8 9.99417C26.8 9.99434 26.8 9.99452 26.8 9.99469C26.8 9.99486 26.8 9.99503 26.8 9.9952C26.8 9.99537 26.8 9.99554 26.8 9.99571C26.8 9.99588 26.8 9.99605 26.8 9.99621C26.8 9.99638 26.8 9.99654 26.8 9.9967C26.8 9.99687 26.8 9.99703 26.8 9.99719C26.8 9.99735 26.8 9.99751 26.8 9.99767C26.8 9.99783 26.8 9.99799 26.8 9.99815C26.8 9.9983 26.8 9.99846 26.8 9.99862C26.8 9.99877 26.8 9.99892 26.8 9.99907C26.8 9.99923 26.8 9.99938 26.8 9.99953C26.8 9.99968 26.8 9.99983 26.8 9.99998C26.8 10.0001 26.8 10.0003 26.8 10.0004C26.8 10.0006 26.8 10.0007 26.8 10.0009C26.8 10.001 26.8 10.0011 26.8 10.0013C26.8 10.0014 26.8 10.0016 26.8 10.0017C26.8 10.0018 26.8 10.002 26.8 10.0021C26.8 10.0023 26.8 10.0024 26.8 10.0025C26.8 10.0027 26.8 10.0028 26.8 10.0029C26.8 10.0031 26.8 10.0032 26.8 10.0033C26.8 10.0035 26.8 10.0036 26.8 10.0037C26.8 10.0039 26.8 10.004 26.8 10.0041C26.8 10.0042 26.8 10.0044 26.8 10.0045C26.8 10.0046 26.8 10.0047 26.8 10.0049C26.8 10.005 26.8 10.0051 26.8 10.0052C26.8 10.0054 26.8 10.0055 26.8 10.0056C26.8 10.0057 26.8 10.0058 26.8 10.006C26.8 10.0061 26.8 10.0062 26.8 10.0063C26.8 10.0064 26.8 10.0065 26.8 10.0067C26.8 10.0068 26.8 10.0069 26.8 10.007C26.8 10.0071 26.8 10.0072 26.8 10.0073C26.8 10.0074 26.8 10.0075 26.8 10.0077C26.8 10.0078 26.8 10.0079 26.8 10.008C26.8 10.0081 26.8 10.0082 26.8 10.0083C26.8 10.0084 26.8 10.0085 26.8 10.0086C26.8 10.0087 26.8 10.0088 26.8 10.0089C26.8 10.009 26.8 10.0091 26.8 10.0092C26.8 10.0093 26.8 10.0094 26.8 10.0095C26.8 10.0096 26.8 10.0097 26.8 10.0098C26.8 10.0099 26.8 10.01 26.8 10.0101C26.8 10.0102 26.8 10.0103 26.8 10.0104C26.8 10.0105 26.8 10.0105 26.8 10.0106C26.8 10.0107 26.8 10.0108 26.8 10.0109C26.8 10.011 26.8 10.0111 26.8 10.0112C26.8 10.0113 26.8 10.0113 26.8 10.0114C26.8 10.0115 26.8 10.0116 26.8 10.0117C26.8 10.0118 26.8 10.0119 26.8 10.0119C26.8 10.012 26.8 10.0121 26.8 10.0122C26.8 10.0123 26.8 10.0123 26.8 10.0124C26.8 10.0125 26.8 10.0126 26.8 10.0127C26.8 10.0127 26.8 10.0128 26.8 10.0129C26.8 10.013 26.8 10.013 26.8 10.0131C26.8 10.0132 26.8 10.0133 26.8 10.0133C26.8 10.0134 26.8 10.0135 26.8 10.0135C26.8 10.0136 26.8 10.0137 26.8 10.0138C26.8 10.0138 26.8 10.0139 26.8 10.014C26.8 10.014 26.8 10.0141 26.8 10.0142C26.8 10.0142 26.8 10.0143 26.8 10.0144C26.8 10.0144 26.8 10.0145 26.8 10.0146C26.8 10.0146 26.8 10.0147 26.8 10.0147C26.8 10.0148 26.8 10.0149 26.8 10.0149C26.8 10.015 26.8 10.0151 26.8 10.0151C26.8 10.0152 26.8 10.0152 26.8 10.0153C26.8 10.0153 26.8 10.0154 26.8 10.0155C26.8 10.0155 26.8 10.0156 26.8 10.0156C26.8 10.0157 26.8 10.0157 26.8 10.0158C26.8 10.0158 26.8 10.0159 26.8 10.0159C26.8 10.016 26.8 10.016 26.8 10.0161C26.8 10.0161 26.8 10.0162 26.8 10.0162C26.8 10.0163 26.8 10.0163 26.8 10.0164C26.8 10.0164 26.8 10.0165 26.8 10.0165C26.8 10.0166 26.8 10.0166 26.8 10.0167C26.8 10.0167 26.8 10.0168 26.8 10.0168C26.8 10.0169 26.8 10.0169 26.8 10.0169C26.8 10.017 26.8 10.017 26.8 10.0171C26.8 10.0171 26.8 10.0171 26.8 10.0172C26.8 10.0172 26.8 10.0173 26.8 10.0173C26.8 10.0173 26.8 10.0174 26.8 10.0174C26.8 10.0175 26.8 10.0175 26.8 10.0175C26.8 10.0176 26.8 10.0176 26.8 10.0176C26.8 10.0177 26.8 10.0177 26.8 10.0177C26.8 10.0178 26.8 10.0178 26.8 10.0179C26.8 10.0179 26.8 10.0179 26.8 10.0179C26.8 10.018 26.8 10.018 26.8 10.018C26.8 10.0181 26.8 10.0181 26.8 10.0181C26.8 10.0182 26.8 10.0182 26.8 10.0182C26.8 10.0182 26.8 10.0183 26.8 10.0183C26.8 10.0183 26.8 10.0184 26.8 10.0184C26.8 10.0184 26.8 10.0184 26.8 10.0185C26.8 10.0185 26.8 10.0185 26.8 10.0185C26.8 10.0186 26.8 10.0186 26.8 10.0186C26.8 10.0186 26.8 10.0187 26.8 10.0187C26.8 10.0187 26.8 10.0187 26.8 10.0187C26.8 10.0188 26.8 10.0188 26.8 10.0188C26.8 10.0188 26.8 10.0188 26.8 10.0189C26.8 10.0189 26.8 10.0189 26.8 10.0189C26.8 10.0189 26.8 10.019 26.8 10.019C26.8 10.019 26.8 10.019 26.8 10.019C26.8 10.019 26.8 10.0191 26.8 10.0191C26.8 10.0191 26.8 10.0191 26.8 10.0191C26.8 10.0191 26.8 10.0191 26.8 10.0192C26.8 10.0192 26.8 10.0192 26.8 10.0192C26.8 10.0192 26.8 10.0192 26.8 10.0192C26.8 10.0192 26.8 10.0193 26.8 10.0193C26.8 10.0193 26.8 10.0193 26.8 10.0193C26.8 10.0193 26.8 10.0193 26.8 10.0193C26.8 10.0193 26.8 10.0193 26.8 10.0193C26.8 10.0194 26.8 10.0194 26.8 10.0194C26.8 10.0194 26.8 10.0194 26.8 10.0194C26.8 10.0194 26.8 10.0194 26.8 10.0194C26.8 10.0194 26.8 10.0194 26.8 10.0194C26.8 10.0194 26.8 10.0194 26.8 10.0194C26.8 10.0194 26.8 10.0194 26.8 10.0195C26.8 10.0195 26.8 10.0195 26.8 10.0195C26.8 10.0195 26.8 10.0195 26.8 10.0195C26.8 10.0195 26.8 10.0195 26.8 10.0195V10.0195C26.8 10.0195 26.8 10.0195 26.8 10.0195C26.5 10.0195 26.2 10.0195 26.2 10.0195C26.2 10.0195 26.2 10.0195 26.2 10.0195C26.2 10.0195 26.2 10.0195 26.2 10.0195C26.2 10.0195 26.2 10.0195 26.2 10.0195C26.2 10.0195 26.2 10.0195 26.2 10.0195C26.2 10.0195 26.2 10.0194 26.2 10.0194C26.2 10.0194 26.2 10.0194 26.2 10.0194C26.2 10.0194 26.2 10.0194 26.2 10.0194C26.2 10.0194 26.2 10.0194 26.2 10.0194C26.2 10.0194 26.2 10.0194 26.2 10.0194C26.2 10.0194 26.2 10.0194 26.2 10.0194C26.2 10.0194 26.2 10.0194 26.2 10.0193C26.2 10.0193 26.2 10.0193 26.2 10.0193C26.2 10.0193 26.2 10.0193 26.2 10.0193C26.2 10.0193 26.2 10.0193 26.2 10.0193C26.2 10.0193 26.2 10.0193 26.2 10.0193C26.2 10.0192 26.2 10.0192 26.2 10.0192C26.2 10.0192 26.2 10.0192 26.2 10.0192C26.2 10.0192 26.2 10.0192 26.2 10.0192C26.2 10.0192 26.2 10.0191 26.2 10.0191C26.2 10.0191 26.2 10.0191 26.2 10.0191C26.2 10.0191 26.2 10.0191 26.2 10.0191C26.2 10.0191 26.2 10.019 26.2 10.019C26.2 10.019 26.2 10.019 26.2 10.019C26.2 10.019 26.2 10.019 26.2 10.019C26.2 10.0189 26.2 10.0189 26.2 10.0189C26.2 10.0189 26.2 10.0189 26.2 10.0189C26.2 10.0189 26.2 10.0189 26.2 10.0188C26.2 10.0188 26.2 10.0188 26.2 10.0188C26.2 10.0188 26.2 10.0188 26.2 10.0188C26.2 10.0187 26.2 10.0187 26.2 10.0187C26.2 10.0187 26.2 10.0187 26.2 10.0187C26.2 10.0187 26.2 10.0186 26.2 10.0186C26.2 10.0186 26.2 10.0186 26.2 10.0186C26.2 10.0186 26.2 10.0186 26.2 10.0185C26.2 10.0185 26.2 10.0185 26.2 10.0185C26.2 10.0185 26.2 10.0185 26.2 10.0184C26.2 10.0184 26.2 10.0184 26.2 10.0184C26.2 10.0184 26.2 10.0184 26.2 10.0184C26.2 10.0183 26.2 10.0183 26.2 10.0183C26.2 10.0183 26.2 10.0183 26.2 10.0183C26.2 10.0182 26.2 10.0182 26.2 10.0182C26.2 10.0182 26.2 10.0182 26.2 10.0182C26.2 10.0181 26.2 10.0181 26.2 10.0181C26.2 10.0181 26.2 10.0181 26.2 10.0181C26.2 10.018 26.2 10.018 26.2 10.018C26.2 10.018 26.2 10.018 26.2 10.018C26.2 10.018 26.2 10.0179 26.2 10.0179C26.2 10.0179 26.2 10.0179 26.2 10.0179C26.2 10.0179 26.2 10.0178 26.2 10.0178C26.2 10.0178 26.2 10.0178 26.2 10.0178C26.2 10.0178 26.2 10.0177 26.2 10.0177C26.2 10.0177 26.2 10.0177 26.2 10.0177C26.2 10.0177 26.2 10.0176 26.2 10.0176C26.2 10.0176 26.2 10.0176 26.2 10.0176C26.2 10.0176 26.2 10.0175 26.2 10.0175C26.2 10.0175 26.2 10.0175 26.2 10.0175C26.2 10.0175 26.2 10.0174 26.2 10.0174C26.2 10.0174 26.2 10.0174 26.2 10.0174C26.2 10.0174 26.2 10.0174 26.2 10.0173C26.2 10.0173 26.2 10.0173 26.2 10.0173C26.2 10.0173 26.2 10.0173 26.2 10.0172C26.2 10.0172 26.2 10.0172 26.2 10.0172C26.2 10.0172 26.2 10.0172 26.2 10.0172C26.2 10.0171 26.2 10.0171 26.2 10.0171C26.2 10.0171 26.2 10.0171 26.2 10.0171C26.2 10.017 26.2 10.017 26.2 10.017C26.2 10.017 26.2 10.017 26.2 10.017C26.2 10.017 26.2 10.017 26.2 10.0169C26.2 10.0169 26.2 10.0169 26.2 10.0169C26.2 10.0169 26.2 10.0169 26.2 10.0169C26.2 10.0168 26.2 10.0168 26.2 10.0168C26.2 10.0168 26.2 10.0168 26.2 10.0168C26.2 10.0168 26.2 10.0168 26.2 10.0167C26.2 10.0167 26.2 10.0167 26.2 10.0167C26.2 10.0167 26.2 10.0167 26.2 10.0167C26.2 10.0167 26.2 10.0166 26.2 10.0166C26.2 10.0166 26.2 10.0166 26.2 10.0166C26.2 10.0166 26.2 10.0166 26.2 10.0166C26.2 10.0166 26.2 10.0166 26.2 10.0165C26.2 10.0165 26.2 10.0165 26.2 10.0165C26.2 10.0165 26.2 10.0165 26.2 10.0165C26.2 10.0165 26.2 10.0165 26.2 10.0165C26.2 10.0165 26.2 10.0164 26.2 10.0164C26.2 10.0164 26.2 10.0164 26.2 10.0164C26.2 10.0164 26.2 10.0164 26.2 10.0164C26.2 10.0164 26.2 10.0164 26.2 10.0164C26.2 10.0164 26.2 10.0164 26.2 10.0163C26.2 10.0163 26.2 10.0163 26.2 10.0163C26.2 10.0163 26.2 10.0163 26.2 10.0163C26.2 10.0163 26.2 10.0163 26.2 10.0163C26.2 10.0163 26.2 10.0163 26.2 10.0163C26.2 10.0163 26.2 10.0163 26.2 10.0163C26.2 10.0163 26.2 10.0163 26.2 10.0163C26.2 10.0163 26.2 10.0163 26.2 10.0163C26.2 10.0163 26.2 10.0163 26.2 10.0163V10.0163C26.2 10.0163 26.2 10.0163 26.5 10.0163ZM25.2123 8.33595C24.933 8.33595 24.7612 8.33466 24.6586 8.33335C24.6073 8.3327 24.5732 8.33204 24.5514 8.33153C24.5405 8.33127 24.5327 8.33105 24.5274 8.33088C24.5247 8.3308 24.5226 8.33073 24.5211 8.33067C24.5203 8.33065 24.5196 8.33062 24.5191 8.3306C24.5189 8.33059 24.5186 8.33058 24.5184 8.33058C24.5183 8.33057 24.5182 8.33057 24.5182 8.33056C24.5181 8.33056 24.5181 8.33056 24.518 8.33056C24.518 8.33056 24.518 8.33056 24.518 8.33056C24.518 8.33055 24.5179 8.33055 24.5303 8.03081C24.5426 7.73106 24.5425 7.73106 24.5425 7.73106C24.5425 7.73106 24.5425 7.73106 24.5425 7.73106C24.5424 7.73106 24.5424 7.73105 24.5424 7.73105C24.5423 7.73105 24.5423 7.73105 24.5422 7.73105C24.5422 7.73104 24.5421 7.73104 24.5421 7.73104C24.5421 7.73104 24.5422 7.73105 24.5425 7.73106C24.5431 7.73108 24.5442 7.73112 24.5461 7.73117C24.5497 7.73129 24.556 7.73147 24.5656 7.7317C24.5847 7.73215 24.6167 7.73277 24.6663 7.7334C24.7655 7.73467 24.9347 7.73595 25.2123 7.73595V8.33595ZM24.5277 8.3308L20.8594 8.29994L20.8645 7.69996L24.5328 7.73082L24.5277 8.3308Z" fill="white" mask="url(#path-2-outside-1_1031_10128)"/>
<path d="M14.2086 11.9838L14.2086 11.9838L14.2091 11.9834L14.3405 11.8794L14.3814 11.8469H14.4336H16.8608H19.288H19.3476L19.391 11.8879L19.5181 12.0079C19.6452 12.128 19.7176 12.2801 19.7138 12.4425C19.71 12.6046 19.6308 12.7549 19.4978 12.8732L19.4978 12.8732L19.4967 12.8741L19.3866 12.9701L19.3445 13.0068L19.2888 13.0071L16.9209 13.0191L16.9208 13.0191C16.8734 13.0193 16.8269 13.0195 16.7813 13.0197C15.5617 13.0253 14.9358 13.0282 14.6019 12.9985C14.4315 12.9833 14.3087 12.9582 14.219 12.901C14.1291 12.8437 14.0889 12.7628 14.0607 12.7061C14.0584 12.7015 14.0562 12.697 14.0541 12.6928C13.924 12.4362 13.989 12.1593 14.2086 11.9838Z" fill="white" stroke="white" stroke-width="0.3"/>
<path d="M14.2868 15.1439L14.2871 15.1437C14.3429 15.1121 14.3996 15.0946 14.5107 15.0828C14.6172 15.0715 14.7867 15.0643 15.0754 15.0593C15.6553 15.0492 16.7382 15.0482 18.8131 15.0482C20.8139 15.0482 21.8977 15.0492 22.4932 15.0583C22.79 15.0627 22.97 15.0693 23.0829 15.0792C23.1894 15.0885 23.2623 15.1021 23.321 15.1402C23.4108 15.1976 23.4889 15.2591 23.5382 15.3482C23.5876 15.4375 23.5971 15.5346 23.5972 15.6367C23.5995 15.7527 23.5777 15.861 23.5206 15.9558C23.463 16.0513 23.3776 16.1199 23.2754 16.1694L23.2754 16.1694L23.274 16.17C23.2465 16.183 23.2158 16.1871 23.2045 16.1886L23.2034 16.1888C23.1853 16.1912 23.1634 16.1933 23.1387 16.195C23.0889 16.1987 23.02 16.2018 22.9316 16.2047C22.7545 16.2103 22.4932 16.2149 22.1376 16.2184C21.4262 16.2254 20.3338 16.2284 18.7749 16.2284H14.4373H14.3851L14.3442 16.196L14.2133 16.0923C13.886 15.8368 13.9298 15.3473 14.2868 15.1439Z" fill="white" stroke="white" stroke-width="0.3"/>
<path d="M14.6344 19.4468L14.6344 19.4468C14.6736 19.4506 14.829 19.4533 15.0604 19.4556C15.2975 19.4579 15.6255 19.4598 16.0204 19.461L14.6344 19.4468ZM14.6344 19.4468L14.6317 19.4465M14.6344 19.4468L14.6317 19.4465M14.6317 19.4465C14.3221 19.4105 14.0575 19.2481 14.0019 18.9581M14.6317 19.4465L23.5175 19.1658M23.5175 19.1658L23.5175 19.1658C23.622 19.0222 23.6294 18.8416 23.5803 18.689C23.531 18.5358 23.4199 18.3924 23.2588 18.3146M23.5175 19.1658L23.5163 19.1674M23.5175 19.1658L23.5163 19.1674M23.2588 18.3146C23.2585 18.3145 23.2581 18.3143 23.2578 18.3142L23.1929 18.4494L23.2597 18.3151C23.2594 18.3149 23.2591 18.3148 23.2588 18.3146ZM23.2588 18.3146C23.2365 18.3037 23.2143 18.2996 23.2073 18.2983L23.2067 18.2982C23.1953 18.2961 23.1829 18.2944 23.1708 18.2931C23.1464 18.2903 23.1152 18.2879 23.0788 18.2857C23.0057 18.2812 22.9049 18.2772 22.7811 18.2735C22.5331 18.2662 22.1883 18.2603 21.7794 18.2556C20.9615 18.2464 19.8846 18.2424 18.8069 18.2434C17.7293 18.2444 16.6505 18.2504 15.8289 18.2611C15.4182 18.2665 15.0711 18.2731 14.8204 18.2809C14.6952 18.2847 14.5929 18.2889 14.5183 18.2935C14.4812 18.2958 14.4493 18.2983 14.4243 18.301C14.4119 18.3024 14.3995 18.304 14.3881 18.3059C14.3801 18.3073 14.3607 18.3108 14.341 18.3191L14.3991 18.4574L14.3428 18.3183C14.0963 18.4181 13.9505 18.6977 14.0019 18.9581M14.0019 18.9581C14.0019 18.9579 14.0018 18.9577 14.0018 18.9575L14.1491 18.9295L14.002 18.9587C14.002 18.9585 14.0019 18.9583 14.0019 18.9581ZM23.5163 19.1674C23.513 19.1718 23.5089 19.178 23.5041 19.1855C23.4782 19.2253 23.4288 19.3015 23.3339 19.3458C23.2355 19.3918 23.0851 19.4123 22.8329 19.4258C22.3634 19.451 21.4481 19.4533 19.6058 19.458C19.4153 19.4585 19.2149 19.459 19.004 19.4595L23.5163 19.1674Z" fill="white" stroke="white" stroke-width="0.3"/>
</svg>
