<svg width="34" height="35" viewBox="0 0 34 35" fill="none" xmlns="http://www.w3.org/2000/svg">
<rect width="34" height="34.8733" rx="17" fill="#2B52DD"/>
<mask id="path-2-outside-1_1031_10026" maskUnits="userSpaceOnUse" x="7" y="6.87329" width="20" height="21" fill="black">
<rect fill="white" x="7" y="6.87329" width="20" height="21"/>
<path d="M13.0592 8.03595C12.9194 8.05195 12.7372 8.08396 12.6483 8.11196C12.1612 8.26399 11.6486 8.66405 11.3945 9.08811C11.1064 9.56819 11.1276 9.17213 11.081 15.6371C11.0598 18.8616 11.0344 21.522 11.0259 21.55C11.0132 21.586 10.704 21.598 9.66619 21.598C8.40387 21.598 8.32339 21.602 8.20902 21.6781C7.99722 21.8221 7.98875 21.8821 8.00569 23.3023C8.02264 24.6065 8.02264 24.6225 8.13701 24.9386C8.5013 25.9667 9.38661 26.6748 10.5218 26.8389C10.7209 26.8669 12.8559 26.8789 17.168 26.8709L23.522 26.8589L23.8608 26.7588C24.8266 26.4708 25.551 25.7907 25.8899 24.8625C25.9746 24.6265 25.9746 24.5265 26 20.9779V10.0163C26 10.0163 26 10.1043 26 9.36016C26 8.61602 25.2692 8.03595 24.7123 8.03595C24.1554 8.03595 24.0303 8.03081 24.0303 8.03081L20.362 7.99995C16.4861 8.00395 13.199 8.01995 13.0592 8.03595ZM24.242 8.96009C25.0257 8.96009 25.1316 9.63618 25.1359 9.73621C25.1401 9.83625 25.085 11.8925 25.0681 17.0773L25.0469 24.4185L24.9537 24.6545C24.8309 24.9546 24.7123 25.1346 24.4793 25.3706C23.9032 25.9547 22.9713 26.1267 22.2173 25.7827C21.7005 25.5507 21.3743 25.2186 21.1625 24.7225C21.0736 24.5105 21.0651 24.4265 21.0439 23.1983C21.0228 21.7821 21.0143 21.7501 20.7644 21.6461C20.6881 21.61 19.5063 21.598 16.3166 21.598H11.979L12.0044 17.9655C12.0171 15.9692 12.0426 13.3208 12.0595 12.0766C12.0849 9.83623 12.0891 9.81623 12.1823 9.6162C12.3348 9.30015 12.6314 9.05211 12.9575 8.96009C13.127 8.91609 23.4584 8.96009 24.242 8.96009ZM20.0697 23.3783C20.0697 24.6345 20.184 25.0946 20.6415 25.6987L20.8364 25.9587L15.6346 25.9507C10.5939 25.9387 10.4287 25.9347 10.2423 25.8627C9.94999 25.7427 9.62383 25.5267 9.45439 25.3426C9.22141 25.0906 9.02232 24.6665 8.97149 24.3185C8.9249 23.9784 8.91219 22.5462 8.95878 22.5062C8.97149 22.4902 11.4792 22.4782 14.5291 22.4782H20.0697V23.3783Z"/>
</mask>
<path d="M13.0592 8.03595C12.9194 8.05195 12.7372 8.08396 12.6483 8.11196C12.1612 8.26399 11.6486 8.66405 11.3945 9.08811C11.1064 9.56819 11.1276 9.17213 11.081 15.6371C11.0598 18.8616 11.0344 21.522 11.0259 21.55C11.0132 21.586 10.704 21.598 9.66619 21.598C8.40387 21.598 8.32339 21.602 8.20902 21.6781C7.99722 21.8221 7.98875 21.8821 8.00569 23.3023C8.02264 24.6065 8.02264 24.6225 8.13701 24.9386C8.5013 25.9667 9.38661 26.6748 10.5218 26.8389C10.7209 26.8669 12.8559 26.8789 17.168 26.8709L23.522 26.8589L23.8608 26.7588C24.8266 26.4708 25.551 25.7907 25.8899 24.8625C25.9746 24.6265 25.9746 24.5265 26 20.9779V10.0163C26 10.0163 26 10.1043 26 9.36016C26 8.61602 25.2692 8.03595 24.7123 8.03595C24.1554 8.03595 24.0303 8.03081 24.0303 8.03081L20.362 7.99995C16.4861 8.00395 13.199 8.01995 13.0592 8.03595ZM24.242 8.96009C25.0257 8.96009 25.1316 9.63618 25.1359 9.73621C25.1401 9.83625 25.085 11.8925 25.0681 17.0773L25.0469 24.4185L24.9537 24.6545C24.8309 24.9546 24.7123 25.1346 24.4793 25.3706C23.9032 25.9547 22.9713 26.1267 22.2173 25.7827C21.7005 25.5507 21.3743 25.2186 21.1625 24.7225C21.0736 24.5105 21.0651 24.4265 21.0439 23.1983C21.0228 21.7821 21.0143 21.7501 20.7644 21.6461C20.6881 21.61 19.5063 21.598 16.3166 21.598H11.979L12.0044 17.9655C12.0171 15.9692 12.0426 13.3208 12.0595 12.0766C12.0849 9.83623 12.0891 9.81623 12.1823 9.6162C12.3348 9.30015 12.6314 9.05211 12.9575 8.96009C13.127 8.91609 23.4584 8.96009 24.242 8.96009ZM20.0697 23.3783C20.0697 24.6345 20.184 25.0946 20.6415 25.6987L20.8364 25.9587L15.6346 25.9507C10.5939 25.9387 10.4287 25.9347 10.2423 25.8627C9.94999 25.7427 9.62383 25.5267 9.45439 25.3426C9.22141 25.0906 9.02232 24.6665 8.97149 24.3185C8.9249 23.9784 8.91219 22.5462 8.95878 22.5062C8.97149 22.4902 11.4792 22.4782 14.5291 22.4782H20.0697V23.3783Z" fill="white"/>
<path d="M12.6483 8.11196L12.7384 8.39812L12.7377 8.39834L12.6483 8.11196ZM11.3945 9.08811L11.6518 9.24234L11.6517 9.24246L11.3945 9.08811ZM11.081 15.6371L10.781 15.6352L10.781 15.635L11.081 15.6371ZM11.0259 21.55L11.3134 21.637L11.3088 21.6499L11.0259 21.55ZM8.20902 21.6781L8.04032 21.43L8.04297 21.4282L8.20902 21.6781ZM8.00569 23.3023L7.70572 23.3062L7.70572 23.3059L8.00569 23.3023ZM8.13701 24.9386L8.41911 24.8365L8.41978 24.8384L8.13701 24.9386ZM10.5218 26.8389L10.4801 27.1359L10.4789 27.1358L10.5218 26.8389ZM17.168 26.8709L17.1686 27.1709H17.1686L17.168 26.8709ZM23.522 26.8589L23.6069 27.1466L23.5656 27.1588L23.5225 27.1589L23.522 26.8589ZM23.8608 26.7588L23.9466 27.0463L23.9458 27.0466L23.8608 26.7588ZM25.8899 24.8625L26.1722 24.9639L26.1717 24.9654L25.8899 24.8625ZM26 20.9779H26.3L26.3 20.9801L26 20.9779ZM20.362 7.99995L20.3616 7.69993L20.3645 7.69996L20.362 7.99995ZM25.0681 17.0773L24.7681 17.0765V17.0764L25.0681 17.0773ZM25.0469 24.4185L25.3469 24.4193L25.3467 24.476L25.326 24.5286L25.0469 24.4185ZM24.9537 24.6545L25.2328 24.7647L25.2314 24.7682L24.9537 24.6545ZM24.4793 25.3706L24.2657 25.16L24.2658 25.1599L24.4793 25.3706ZM22.2173 25.7827L22.3402 25.509L22.3418 25.5098L22.2173 25.7827ZM21.1625 24.7225L20.8866 24.8403L20.8859 24.8386L21.1625 24.7225ZM21.0439 23.1983L20.744 23.2035L20.744 23.2028L21.0439 23.1983ZM20.7644 21.6461L20.649 21.9233L20.6363 21.9173L20.7644 21.6461ZM11.979 21.598V21.898H11.6769L11.679 21.5959L11.979 21.598ZM12.0044 17.9655L12.3044 17.9674L12.3044 17.9676L12.0044 17.9655ZM12.0595 12.0766L12.3595 12.08L12.3595 12.0807L12.0595 12.0766ZM12.1823 9.6162L11.9104 9.48949L11.9121 9.48583L12.1823 9.6162ZM12.9575 8.96009L12.876 8.6713L12.8821 8.66973L12.9575 8.96009ZM20.6415 25.6987L20.8807 25.5176L20.8816 25.5188L20.6415 25.6987ZM20.8364 25.9587L21.0765 25.7788L21.4367 26.2596L20.8359 26.2587L20.8364 25.9587ZM15.6346 25.9507L15.6342 26.2507L15.6339 26.2507L15.6346 25.9507ZM10.2423 25.8627L10.1341 26.1426L10.1283 26.1402L10.2423 25.8627ZM9.45439 25.3426L9.67469 25.139L9.67509 25.1394L9.45439 25.3426ZM8.97149 24.3185L8.67463 24.3618L8.67427 24.3592L8.97149 24.3185ZM8.95878 22.5062L9.19372 22.6927L9.17592 22.7152L9.15421 22.7338L8.95878 22.5062ZM20.0697 22.4782V22.1782H20.3697V22.4782H20.0697ZM24.0303 8.03081L24.0328 7.73066L24.0426 7.73106L24.0303 8.03081ZM13.0933 8.33401C12.959 8.34938 12.7996 8.37885 12.7384 8.39812L12.5582 7.82581C12.6749 7.78907 12.8798 7.75453 13.0251 7.7379L13.0933 8.33401ZM12.7377 8.39834C12.3189 8.52904 11.867 8.8832 11.6518 9.24234L11.1371 8.93389C11.4302 8.44489 12.0035 7.99893 12.5589 7.82558L12.7377 8.39834ZM11.6517 9.24246C11.5634 9.38962 11.5431 9.40652 11.518 9.49065C11.4902 9.58349 11.4651 9.7482 11.4468 10.1325C11.4107 10.8937 11.4043 12.4011 11.381 15.6393L10.781 15.635C10.8043 12.4081 10.8106 10.8811 10.8475 10.104C10.8658 9.71923 10.8923 9.48887 10.9431 9.31892C10.9964 9.14027 11.0815 9.02664 11.1372 8.93376L11.6517 9.24246ZM11.381 15.6391C11.3704 17.2516 11.3587 18.7231 11.3487 19.7951C11.3436 20.331 11.339 20.7674 11.3351 21.0716C11.3331 21.2237 11.3314 21.3432 11.3298 21.4259C11.329 21.467 11.3283 21.5 11.3276 21.5235C11.3272 21.535 11.3268 21.5458 11.3264 21.5547C11.3262 21.5589 11.3259 21.5649 11.3253 21.5713C11.3251 21.5743 11.3246 21.5799 11.3238 21.5866C11.3237 21.5873 11.3212 21.6101 11.3131 21.6369L10.7388 21.4632C10.7339 21.4795 10.7315 21.4925 10.7306 21.4972C10.7295 21.5034 10.7289 21.5084 10.7285 21.5112C10.7278 21.5168 10.7274 21.521 10.7273 21.5223C10.7271 21.5252 10.7271 21.5266 10.7271 21.5248C10.7273 21.5218 10.7275 21.5157 10.7278 21.5054C10.7284 21.4853 10.7291 21.4551 10.7299 21.4145C10.7314 21.3337 10.7332 21.2156 10.7352 21.0639C10.739 20.7607 10.7437 20.3252 10.7487 19.7894C10.7588 18.7181 10.7704 17.2472 10.781 15.6352L11.381 15.6391ZM11.3088 21.6499C11.2767 21.7409 11.2128 21.7892 11.1821 21.8089C11.1485 21.8305 11.117 21.842 11.0985 21.8479C11.0608 21.8601 11.0224 21.8663 10.9932 21.8702C10.9313 21.8783 10.847 21.8835 10.7412 21.8873C10.5265 21.8951 10.1846 21.898 9.66619 21.898V21.298C10.1856 21.298 10.5172 21.295 10.7197 21.2877C10.8225 21.284 10.8828 21.2795 10.9149 21.2753C10.9327 21.273 10.9286 21.2723 10.9143 21.2769C10.9075 21.2791 10.885 21.2866 10.8578 21.3041C10.8335 21.3197 10.7736 21.3637 10.743 21.4502L11.3088 21.6499ZM9.66619 21.898C9.03029 21.898 8.70531 21.8992 8.52349 21.9091C8.4323 21.9141 8.39578 21.9206 8.38163 21.9242C8.3796 21.9247 8.38407 21.9219 8.37507 21.9279L8.04297 21.4282C8.09115 21.3962 8.14858 21.3644 8.23325 21.3428C8.3058 21.3243 8.38974 21.3155 8.49076 21.31C8.69336 21.2989 9.03977 21.298 9.66619 21.298V21.898ZM8.37771 21.9261C8.32857 21.9595 8.33407 21.9612 8.33927 21.9529C8.34298 21.947 8.33017 21.9621 8.31924 22.049C8.29604 22.2335 8.29705 22.5762 8.30567 23.2987L7.70572 23.3059C7.69739 22.6082 7.69417 22.2108 7.72392 21.9742C7.73946 21.8506 7.76743 21.7349 7.83176 21.6329C7.89759 21.5285 7.98357 21.4686 8.04033 21.43L8.37771 21.9261ZM8.30567 23.2984C8.31423 23.9571 8.31847 24.2734 8.33387 24.4672C8.34735 24.6368 8.36674 24.6918 8.41911 24.8365L7.85491 25.0406C7.79291 24.8693 7.75511 24.7583 7.73576 24.5148C7.71833 24.2955 7.71411 23.9517 7.70572 23.3062L8.30567 23.2984ZM8.41978 24.8384C8.74476 25.7556 9.53345 26.3929 10.5647 26.5419L10.4789 27.1358C9.23978 26.9567 8.25784 26.1779 7.85423 25.0388L8.41978 24.8384ZM10.5636 26.5418C10.5632 26.5417 10.5728 26.5429 10.5995 26.5444C10.6239 26.5459 10.6565 26.5473 10.6982 26.5488C10.7814 26.5517 10.8959 26.5544 11.0429 26.5568C11.3367 26.5617 11.7556 26.5656 12.304 26.5684C13.4006 26.5739 15.0116 26.5749 17.1675 26.5709L17.1686 27.1709C15.0123 27.1749 13.3997 27.1739 12.301 27.1684C11.7518 27.1656 11.3302 27.1617 11.0329 27.1568C10.7486 27.152 10.5532 27.1462 10.4801 27.1359L10.5636 26.5418ZM17.1675 26.5709L23.5214 26.5589L23.5225 27.1589L17.1686 27.1709L17.1675 26.5709ZM23.4371 26.5711L23.7759 26.4711L23.9458 27.0466L23.6069 27.1466L23.4371 26.5711ZM23.7751 26.4714C24.6514 26.21 25.3022 25.5975 25.6081 24.7597L26.1717 24.9654C25.7998 25.9839 25.0019 26.7316 23.9466 27.0463L23.7751 26.4714ZM25.6075 24.7612C25.6324 24.6919 25.6536 24.65 25.6673 24.1542C25.6809 23.6601 25.6873 22.7524 25.7 20.9758L26.3 20.9801C26.2873 22.7521 26.2809 23.6687 26.2671 24.1707C26.2532 24.6711 26.2321 24.7971 26.1722 24.9639L25.6075 24.7612ZM20.3623 8.29995C18.4246 8.30195 16.6342 8.30695 15.311 8.31344C14.6493 8.31669 14.1048 8.32032 13.7171 8.32412C13.5232 8.32603 13.3691 8.32797 13.2595 8.32993C13.1389 8.33208 13.0923 8.33412 13.0933 8.33401L13.0251 7.7379C13.061 7.73379 13.1477 7.73182 13.2488 7.73002C13.3608 7.72802 13.5168 7.72606 13.7112 7.72415C14.1003 7.72033 14.646 7.7167 15.3081 7.71345C16.6323 7.70695 18.4234 7.70195 20.3616 7.69995L20.3623 8.29995ZM25.4356 9.72342C25.4382 9.78448 25.4251 10.3434 25.4099 11.5039C25.3946 12.6776 25.3766 14.4869 25.3681 17.0783L24.7681 17.0764C24.7766 14.483 24.7946 12.6718 24.81 11.4961C24.8176 10.9082 24.8247 10.4794 24.8295 10.1913C24.8319 10.0471 24.8338 9.9388 24.8349 9.86325C24.8355 9.82543 24.8358 9.79654 24.836 9.7758C24.8362 9.75162 24.836 9.74608 24.8361 9.74901L25.4356 9.72342ZM25.3681 17.0782L25.3469 24.4193L24.7469 24.4176L24.7681 17.0765L25.3681 17.0782ZM25.326 24.5286L25.2328 24.7647L24.6747 24.5443L24.7679 24.3083L25.326 24.5286ZM25.2314 24.7682C25.0935 25.1048 24.953 25.3177 24.6928 25.5814L24.2658 25.1599C24.4715 24.9515 24.5682 24.8043 24.6761 24.5408L25.2314 24.7682ZM24.6929 25.5813C24.0279 26.2555 22.9608 26.4517 22.0928 26.0556L22.3418 25.5098C22.9818 25.8018 23.7785 25.6539 24.2657 25.16L24.6929 25.5813ZM22.0944 26.0564C21.5109 25.7944 21.1289 25.4078 20.8866 24.8403L21.4385 24.6047C21.6198 25.0294 21.8901 25.3069 22.3402 25.509L22.0944 26.0564ZM20.8859 24.8386C20.8287 24.7021 20.7971 24.5968 20.7788 24.3651C20.762 24.1525 20.7545 23.8131 20.744 23.2035L21.3439 23.1931C21.3546 23.8116 21.3619 24.1283 21.3769 24.3178C21.3904 24.4882 21.4075 24.5309 21.4392 24.6065L20.8859 24.8386ZM20.744 23.2028C20.7331 22.4785 20.7251 22.1505 20.6948 21.9838C20.681 21.9079 20.6699 21.9147 20.6889 21.9355C20.7036 21.9517 20.7178 21.9516 20.6491 21.923L20.8796 21.3691C20.9359 21.3925 21.0448 21.4354 21.1321 21.5311C21.2237 21.6314 21.2629 21.7542 21.2851 21.8764C21.3268 22.1057 21.3336 22.5018 21.3439 23.1938L20.744 23.2028ZM20.6363 21.9173C20.6761 21.9361 20.7079 21.9386 20.6919 21.9362C20.6879 21.9356 20.6774 21.9343 20.6576 21.9326C20.6186 21.9294 20.5591 21.9262 20.475 21.9232C20.3076 21.9171 20.0562 21.9123 19.7048 21.9085C19.0029 21.901 17.9115 21.898 16.3166 21.898V21.298C17.9114 21.298 19.0057 21.301 19.7112 21.3086C20.0636 21.3123 20.3213 21.3172 20.4966 21.3236C20.5838 21.3267 20.6541 21.3303 20.7068 21.3347C20.7328 21.3368 20.7586 21.3394 20.7819 21.343C20.7931 21.3447 20.8431 21.3515 20.8925 21.3748L20.6363 21.9173ZM16.3166 21.898H11.979V21.298H16.3166V21.898ZM11.679 21.5959L11.7044 17.9634L12.3044 17.9676L12.279 21.6001L11.679 21.5959ZM11.7044 17.9636C11.7171 15.9668 11.7426 13.3176 11.7595 12.0725L12.3595 12.0807C12.3425 13.3239 12.3171 15.9716 12.3044 17.9674L11.7044 17.9636ZM11.7595 12.0732C11.7722 10.9568 11.7796 10.3836 11.7959 10.0659C11.804 9.90763 11.8149 9.79667 11.834 9.70725C11.8553 9.60783 11.885 9.54395 11.9104 9.4895L12.4543 9.74289C12.433 9.78845 12.4273 9.80209 12.4208 9.83269C12.4121 9.87329 12.4029 9.94485 12.3951 10.0966C12.3796 10.399 12.3722 10.956 12.3595 12.08L11.7595 12.0732ZM11.9121 9.48583C12.1015 9.09347 12.4661 8.78702 12.8761 8.67136L13.039 9.24883C12.7966 9.31719 12.5682 9.50682 12.4525 9.74656L11.9121 9.48583ZM12.8821 8.66973C12.913 8.66171 12.9427 8.65957 12.9472 8.65919C12.9599 8.6581 12.9739 8.65727 12.9878 8.65658C13.016 8.6552 13.0527 8.654 13.0962 8.65293C13.1836 8.65078 13.3053 8.64898 13.4559 8.64747C13.7574 8.64445 14.1789 8.64256 14.6814 8.64153C15.6867 8.63947 17.019 8.64084 18.3701 8.64359C21.0736 8.6491 23.8504 8.66009 24.242 8.66009V9.26009C23.8501 9.26009 21.0693 9.24909 18.3688 9.24359C17.0179 9.24084 15.6866 9.23947 14.6826 9.24153C14.1805 9.24256 13.7609 9.24445 13.4619 9.24744C13.3122 9.24894 13.1939 9.25071 13.1109 9.25275C13.0692 9.25378 13.0382 9.25483 13.0173 9.25586C13.0067 9.25638 13.0008 9.2568 12.9984 9.257C12.9879 9.25791 13.0074 9.2571 13.0329 9.25046L12.8821 8.66973ZM20.3697 23.3783C20.3697 24.0027 20.3988 24.401 20.4753 24.7112C20.549 25.0098 20.67 25.2394 20.8807 25.5176L20.4024 25.8798C20.1556 25.5539 19.9906 25.2514 19.8928 24.8549C19.7978 24.47 19.7697 24.0102 19.7697 23.3783H20.3697ZM20.8816 25.5188L21.0765 25.7788L20.5963 26.1386L20.4014 25.8786L20.8816 25.5188ZM20.8359 26.2587L15.6342 26.2507L15.6351 25.6507L20.8368 25.6587L20.8359 26.2587ZM15.6339 26.2507C13.1149 26.2447 11.8105 26.2407 11.1131 26.2292C10.4377 26.218 10.2881 26.202 10.1342 26.1425L10.3504 25.5829C10.3828 25.5954 10.409 25.6174 11.123 25.6293C11.815 25.6407 13.1136 25.6447 15.6354 25.6507L15.6339 26.2507ZM10.1283 26.1402C9.80514 26.0075 9.43921 25.769 9.23369 25.5458L9.67509 25.1394C9.80845 25.2843 10.0948 25.4779 10.3562 25.5852L10.1283 26.1402ZM9.23409 25.5463C8.95846 25.2481 8.73389 24.7675 8.67464 24.3618L9.26834 24.2751C9.31075 24.5655 9.48436 24.9331 9.67469 25.139L9.23409 25.5463ZM8.67427 24.3592C8.64788 24.1666 8.63334 23.7036 8.6302 23.3022C8.62859 23.0973 8.6299 22.8996 8.63471 22.7488C8.63709 22.6742 8.64046 22.6067 8.6453 22.5541C8.64764 22.5287 8.65093 22.4998 8.65613 22.4728C8.65861 22.4599 8.66304 22.4392 8.67094 22.4162C8.67338 22.4092 8.69557 22.3368 8.76336 22.2786L9.15421 22.7338C9.19242 22.701 9.2125 22.6666 9.22064 22.6516C9.23016 22.6339 9.23559 22.6193 9.23823 22.6116C9.24345 22.5965 9.24532 22.5862 9.24534 22.586C9.24563 22.5845 9.24446 22.5908 9.24278 22.6091C9.23958 22.6438 9.23666 22.6974 9.23441 22.768C9.22995 22.9077 9.22861 23.0967 9.23018 23.2975C9.23339 23.7072 9.24851 24.1303 9.26871 24.2777L8.67427 24.3592ZM8.72385 22.3196C8.76478 22.2681 8.81166 22.2442 8.82564 22.2373C8.84546 22.2275 8.86222 22.2219 8.87095 22.2192C8.88879 22.2137 8.9034 22.211 8.9092 22.21C8.92247 22.2076 8.93386 22.2065 8.93902 22.206C8.95114 22.2049 8.96416 22.2041 8.9753 22.2036C8.99884 22.2024 9.03084 22.2014 9.06932 22.2005C9.14702 22.1986 9.25946 22.1968 9.40205 22.1951C9.68763 22.1917 10.0984 22.1887 10.6035 22.1862C11.6139 22.1812 13.0038 22.1782 14.5291 22.1782V22.7782C13.0044 22.7782 11.6156 22.7812 10.6065 22.7862C10.1018 22.7887 9.69266 22.7917 9.40917 22.795C9.26722 22.7967 9.15784 22.7985 9.08405 22.8003C9.04679 22.8012 9.02063 22.8021 9.00455 22.8029C8.99588 22.8033 8.99373 22.8035 8.99543 22.8034C8.99616 22.8033 8.9979 22.8031 9.00037 22.8028C9.00258 22.8026 9.00718 22.802 9.0132 22.8009C9.01758 22.8001 9.03109 22.7977 9.04812 22.7924C9.05645 22.7899 9.07288 22.7844 9.09245 22.7747C9.10618 22.7679 9.15289 22.7442 9.19372 22.6927L8.72385 22.3196ZM14.5291 22.1782H20.0697V22.7782H14.5291V22.1782ZM20.3697 22.4782V23.3783H19.7697V22.4782H20.3697ZM24.242 8.66009C24.7377 8.66009 25.0504 8.88199 25.2283 9.14053C25.3934 9.38032 25.4317 9.63334 25.4356 9.72342L24.8361 9.74901C24.8362 9.75081 24.8334 9.71395 24.8168 9.65737C24.8007 9.60277 24.7746 9.53953 24.7341 9.48075C24.6622 9.37624 24.53 9.26009 24.242 9.26009V8.66009ZM25.7 9.36016C25.7 9.08917 25.5663 8.83265 25.3591 8.63722C25.1478 8.43789 24.8962 8.33595 24.7123 8.33595V7.73595C25.0853 7.73595 25.4775 7.92405 25.7708 8.20078C26.0683 8.48142 26.3 8.887 26.3 9.36016H25.7ZM25.7 20.9779V10.0163H26.3V20.9779H25.7ZM26 10.0163C26.3 10.0163 26.3 10.0163 26.3 10.0163V10.0163C26.3 10.0163 26.3 10.0163 26.3 10.0163C26.3 10.0163 26.3 10.0163 26.3 10.0163C26.3 10.0163 26.3 10.0163 26.3 10.0163C26.3 10.0163 26.3 10.0163 26.3 10.0163C26.3 10.0163 26.3 10.0163 26.3 10.0163C26.3 10.0163 26.3 10.0163 26.3 10.0163C26.3 10.0163 26.3 10.0163 26.3 10.0163C26.3 10.0163 26.3 10.0163 26.3 10.0163C26.3 10.0164 26.3 10.0164 26.3 10.0164C26.3 10.0164 26.3 10.0164 26.3 10.0164C26.3 10.0164 26.3 10.0164 26.3 10.0164C26.3 10.0164 26.3 10.0164 26.3 10.0164C26.3 10.0164 26.3 10.0165 26.3 10.0165C26.3 10.0165 26.3 10.0165 26.3 10.0165C26.3 10.0165 26.3 10.0165 26.3 10.0165C26.3 10.0165 26.3 10.0165 26.3 10.0165C26.3 10.0166 26.3 10.0166 26.3 10.0166C26.3 10.0166 26.3 10.0166 26.3 10.0166C26.3 10.0166 26.3 10.0166 26.3 10.0166C26.3 10.0166 26.3 10.0167 26.3 10.0167C26.3 10.0167 26.3 10.0167 26.3 10.0167C26.3 10.0167 26.3 10.0167 26.3 10.0167C26.3 10.0168 26.3 10.0168 26.3 10.0168C26.3 10.0168 26.3 10.0168 26.3 10.0168C26.3 10.0168 26.3 10.0168 26.3 10.0169C26.3 10.0169 26.3 10.0169 26.3 10.0169C26.3 10.0169 26.3 10.0169 26.3 10.0169C26.3 10.017 26.3 10.017 26.3 10.017C26.3 10.017 26.3 10.017 26.3 10.017C26.3 10.017 26.3 10.017 26.3 10.0171C26.3 10.0171 26.3 10.0171 26.3 10.0171C26.3 10.0171 26.3 10.0171 26.3 10.0172C26.3 10.0172 26.3 10.0172 26.3 10.0172C26.3 10.0172 26.3 10.0172 26.3 10.0172C26.3 10.0173 26.3 10.0173 26.3 10.0173C26.3 10.0173 26.3 10.0173 26.3 10.0173C26.3 10.0174 26.3 10.0174 26.3 10.0174C26.3 10.0174 26.3 10.0174 26.3 10.0174C26.3 10.0174 26.3 10.0175 26.3 10.0175C26.3 10.0175 26.3 10.0175 26.3 10.0175C26.3 10.0175 26.3 10.0176 26.3 10.0176C26.3 10.0176 26.3 10.0176 26.3 10.0176C26.3 10.0176 26.3 10.0177 26.3 10.0177C26.3 10.0177 26.3 10.0177 26.3 10.0177C26.3 10.0177 26.3 10.0178 26.3 10.0178C26.3 10.0178 26.3 10.0178 26.3 10.0178C26.3 10.0178 26.3 10.0179 26.3 10.0179C26.3 10.0179 26.3 10.0179 26.3 10.0179C26.3 10.0179 26.3 10.018 26.3 10.018C26.3 10.018 26.3 10.018 26.3 10.018C26.3 10.018 26.3 10.018 26.3 10.0181C26.3 10.0181 26.3 10.0181 26.3 10.0181C26.3 10.0181 26.3 10.0181 26.3 10.0182C26.3 10.0182 26.3 10.0182 26.3 10.0182C26.3 10.0182 26.3 10.0182 26.3 10.0183C26.3 10.0183 26.3 10.0183 26.3 10.0183C26.3 10.0183 26.3 10.0183 26.3 10.0184C26.3 10.0184 26.3 10.0184 26.3 10.0184C26.3 10.0184 26.3 10.0184 26.3 10.0184C26.3 10.0185 26.3 10.0185 26.3 10.0185C26.3 10.0185 26.3 10.0185 26.3 10.0185C26.3 10.0186 26.3 10.0186 26.3 10.0186C26.3 10.0186 26.3 10.0186 26.3 10.0186C26.3 10.0186 26.3 10.0187 26.3 10.0187C26.3 10.0187 26.3 10.0187 26.3 10.0187C26.3 10.0187 26.3 10.0187 26.3 10.0188C26.3 10.0188 26.3 10.0188 26.3 10.0188C26.3 10.0188 26.3 10.0188 26.3 10.0188C26.3 10.0189 26.3 10.0189 26.3 10.0189C26.3 10.0189 26.3 10.0189 26.3 10.0189C26.3 10.0189 26.3 10.0189 26.3 10.019C26.3 10.019 26.3 10.019 26.3 10.019C26.3 10.019 26.3 10.019 26.3 10.019C26.3 10.019 26.3 10.0191 26.3 10.0191C26.3 10.0191 26.3 10.0191 26.3 10.0191C26.3 10.0191 26.3 10.0191 26.3 10.0191C26.3 10.0191 26.3 10.0192 26.3 10.0192C26.3 10.0192 26.3 10.0192 26.3 10.0192C26.3 10.0192 26.3 10.0192 26.3 10.0192C26.3 10.0192 26.3 10.0192 26.3 10.0193C26.3 10.0193 26.3 10.0193 26.3 10.0193C26.3 10.0193 26.3 10.0193 26.3 10.0193C26.3 10.0193 26.3 10.0193 26.3 10.0193C26.3 10.0193 26.3 10.0193 26.3 10.0193C26.3 10.0194 26.3 10.0194 26.3 10.0194C26.3 10.0194 26.3 10.0194 26.3 10.0194C26.3 10.0194 26.3 10.0194 26.3 10.0194C26.3 10.0194 26.3 10.0194 26.3 10.0194C26.3 10.0194 26.3 10.0194 26.3 10.0194C26.3 10.0194 26.3 10.0194 26.3 10.0194C26.3 10.0194 26.3 10.0195 26.3 10.0195C26.3 10.0195 26.3 10.0195 26.3 10.0195C26.3 10.0195 26.3 10.0195 26.3 10.0195C26.3 10.0195 26.3 10.0195 26.3 10.0195C26.3 10.0195 26.3 10.0195 26.3 10.0195C26.3 10.0195 26 10.0195 25.7 10.0195C25.7 10.0195 25.7 10.0195 25.7 10.0195V10.0195C25.7 10.0195 25.7 10.0195 25.7 10.0195C25.7 10.0195 25.7 10.0195 25.7 10.0195C25.7 10.0195 25.7 10.0195 25.7 10.0195C25.7 10.0194 25.7 10.0194 25.7 10.0194C25.7 10.0194 25.7 10.0194 25.7 10.0194C25.7 10.0194 25.7 10.0194 25.7 10.0194C25.7 10.0194 25.7 10.0194 25.7 10.0194C25.7 10.0194 25.7 10.0194 25.7 10.0194C25.7 10.0194 25.7 10.0194 25.7 10.0193C25.7 10.0193 25.7 10.0193 25.7 10.0193C25.7 10.0193 25.7 10.0193 25.7 10.0193C25.7 10.0193 25.7 10.0193 25.7 10.0193C25.7 10.0193 25.7 10.0192 25.7 10.0192C25.7 10.0192 25.7 10.0192 25.7 10.0192C25.7 10.0192 25.7 10.0192 25.7 10.0192C25.7 10.0191 25.7 10.0191 25.7 10.0191C25.7 10.0191 25.7 10.0191 25.7 10.0191C25.7 10.0191 25.7 10.019 25.7 10.019C25.7 10.019 25.7 10.019 25.7 10.019C25.7 10.019 25.7 10.0189 25.7 10.0189C25.7 10.0189 25.7 10.0189 25.7 10.0189C25.7 10.0188 25.7 10.0188 25.7 10.0188C25.7 10.0188 25.7 10.0188 25.7 10.0187C25.7 10.0187 25.7 10.0187 25.7 10.0187C25.7 10.0187 25.7 10.0186 25.7 10.0186C25.7 10.0186 25.7 10.0186 25.7 10.0185C25.7 10.0185 25.7 10.0185 25.7 10.0185C25.7 10.0184 25.7 10.0184 25.7 10.0184C25.7 10.0184 25.7 10.0183 25.7 10.0183C25.7 10.0183 25.7 10.0182 25.7 10.0182C25.7 10.0182 25.7 10.0182 25.7 10.0181C25.7 10.0181 25.7 10.0181 25.7 10.018C25.7 10.018 25.7 10.018 25.7 10.0179C25.7 10.0179 25.7 10.0179 25.7 10.0179C25.7 10.0178 25.7 10.0178 25.7 10.0177C25.7 10.0177 25.7 10.0177 25.7 10.0176C25.7 10.0176 25.7 10.0176 25.7 10.0175C25.7 10.0175 25.7 10.0175 25.7 10.0174C25.7 10.0174 25.7 10.0173 25.7 10.0173C25.7 10.0173 25.7 10.0172 25.7 10.0172C25.7 10.0171 25.7 10.0171 25.7 10.0171C25.7 10.017 25.7 10.017 25.7 10.0169C25.7 10.0169 25.7 10.0169 25.7 10.0168C25.7 10.0168 25.7 10.0167 25.7 10.0167C25.7 10.0166 25.7 10.0166 25.7 10.0165C25.7 10.0165 25.7 10.0164 25.7 10.0164C25.7 10.0163 25.7 10.0163 25.7 10.0162C25.7 10.0162 25.7 10.0161 25.7 10.0161C25.7 10.016 25.7 10.016 25.7 10.0159C25.7 10.0159 25.7 10.0158 25.7 10.0158C25.7 10.0157 25.7 10.0157 25.7 10.0156C25.7 10.0156 25.7 10.0155 25.7 10.0155C25.7 10.0154 25.7 10.0153 25.7 10.0153C25.7 10.0152 25.7 10.0152 25.7 10.0151C25.7 10.0151 25.7 10.015 25.7 10.0149C25.7 10.0149 25.7 10.0148 25.7 10.0147C25.7 10.0147 25.7 10.0146 25.7 10.0146C25.7 10.0145 25.7 10.0144 25.7 10.0144C25.7 10.0143 25.7 10.0142 25.7 10.0142C25.7 10.0141 25.7 10.014 25.7 10.014C25.7 10.0139 25.7 10.0138 25.7 10.0138C25.7 10.0137 25.7 10.0136 25.7 10.0135C25.7 10.0135 25.7 10.0134 25.7 10.0133C25.7 10.0133 25.7 10.0132 25.7 10.0131C25.7 10.013 25.7 10.013 25.7 10.0129C25.7 10.0128 25.7 10.0127 25.7 10.0127C25.7 10.0126 25.7 10.0125 25.7 10.0124C25.7 10.0123 25.7 10.0123 25.7 10.0122C25.7 10.0121 25.7 10.012 25.7 10.0119C25.7 10.0119 25.7 10.0118 25.7 10.0117C25.7 10.0116 25.7 10.0115 25.7 10.0114C25.7 10.0113 25.7 10.0113 25.7 10.0112C25.7 10.0111 25.7 10.011 25.7 10.0109C25.7 10.0108 25.7 10.0107 25.7 10.0106C25.7 10.0105 25.7 10.0105 25.7 10.0104C25.7 10.0103 25.7 10.0102 25.7 10.0101C25.7 10.01 25.7 10.0099 25.7 10.0098C25.7 10.0097 25.7 10.0096 25.7 10.0095C25.7 10.0094 25.7 10.0093 25.7 10.0092C25.7 10.0091 25.7 10.009 25.7 10.0089C25.7 10.0088 25.7 10.0087 25.7 10.0086C25.7 10.0085 25.7 10.0084 25.7 10.0083C25.7 10.0082 25.7 10.0081 25.7 10.008C25.7 10.0079 25.7 10.0078 25.7 10.0077C25.7 10.0075 25.7 10.0074 25.7 10.0073C25.7 10.0072 25.7 10.0071 25.7 10.007C25.7 10.0069 25.7 10.0068 25.7 10.0067C25.7 10.0065 25.7 10.0064 25.7 10.0063C25.7 10.0062 25.7 10.0061 25.7 10.006C25.7 10.0058 25.7 10.0057 25.7 10.0056C25.7 10.0055 25.7 10.0054 25.7 10.0052C25.7 10.0051 25.7 10.005 25.7 10.0049C25.7 10.0047 25.7 10.0046 25.7 10.0045C25.7 10.0044 25.7 10.0042 25.7 10.0041C25.7 10.004 25.7 10.0039 25.7 10.0037C25.7 10.0036 25.7 10.0035 25.7 10.0033C25.7 10.0032 25.7 10.0031 25.7 10.0029C25.7 10.0028 25.7 10.0027 25.7 10.0025C25.7 10.0024 25.7 10.0023 25.7 10.0021C25.7 10.002 25.7 10.0018 25.7 10.0017C25.7 10.0016 25.7 10.0014 25.7 10.0013C25.7 10.0011 25.7 10.001 25.7 10.0009C25.7 10.0007 25.7 10.0006 25.7 10.0004C25.7 10.0003 25.7 10.0001 25.7 9.99998C25.7 9.99983 25.7 9.99968 25.7 9.99953C25.7 9.99938 25.7 9.99923 25.7 9.99907C25.7 9.99892 25.7 9.99877 25.7 9.99862C25.7 9.99846 25.7 9.9983 25.7 9.99815C25.7 9.99799 25.7 9.99783 25.7 9.99767C25.7 9.99751 25.7 9.99735 25.7 9.99719C25.7 9.99703 25.7 9.99687 25.7 9.9967C25.7 9.99654 25.7 9.99638 25.7 9.99621C25.7 9.99605 25.7 9.99588 25.7 9.99571C25.7 9.99554 25.7 9.99537 25.7 9.9952C25.7 9.99503 25.7 9.99486 25.7 9.99469C25.7 9.99452 25.7 9.99434 25.7 9.99417C25.7 9.99399 25.7 9.99382 25.7 9.99364C25.7 9.99346 25.7 9.99328 25.7 9.9931C25.7 9.99293 25.7 9.99275 25.7 9.99256C25.7 9.99238 25.7 9.9922 25.7 9.99202C25.7 9.99183 25.7 9.99165 25.7 9.99146C25.7 9.99127 25.7 9.99109 25.7 9.9909C25.7 9.99071 25.7 9.99052 25.7 9.99033C25.7 9.99014 25.7 9.98994 25.7 9.98975C25.7 9.98956 25.7 9.98936 25.7 9.98916C25.7 9.98897 25.7 9.98877 25.7 9.98857C25.7 9.98837 25.7 9.98818 25.7 9.98797C25.7 9.98777 25.7 9.98757 25.7 9.98737C25.7 9.98717 25.7 9.98696 25.7 9.98676C25.7 9.98655 25.7 9.98634 25.7 9.98613C25.7 9.98593 25.7 9.98572 25.7 9.98551C25.7 9.98529 25.7 9.98508 25.7 9.98487C25.7 9.98466 25.7 9.98444 25.7 9.98423C25.7 9.98401 25.7 9.98379 25.7 9.98358C25.7 9.98336 25.7 9.98314 25.7 9.98292C25.7 9.9827 25.7 9.98248 25.7 9.98225C25.7 9.98203 25.7 9.9818 25.7 9.98158C25.7 9.98135 25.7 9.98112 25.7 9.9809C25.7 9.98067 25.7 9.98044 25.7 9.98021C25.7 9.97997 25.7 9.97974 25.7 9.97951C25.7 9.97927 25.7 9.97904 25.7 9.9788C25.7 9.97857 25.7 9.97833 25.7 9.97809C25.7 9.97785 25.7 9.97761 25.7 9.97737C25.7 9.97713 25.7 9.97688 25.7 9.97664C25.7 9.9764 25.7 9.97615 25.7 9.9759C25.7 9.97566 25.7 9.97541 25.7 9.97516C25.7 9.97491 25.7 9.97466 25.7 9.97441C25.7 9.97415 25.7 9.9739 25.7 9.97364C25.7 9.97339 25.7 9.97313 25.7 9.97288C25.7 9.97262 25.7 9.97236 25.7 9.9721C25.7 9.97184 25.7 9.97157 25.7 9.97131C25.7 9.97105 25.7 9.97078 25.7 9.97052C25.7 9.97025 25.7 9.96998 25.7 9.96972C25.7 9.96945 25.7 9.96918 25.7 9.9689C25.7 9.96863 25.7 9.96836 25.7 9.96808C25.7 9.96781 25.7 9.96754 25.7 9.96726C25.7 9.96698 25.7 9.9667 25.7 9.96642C25.7 9.96614 25.7 9.96586 25.7 9.96558C25.7 9.96529 25.7 9.96501 25.7 9.96472C25.7 9.96444 25.7 9.96415 25.7 9.96386C25.7 9.96357 25.7 9.96328 25.7 9.96299C25.7 9.9627 25.7 9.9624 25.7 9.96211C25.7 9.96181 25.7 9.96152 25.7 9.96122C25.7 9.96092 25.7 9.96062 25.7 9.96032C25.7 9.96002 25.7 9.95972 25.7 9.95942C25.7 9.95911 25.7 9.95881 25.7 9.9585C25.7 9.9582 25.7 9.95789 25.7 9.95758C25.7 9.95727 25.7 9.95696 25.7 9.95665C25.7 9.95633 25.7 9.95602 25.7 9.9557C25.7 9.95539 25.7 9.95507 25.7 9.95475C25.7 9.95444 25.7 9.95411 25.7 9.95379C25.7 9.95347 25.7 9.95315 25.7 9.95283C25.7 9.9525 25.7 9.95217 25.7 9.95185C25.7 9.95152 25.7 9.95119 25.7 9.95086C25.7 9.95053 25.7 9.9502 25.7 9.94986C25.7 9.94953 25.7 9.94919 25.7 9.94886C25.7 9.94852 25.7 9.94818 25.7 9.94784C25.7 9.9475 25.7 9.94716 25.7 9.94682C25.7 9.94647 25.7 9.94613 25.7 9.94578C25.7 9.94544 25.7 9.94509 25.7 9.94474C25.7 9.94439 25.7 9.94404 25.7 9.94369C25.7 9.94333 25.7 9.94298 25.7 9.94262C25.7 9.94227 25.7 9.94191 25.7 9.94155C25.7 9.94119 25.7 9.94083 25.7 9.94047C25.7 9.94011 25.7 9.93974 25.7 9.93938C25.7 9.93901 25.7 9.93864 25.7 9.93828C25.7 9.93791 25.7 9.93754 25.7 9.93716C25.7 9.93679 25.7 9.93642 25.7 9.93604C25.7 9.93567 25.7 9.93529 25.7 9.93491C25.7 9.93453 25.7 9.93415 25.7 9.93377C25.7 9.93339 25.7 9.93301 25.7 9.93262C25.7 9.93224 25.7 9.93185 25.7 9.93146C25.7 9.93107 25.7 9.93068 25.7 9.93029C25.7 9.9299 25.7 9.92951 25.7 9.92911C25.7 9.92872 25.7 9.92832 25.7 9.92792C25.7 9.92752 25.7 9.92712 25.7 9.92672C25.7 9.92632 25.7 9.92591 25.7 9.92551C25.7 9.9251 25.7 9.9247 25.7 9.92429C25.7 9.92388 25.7 9.92347 25.7 9.92306C25.7 9.92265 25.7 9.92223 25.7 9.92182C25.7 9.9214 25.7 9.92098 25.7 9.92056C25.7 9.92015 25.7 9.91972 25.7 9.9193C25.7 9.91888 25.7 9.91846 25.7 9.91803C25.7 9.9176 25.7 9.91718 25.7 9.91675C25.7 9.91632 25.7 9.91589 25.7 9.91545C25.7 9.91502 25.7 9.91459 25.7 9.91415C25.7 9.91371 25.7 9.91327 25.7 9.91283C25.7 9.91239 25.7 9.91195 25.7 9.91151C25.7 9.91106 25.7 9.91062 25.7 9.91017C25.7 9.90973 25.7 9.90928 25.7 9.90883C25.7 9.90837 25.7 9.90792 25.7 9.90747C25.7 9.90701 25.7 9.90656 25.7 9.9061C25.7 9.90564 25.7 9.90518 25.7 9.90472C25.7 9.90426 25.7 9.9038 25.7 9.90333C25.7 9.90287 25.7 9.9024 25.7 9.90193C25.7 9.90146 25.7 9.90099 25.7 9.90052C25.7 9.90005 25.7 9.89957 25.7 9.8991C25.7 9.89862 25.7 9.89814 25.7 9.89766C25.7 9.89718 25.7 9.8967 25.7 9.89622C25.7 9.89573 25.7 9.89525 25.7 9.89476C25.7 9.89428 25.7 9.89379 25.7 9.8933C25.7 9.89281 25.7 9.89231 25.7 9.89182C25.7 9.89132 25.7 9.89083 25.7 9.89033C25.7 9.88983 25.7 9.88933 25.7 9.88883C25.7 9.88832 25.7 9.88782 25.7 9.88732C25.7 9.88681 25.7 9.8863 25.7 9.88579C25.7 9.88528 25.7 9.88477 25.7 9.88426C25.7 9.88374 25.7 9.88323 25.7 9.88271C25.7 9.88219 25.7 9.88167 25.7 9.88115C25.7 9.88063 25.7 9.88011 25.7 9.87958C25.7 9.87906 25.7 9.87853 25.7 9.878C25.7 9.87747 25.7 9.87694 25.7 9.87641C25.7 9.87588 25.7 9.87534 25.7 9.87481C25.7 9.87427 25.7 9.87373 25.7 9.87319C25.7 9.87265 25.7 9.87211 25.7 9.87156C25.7 9.87102 25.7 9.87047 25.7 9.86992C25.7 9.86938 25.7 9.86883 25.7 9.86827C25.7 9.86772 25.7 9.86717 25.7 9.86661C25.7 9.86605 25.7 9.8655 25.7 9.86494C25.7 9.86438 25.7 9.86381 25.7 9.86325C25.7 9.86269 25.7 9.86212 25.7 9.86155C25.7 9.86098 25.7 9.86041 25.7 9.85984C25.7 9.85927 25.7 9.85869 25.7 9.85812C25.7 9.85754 25.7 9.85696 25.7 9.85638C25.7 9.8558 25.7 9.85522 25.7 9.85464C25.7 9.85405 25.7 9.85347 25.7 9.85288C25.7 9.85229 25.7 9.8517 25.7 9.85111C25.7 9.85051 25.7 9.84992 25.7 9.84932C25.7 9.84873 25.7 9.84813 25.7 9.84753C25.7 9.84693 25.7 9.84632 25.7 9.84572C25.7 9.84511 25.7 9.84451 25.7 9.8439C25.7 9.84329 25.7 9.84268 25.7 9.84207C25.7 9.84145 25.7 9.84084 25.7 9.84022C25.7 9.8396 25.7 9.83898 25.7 9.83836C25.7 9.83774 25.7 9.83712 25.7 9.83649C25.7 9.83587 25.7 9.83524 25.7 9.83461C25.7 9.83398 25.7 9.83335 25.7 9.83271C25.7 9.83208 25.7 9.83144 25.7 9.8308C25.7 9.83017 25.7 9.82952 25.7 9.82888C25.7 9.82824 25.7 9.82759 25.7 9.82695C25.7 9.8263 25.7 9.82565 25.7 9.825C25.7 9.82435 25.7 9.8237 25.7 9.82304C25.7 9.82239 25.7 9.82173 25.7 9.82107C25.7 9.82041 25.7 9.81975 25.7 9.81909C25.7 9.81842 25.7 9.81775 25.7 9.81709C25.7 9.81642 25.7 9.81575 25.7 9.81507C25.7 9.8144 25.7 9.81373 25.7 9.81305C25.7 9.81237 25.7 9.8117 25.7 9.81101C25.7 9.81033 25.7 9.80965 25.7 9.80896C25.7 9.80828 25.7 9.80759 25.7 9.8069C25.7 9.80621 25.7 9.80552 25.7 9.80482C25.7 9.80413 25.7 9.80343 25.7 9.80273C25.7 9.80203 25.7 9.80133 25.7 9.80063C25.7 9.79993 25.7 9.79922 25.7 9.79851C25.7 9.79781 25.7 9.79709 25.7 9.79638C25.7 9.79567 25.7 9.79496 25.7 9.79424C25.7 9.79352 25.7 9.7928 25.7 9.79208C25.7 9.79136 25.7 9.79064 25.7 9.78991C25.7 9.78919 25.7 9.78846 25.7 9.78773C25.7 9.787 25.7 9.78626 25.7 9.78553C25.7 9.7848 25.7 9.78406 25.7 9.78332C25.7 9.78258 25.7 9.78184 25.7 9.78109C25.7 9.78035 25.7 9.7796 25.7 9.77886C25.7 9.77811 25.7 9.77736 25.7 9.7766C25.7 9.77585 25.7 9.77509 25.7 9.77434C25.7 9.77358 25.7 9.77282 25.7 9.77206C25.7 9.7713 25.7 9.77053 25.7 9.76976C25.7 9.769 25.7 9.76823 25.7 9.76746C25.7 9.76669 25.7 9.76591 25.7 9.76513C25.7 9.76436 25.7 9.76358 25.7 9.7628C25.7 9.76202 25.7 9.76123 25.7 9.76045C25.7 9.75966 25.7 9.75888 25.7 9.75809C25.7 9.7573 25.7 9.7565 25.7 9.75571C25.7 9.75491 25.7 9.75412 25.7 9.75331C25.7 9.75252 25.7 9.75171 25.7 9.75091C25.7 9.7501 25.7 9.7493 25.7 9.74849C25.7 9.74768 25.7 9.74687 25.7 9.74606C25.7 9.74524 25.7 9.74442 25.7 9.74361C25.7 9.74279 25.7 9.74197 25.7 9.74114C25.7 9.74032 25.7 9.73949 25.7 9.73866C25.7 9.73784 25.7 9.73701 25.7 9.73617C25.7 9.73534 25.7 9.7345 25.7 9.73367C25.7 9.73283 25.7 9.73199 25.7 9.73114C25.7 9.7303 25.7 9.72946 25.7 9.72861C25.7 9.72776 25.7 9.72691 25.7 9.72606C25.7 9.72521 25.7 9.72435 25.7 9.72349C25.7 9.72264 25.7 9.72178 25.7 9.72091C25.7 9.72005 25.7 9.71919 25.7 9.71832C25.7 9.71745 25.7 9.71658 25.7 9.71571C25.7 9.71484 25.7 9.71396 25.7 9.71309C25.7 9.71221 25.7 9.71133 25.7 9.71045C25.7 9.70957 25.7 9.70868 25.7 9.70779C25.7 9.70691 25.7 9.70602 25.7 9.70513C25.7 9.70423 25.7 9.70334 25.7 9.70244C25.7 9.70155 25.7 9.70065 25.7 9.69974C25.7 9.69884 25.7 9.69794 25.7 9.69703C25.7 9.69612 25.7 9.69521 25.7 9.6943C25.7 9.69339 25.7 9.69247 25.7 9.69156C25.7 9.69064 25.7 9.68972 25.7 9.6888C25.7 9.68788 25.7 9.68695 25.7 9.68602C25.7 9.6851 25.7 9.68417 25.7 9.68323C25.7 9.6823 25.7 9.68137 25.7 9.68043C25.7 9.67949 25.7 9.67855 25.7 9.67761C25.7 9.67667 25.7 9.67572 25.7 9.67477C25.7 9.67383 25.7 9.67287 25.7 9.67192C25.7 9.67097 25.7 9.67001 25.7 9.66906C25.7 9.6681 25.7 9.66714 25.7 9.66617C25.7 9.66521 25.7 9.66424 25.7 9.66328C25.7 9.66231 25.7 9.66134 25.7 9.66036C25.7 9.65939 25.7 9.65841 25.7 9.65743C25.7 9.65646 25.7 9.65547 25.7 9.65449C25.7 9.65351 25.7 9.65252 25.7 9.65153C25.7 9.65054 25.7 9.64955 25.7 9.64855C25.7 9.64756 25.7 9.64656 25.7 9.64556C25.7 9.64456 25.7 9.64356 25.7 9.64255C25.7 9.64155 25.7 9.64054 25.7 9.63953C25.7 9.63852 25.7 9.63751 25.7 9.63649C25.7 9.63548 25.7 9.63446 25.7 9.63344C25.7 9.63242 25.7 9.63139 25.7 9.63037C25.7 9.62934 25.7 9.62831 25.7 9.62728C25.7 9.62625 25.7 9.62521 25.7 9.62417C25.7 9.62314 25.7 9.6221 25.7 9.62105C25.7 9.62001 25.7 9.61897 25.7 9.61792C25.7 9.61687 25.7 9.61582 25.7 9.61477C25.7 9.61371 25.7 9.61266 25.7 9.6116C25.7 9.61054 25.7 9.60948 25.7 9.60841C25.7 9.60735 25.7 9.60628 25.7 9.60521C25.7 9.60414 25.7 9.60307 25.7 9.602C25.7 9.60092 25.7 9.59984 25.7 9.59876C25.7 9.59768 25.7 9.5966 25.7 9.59551C25.7 9.59443 25.7 9.59334 25.7 9.59225C25.7 9.59115 25.7 9.59006 25.7 9.58896C25.7 9.58787 25.7 9.58677 25.7 9.58566C25.7 9.58456 25.7 9.58345 25.7 9.58235C25.7 9.58124 25.7 9.58013 25.7 9.57901C25.7 9.5779 25.7 9.57678 25.7 9.57566C25.7 9.57454 25.7 9.57342 25.7 9.5723C25.7 9.57117 25.7 9.57005 25.7 9.56891C25.7 9.56778 25.7 9.56665 25.7 9.56551C25.7 9.56438 25.7 9.56324 25.7 9.5621C25.7 9.56096 25.7 9.55981 25.7 9.55866C25.7 9.55752 25.7 9.55637 25.7 9.55521C25.7 9.55406 25.7 9.5529 25.7 9.55174C25.7 9.55059 25.7 9.54943 25.7 9.54826C25.7 9.5471 25.7 9.54593 25.7 9.54476C25.7 9.54359 25.7 9.54242 25.7 9.54124C25.7 9.54006 25.7 9.53889 25.7 9.5377C25.7 9.53652 25.7 9.53534 25.7 9.53415C25.7 9.53296 25.7 9.53177 25.7 9.53058C25.7 9.52939 25.7 9.52819 25.7 9.52699C25.7 9.52579 25.7 9.52459 25.7 9.52339C25.7 9.52218 25.7 9.52097 25.7 9.51976C25.7 9.51855 25.7 9.51734 25.7 9.51612C25.7 9.51491 25.7 9.51369 25.7 9.51247C25.7 9.51124 25.7 9.51002 25.7 9.50879C25.7 9.50756 25.7 9.50633 25.7 9.5051C25.7 9.50387 25.7 9.50263 25.7 9.50139C25.7 9.50015 25.7 9.49891 25.7 9.49766C25.7 9.49642 25.7 9.49517 25.7 9.49392C25.7 9.49267 25.7 9.49141 25.7 9.49015C25.7 9.4889 25.7 9.48764 25.7 9.48637C25.7 9.48511 25.7 9.48384 25.7 9.48257C25.7 9.48131 25.7 9.48003 25.7 9.47876C25.7 9.47748 25.7 9.47621 25.7 9.47492C25.7 9.47364 25.7 9.47236 25.7 9.47107C25.7 9.46979 25.7 9.4685 25.7 9.4672C25.7 9.46591 25.7 9.46461 25.7 9.46331C25.7 9.46202 25.7 9.46071 25.7 9.45941C25.7 9.4581 25.7 9.4568 25.7 9.45548C25.7 9.45417 25.7 9.45286 25.7 9.45154C25.7 9.45023 25.7 9.44891 25.7 9.44758C25.7 9.44626 25.7 9.44493 25.7 9.44361C25.7 9.44228 25.7 9.44094 25.7 9.43961C25.7 9.43827 25.7 9.43694 25.7 9.43559C25.7 9.43425 25.7 9.43291 25.7 9.43156C25.7 9.43021 25.7 9.42886 25.7 9.42751C25.7 9.42616 25.7 9.4248 25.7 9.42344C25.7 9.42208 25.7 9.42072 25.7 9.41935C25.7 9.41798 25.7 9.41662 25.7 9.41524C25.7 9.41387 25.7 9.4125 25.7 9.41112C25.7 9.40974 25.7 9.40836 25.7 9.40697C25.7 9.40559 25.7 9.4042 25.7 9.40281C25.7 9.40142 25.7 9.40003 25.7 9.39863C25.7 9.39723 25.7 9.39583 25.7 9.39443C25.7 9.39303 25.7 9.39162 25.7 9.39021C25.7 9.3888 25.7 9.38739 25.7 9.38597C25.7 9.38456 25.7 9.38314 25.7 9.38172C25.7 9.3803 25.7 9.37887 25.7 9.37745C25.7 9.37602 25.7 9.37459 25.7 9.37315C25.7 9.37172 25.7 9.37028 25.7 9.36884C25.7 9.3674 25.7 9.36595 25.7 9.36451C25.7 9.36306 25.7 9.36161 25.7 9.36016H26.3C26.3 9.36161 26.3 9.36306 26.3 9.36451C26.3 9.36595 26.3 9.3674 26.3 9.36884C26.3 9.37028 26.3 9.37172 26.3 9.37315C26.3 9.37459 26.3 9.37602 26.3 9.37745C26.3 9.37887 26.3 9.3803 26.3 9.38172C26.3 9.38314 26.3 9.38456 26.3 9.38597C26.3 9.38739 26.3 9.3888 26.3 9.39021C26.3 9.39162 26.3 9.39303 26.3 9.39443C26.3 9.39583 26.3 9.39723 26.3 9.39863C26.3 9.40003 26.3 9.40142 26.3 9.40281C26.3 9.4042 26.3 9.40559 26.3 9.40697C26.3 9.40836 26.3 9.40974 26.3 9.41112C26.3 9.4125 26.3 9.41387 26.3 9.41524C26.3 9.41662 26.3 9.41798 26.3 9.41935C26.3 9.42072 26.3 9.42208 26.3 9.42344C26.3 9.4248 26.3 9.42616 26.3 9.42751C26.3 9.42886 26.3 9.43021 26.3 9.43156C26.3 9.43291 26.3 9.43425 26.3 9.43559C26.3 9.43694 26.3 9.43827 26.3 9.43961C26.3 9.44094 26.3 9.44228 26.3 9.44361C26.3 9.44493 26.3 9.44626 26.3 9.44758C26.3 9.44891 26.3 9.45023 26.3 9.45154C26.3 9.45286 26.3 9.45417 26.3 9.45548C26.3 9.4568 26.3 9.4581 26.3 9.45941C26.3 9.46071 26.3 9.46202 26.3 9.46331C26.3 9.46461 26.3 9.46591 26.3 9.4672C26.3 9.4685 26.3 9.46979 26.3 9.47107C26.3 9.47236 26.3 9.47364 26.3 9.47492C26.3 9.47621 26.3 9.47748 26.3 9.47876C26.3 9.48003 26.3 9.48131 26.3 9.48257C26.3 9.48384 26.3 9.48511 26.3 9.48637C26.3 9.48764 26.3 9.4889 26.3 9.49015C26.3 9.49141 26.3 9.49267 26.3 9.49392C26.3 9.49517 26.3 9.49642 26.3 9.49766C26.3 9.49891 26.3 9.50015 26.3 9.50139C26.3 9.50263 26.3 9.50387 26.3 9.5051C26.3 9.50633 26.3 9.50756 26.3 9.50879C26.3 9.51002 26.3 9.51124 26.3 9.51247C26.3 9.51369 26.3 9.51491 26.3 9.51612C26.3 9.51734 26.3 9.51855 26.3 9.51976C26.3 9.52097 26.3 9.52218 26.3 9.52339C26.3 9.52459 26.3 9.52579 26.3 9.52699C26.3 9.52819 26.3 9.52939 26.3 9.53058C26.3 9.53177 26.3 9.53296 26.3 9.53415C26.3 9.53534 26.3 9.53652 26.3 9.5377C26.3 9.53889 26.3 9.54006 26.3 9.54124C26.3 9.54242 26.3 9.54359 26.3 9.54476C26.3 9.54593 26.3 9.5471 26.3 9.54826C26.3 9.54943 26.3 9.55059 26.3 9.55174C26.3 9.5529 26.3 9.55406 26.3 9.55521C26.3 9.55637 26.3 9.55752 26.3 9.55866C26.3 9.55981 26.3 9.56096 26.3 9.5621C26.3 9.56324 26.3 9.56438 26.3 9.56551C26.3 9.56665 26.3 9.56778 26.3 9.56891C26.3 9.57005 26.3 9.57117 26.3 9.5723C26.3 9.57342 26.3 9.57454 26.3 9.57566C26.3 9.57678 26.3 9.5779 26.3 9.57901C26.3 9.58013 26.3 9.58124 26.3 9.58235C26.3 9.58345 26.3 9.58456 26.3 9.58566C26.3 9.58677 26.3 9.58787 26.3 9.58896C26.3 9.59006 26.3 9.59115 26.3 9.59225C26.3 9.59334 26.3 9.59443 26.3 9.59551C26.3 9.5966 26.3 9.59768 26.3 9.59876C26.3 9.59984 26.3 9.60092 26.3 9.602C26.3 9.60307 26.3 9.60414 26.3 9.60521C26.3 9.60628 26.3 9.60735 26.3 9.60841C26.3 9.60948 26.3 9.61054 26.3 9.6116C26.3 9.61266 26.3 9.61371 26.3 9.61477C26.3 9.61582 26.3 9.61687 26.3 9.61792C26.3 9.61897 26.3 9.62001 26.3 9.62105C26.3 9.6221 26.3 9.62314 26.3 9.62417C26.3 9.62521 26.3 9.62625 26.3 9.62728C26.3 9.62831 26.3 9.62934 26.3 9.63037C26.3 9.63139 26.3 9.63242 26.3 9.63344C26.3 9.63446 26.3 9.63548 26.3 9.63649C26.3 9.63751 26.3 9.63852 26.3 9.63953C26.3 9.64054 26.3 9.64155 26.3 9.64255C26.3 9.64356 26.3 9.64456 26.3 9.64556C26.3 9.64656 26.3 9.64756 26.3 9.64855C26.3 9.64955 26.3 9.65054 26.3 9.65153C26.3 9.65252 26.3 9.65351 26.3 9.65449C26.3 9.65547 26.3 9.65646 26.3 9.65743C26.3 9.65841 26.3 9.65939 26.3 9.66036C26.3 9.66134 26.3 9.66231 26.3 9.66328C26.3 9.66424 26.3 9.66521 26.3 9.66617C26.3 9.66714 26.3 9.6681 26.3 9.66906C26.3 9.67001 26.3 9.67097 26.3 9.67192C26.3 9.67287 26.3 9.67383 26.3 9.67477C26.3 9.67572 26.3 9.67667 26.3 9.67761C26.3 9.67855 26.3 9.67949 26.3 9.68043C26.3 9.68137 26.3 9.6823 26.3 9.68323C26.3 9.68417 26.3 9.6851 26.3 9.68602C26.3 9.68695 26.3 9.68788 26.3 9.6888C26.3 9.68972 26.3 9.69064 26.3 9.69156C26.3 9.69247 26.3 9.69339 26.3 9.6943C26.3 9.69521 26.3 9.69612 26.3 9.69703C26.3 9.69794 26.3 9.69884 26.3 9.69974C26.3 9.70065 26.3 9.70155 26.3 9.70244C26.3 9.70334 26.3 9.70423 26.3 9.70513C26.3 9.70602 26.3 9.70691 26.3 9.70779C26.3 9.70868 26.3 9.70957 26.3 9.71045C26.3 9.71133 26.3 9.71221 26.3 9.71309C26.3 9.71396 26.3 9.71484 26.3 9.71571C26.3 9.71658 26.3 9.71745 26.3 9.71832C26.3 9.71919 26.3 9.72005 26.3 9.72091C26.3 9.72178 26.3 9.72264 26.3 9.72349C26.3 9.72435 26.3 9.72521 26.3 9.72606C26.3 9.72691 26.3 9.72776 26.3 9.72861C26.3 9.72946 26.3 9.7303 26.3 9.73114C26.3 9.73199 26.3 9.73283 26.3 9.73367C26.3 9.7345 26.3 9.73534 26.3 9.73617C26.3 9.73701 26.3 9.73784 26.3 9.73866C26.3 9.73949 26.3 9.74032 26.3 9.74114C26.3 9.74197 26.3 9.74279 26.3 9.74361C26.3 9.74442 26.3 9.74524 26.3 9.74606C26.3 9.74687 26.3 9.74768 26.3 9.74849C26.3 9.7493 26.3 9.7501 26.3 9.75091C26.3 9.75171 26.3 9.75252 26.3 9.75331C26.3 9.75412 26.3 9.75491 26.3 9.75571C26.3 9.7565 26.3 9.7573 26.3 9.75809C26.3 9.75888 26.3 9.75966 26.3 9.76045C26.3 9.76123 26.3 9.76202 26.3 9.7628C26.3 9.76358 26.3 9.76436 26.3 9.76513C26.3 9.76591 26.3 9.76669 26.3 9.76746C26.3 9.76823 26.3 9.769 26.3 9.76976C26.3 9.77053 26.3 9.7713 26.3 9.77206C26.3 9.77282 26.3 9.77358 26.3 9.77434C26.3 9.77509 26.3 9.77585 26.3 9.7766C26.3 9.77736 26.3 9.77811 26.3 9.77886C26.3 9.7796 26.3 9.78035 26.3 9.78109C26.3 9.78184 26.3 9.78258 26.3 9.78332C26.3 9.78406 26.3 9.7848 26.3 9.78553C26.3 9.78626 26.3 9.787 26.3 9.78773C26.3 9.78846 26.3 9.78919 26.3 9.78991C26.3 9.79064 26.3 9.79136 26.3 9.79208C26.3 9.7928 26.3 9.79352 26.3 9.79424C26.3 9.79496 26.3 9.79567 26.3 9.79638C26.3 9.79709 26.3 9.79781 26.3 9.79851C26.3 9.79922 26.3 9.79993 26.3 9.80063C26.3 9.80133 26.3 9.80203 26.3 9.80273C26.3 9.80343 26.3 9.80413 26.3 9.80482C26.3 9.80552 26.3 9.80621 26.3 9.8069C26.3 9.80759 26.3 9.80828 26.3 9.80896C26.3 9.80965 26.3 9.81033 26.3 9.81101C26.3 9.8117 26.3 9.81237 26.3 9.81305C26.3 9.81373 26.3 9.8144 26.3 9.81507C26.3 9.81575 26.3 9.81642 26.3 9.81709C26.3 9.81775 26.3 9.81842 26.3 9.81909C26.3 9.81975 26.3 9.82041 26.3 9.82107C26.3 9.82173 26.3 9.82239 26.3 9.82304C26.3 9.8237 26.3 9.82435 26.3 9.825C26.3 9.82565 26.3 9.8263 26.3 9.82695C26.3 9.82759 26.3 9.82824 26.3 9.82888C26.3 9.82952 26.3 9.83017 26.3 9.8308C26.3 9.83144 26.3 9.83208 26.3 9.83271C26.3 9.83335 26.3 9.83398 26.3 9.83461C26.3 9.83524 26.3 9.83587 26.3 9.83649C26.3 9.83712 26.3 9.83774 26.3 9.83836C26.3 9.83898 26.3 9.8396 26.3 9.84022C26.3 9.84084 26.3 9.84145 26.3 9.84207C26.3 9.84268 26.3 9.84329 26.3 9.8439C26.3 9.84451 26.3 9.84511 26.3 9.84572C26.3 9.84632 26.3 9.84693 26.3 9.84753C26.3 9.84813 26.3 9.84873 26.3 9.84932C26.3 9.84992 26.3 9.85051 26.3 9.85111C26.3 9.8517 26.3 9.85229 26.3 9.85288C26.3 9.85347 26.3 9.85405 26.3 9.85464C26.3 9.85522 26.3 9.8558 26.3 9.85638C26.3 9.85696 26.3 9.85754 26.3 9.85812C26.3 9.85869 26.3 9.85927 26.3 9.85984C26.3 9.86041 26.3 9.86098 26.3 9.86155C26.3 9.86212 26.3 9.86269 26.3 9.86325C26.3 9.86381 26.3 9.86438 26.3 9.86494C26.3 9.8655 26.3 9.86605 26.3 9.86661C26.3 9.86717 26.3 9.86772 26.3 9.86827C26.3 9.86883 26.3 9.86938 26.3 9.86992C26.3 9.87047 26.3 9.87102 26.3 9.87156C26.3 9.87211 26.3 9.87265 26.3 9.87319C26.3 9.87373 26.3 9.87427 26.3 9.87481C26.3 9.87534 26.3 9.87588 26.3 9.87641C26.3 9.87694 26.3 9.87747 26.3 9.878C26.3 9.87853 26.3 9.87906 26.3 9.87958C26.3 9.88011 26.3 9.88063 26.3 9.88115C26.3 9.88167 26.3 9.88219 26.3 9.88271C26.3 9.88323 26.3 9.88374 26.3 9.88426C26.3 9.88477 26.3 9.88528 26.3 9.88579C26.3 9.8863 26.3 9.88681 26.3 9.88732C26.3 9.88782 26.3 9.88832 26.3 9.88883C26.3 9.88933 26.3 9.88983 26.3 9.89033C26.3 9.89083 26.3 9.89132 26.3 9.89182C26.3 9.89231 26.3 9.89281 26.3 9.8933C26.3 9.89379 26.3 9.89428 26.3 9.89476C26.3 9.89525 26.3 9.89573 26.3 9.89622C26.3 9.8967 26.3 9.89718 26.3 9.89766C26.3 9.89814 26.3 9.89862 26.3 9.8991C26.3 9.89957 26.3 9.90005 26.3 9.90052C26.3 9.90099 26.3 9.90146 26.3 9.90193C26.3 9.9024 26.3 9.90287 26.3 9.90333C26.3 9.9038 26.3 9.90426 26.3 9.90472C26.3 9.90518 26.3 9.90564 26.3 9.9061C26.3 9.90656 26.3 9.90701 26.3 9.90747C26.3 9.90792 26.3 9.90837 26.3 9.90883C26.3 9.90928 26.3 9.90973 26.3 9.91017C26.3 9.91062 26.3 9.91106 26.3 9.91151C26.3 9.91195 26.3 9.91239 26.3 9.91283C26.3 9.91327 26.3 9.91371 26.3 9.91415C26.3 9.91459 26.3 9.91502 26.3 9.91545C26.3 9.91589 26.3 9.91632 26.3 9.91675C26.3 9.91718 26.3 9.9176 26.3 9.91803C26.3 9.91846 26.3 9.91888 26.3 9.9193C26.3 9.91972 26.3 9.92015 26.3 9.92056C26.3 9.92098 26.3 9.9214 26.3 9.92182C26.3 9.92223 26.3 9.92265 26.3 9.92306C26.3 9.92347 26.3 9.92388 26.3 9.92429C26.3 9.9247 26.3 9.9251 26.3 9.92551C26.3 9.92591 26.3 9.92632 26.3 9.92672C26.3 9.92712 26.3 9.92752 26.3 9.92792C26.3 9.92832 26.3 9.92872 26.3 9.92911C26.3 9.92951 26.3 9.9299 26.3 9.93029C26.3 9.93068 26.3 9.93107 26.3 9.93146C26.3 9.93185 26.3 9.93224 26.3 9.93262C26.3 9.93301 26.3 9.93339 26.3 9.93377C26.3 9.93415 26.3 9.93453 26.3 9.93491C26.3 9.93529 26.3 9.93567 26.3 9.93604C26.3 9.93642 26.3 9.93679 26.3 9.93716C26.3 9.93754 26.3 9.93791 26.3 9.93828C26.3 9.93864 26.3 9.93901 26.3 9.93938C26.3 9.93974 26.3 9.94011 26.3 9.94047C26.3 9.94083 26.3 9.94119 26.3 9.94155C26.3 9.94191 26.3 9.94227 26.3 9.94262C26.3 9.94298 26.3 9.94333 26.3 9.94369C26.3 9.94404 26.3 9.94439 26.3 9.94474C26.3 9.94509 26.3 9.94544 26.3 9.94578C26.3 9.94613 26.3 9.94647 26.3 9.94682C26.3 9.94716 26.3 9.9475 26.3 9.94784C26.3 9.94818 26.3 9.94852 26.3 9.94886C26.3 9.94919 26.3 9.94953 26.3 9.94986C26.3 9.9502 26.3 9.95053 26.3 9.95086C26.3 9.95119 26.3 9.95152 26.3 9.95185C26.3 9.95217 26.3 9.9525 26.3 9.95283C26.3 9.95315 26.3 9.95347 26.3 9.95379C26.3 9.95411 26.3 9.95444 26.3 9.95475C26.3 9.95507 26.3 9.95539 26.3 9.9557C26.3 9.95602 26.3 9.95633 26.3 9.95665C26.3 9.95696 26.3 9.95727 26.3 9.95758C26.3 9.95789 26.3 9.9582 26.3 9.9585C26.3 9.95881 26.3 9.95911 26.3 9.95942C26.3 9.95972 26.3 9.96002 26.3 9.96032C26.3 9.96062 26.3 9.96092 26.3 9.96122C26.3 9.96152 26.3 9.96181 26.3 9.96211C26.3 9.9624 26.3 9.9627 26.3 9.96299C26.3 9.96328 26.3 9.96357 26.3 9.96386C26.3 9.96415 26.3 9.96444 26.3 9.96472C26.3 9.96501 26.3 9.96529 26.3 9.96558C26.3 9.96586 26.3 9.96614 26.3 9.96642C26.3 9.9667 26.3 9.96698 26.3 9.96726C26.3 9.96754 26.3 9.96781 26.3 9.96808C26.3 9.96836 26.3 9.96863 26.3 9.9689C26.3 9.96918 26.3 9.96945 26.3 9.96972C26.3 9.96998 26.3 9.97025 26.3 9.97052C26.3 9.97078 26.3 9.97105 26.3 9.97131C26.3 9.97157 26.3 9.97184 26.3 9.9721C26.3 9.97236 26.3 9.97262 26.3 9.97288C26.3 9.97313 26.3 9.97339 26.3 9.97364C26.3 9.9739 26.3 9.97415 26.3 9.97441C26.3 9.97466 26.3 9.97491 26.3 9.97516C26.3 9.97541 26.3 9.97566 26.3 9.9759C26.3 9.97615 26.3 9.9764 26.3 9.97664C26.3 9.97688 26.3 9.97713 26.3 9.97737C26.3 9.97761 26.3 9.97785 26.3 9.97809C26.3 9.97833 26.3 9.97857 26.3 9.9788C26.3 9.97904 26.3 9.97927 26.3 9.97951C26.3 9.97974 26.3 9.97997 26.3 9.98021C26.3 9.98044 26.3 9.98067 26.3 9.9809C26.3 9.98112 26.3 9.98135 26.3 9.98158C26.3 9.9818 26.3 9.98203 26.3 9.98225C26.3 9.98248 26.3 9.9827 26.3 9.98292C26.3 9.98314 26.3 9.98336 26.3 9.98358C26.3 9.98379 26.3 9.98401 26.3 9.98423C26.3 9.98444 26.3 9.98466 26.3 9.98487C26.3 9.98508 26.3 9.98529 26.3 9.98551C26.3 9.98572 26.3 9.98593 26.3 9.98613C26.3 9.98634 26.3 9.98655 26.3 9.98676C26.3 9.98696 26.3 9.98717 26.3 9.98737C26.3 9.98757 26.3 9.98777 26.3 9.98797C26.3 9.98818 26.3 9.98837 26.3 9.98857C26.3 9.98877 26.3 9.98897 26.3 9.98916C26.3 9.98936 26.3 9.98956 26.3 9.98975C26.3 9.98994 26.3 9.99014 26.3 9.99033C26.3 9.99052 26.3 9.99071 26.3 9.9909C26.3 9.99109 26.3 9.99127 26.3 9.99146C26.3 9.99165 26.3 9.99183 26.3 9.99202C26.3 9.9922 26.3 9.99238 26.3 9.99256C26.3 9.99275 26.3 9.99293 26.3 9.9931C26.3 9.99328 26.3 9.99346 26.3 9.99364C26.3 9.99382 26.3 9.99399 26.3 9.99417C26.3 9.99434 26.3 9.99452 26.3 9.99469C26.3 9.99486 26.3 9.99503 26.3 9.9952C26.3 9.99537 26.3 9.99554 26.3 9.99571C26.3 9.99588 26.3 9.99605 26.3 9.99621C26.3 9.99638 26.3 9.99654 26.3 9.9967C26.3 9.99687 26.3 9.99703 26.3 9.99719C26.3 9.99735 26.3 9.99751 26.3 9.99767C26.3 9.99783 26.3 9.99799 26.3 9.99815C26.3 9.9983 26.3 9.99846 26.3 9.99862C26.3 9.99877 26.3 9.99892 26.3 9.99907C26.3 9.99923 26.3 9.99938 26.3 9.99953C26.3 9.99968 26.3 9.99983 26.3 9.99998C26.3 10.0001 26.3 10.0003 26.3 10.0004C26.3 10.0006 26.3 10.0007 26.3 10.0009C26.3 10.001 26.3 10.0011 26.3 10.0013C26.3 10.0014 26.3 10.0016 26.3 10.0017C26.3 10.0018 26.3 10.002 26.3 10.0021C26.3 10.0023 26.3 10.0024 26.3 10.0025C26.3 10.0027 26.3 10.0028 26.3 10.0029C26.3 10.0031 26.3 10.0032 26.3 10.0033C26.3 10.0035 26.3 10.0036 26.3 10.0037C26.3 10.0039 26.3 10.004 26.3 10.0041C26.3 10.0042 26.3 10.0044 26.3 10.0045C26.3 10.0046 26.3 10.0047 26.3 10.0049C26.3 10.005 26.3 10.0051 26.3 10.0052C26.3 10.0054 26.3 10.0055 26.3 10.0056C26.3 10.0057 26.3 10.0058 26.3 10.006C26.3 10.0061 26.3 10.0062 26.3 10.0063C26.3 10.0064 26.3 10.0065 26.3 10.0067C26.3 10.0068 26.3 10.0069 26.3 10.007C26.3 10.0071 26.3 10.0072 26.3 10.0073C26.3 10.0074 26.3 10.0075 26.3 10.0077C26.3 10.0078 26.3 10.0079 26.3 10.008C26.3 10.0081 26.3 10.0082 26.3 10.0083C26.3 10.0084 26.3 10.0085 26.3 10.0086C26.3 10.0087 26.3 10.0088 26.3 10.0089C26.3 10.009 26.3 10.0091 26.3 10.0092C26.3 10.0093 26.3 10.0094 26.3 10.0095C26.3 10.0096 26.3 10.0097 26.3 10.0098C26.3 10.0099 26.3 10.01 26.3 10.0101C26.3 10.0102 26.3 10.0103 26.3 10.0104C26.3 10.0105 26.3 10.0105 26.3 10.0106C26.3 10.0107 26.3 10.0108 26.3 10.0109C26.3 10.011 26.3 10.0111 26.3 10.0112C26.3 10.0113 26.3 10.0113 26.3 10.0114C26.3 10.0115 26.3 10.0116 26.3 10.0117C26.3 10.0118 26.3 10.0119 26.3 10.0119C26.3 10.012 26.3 10.0121 26.3 10.0122C26.3 10.0123 26.3 10.0123 26.3 10.0124C26.3 10.0125 26.3 10.0126 26.3 10.0127C26.3 10.0127 26.3 10.0128 26.3 10.0129C26.3 10.013 26.3 10.013 26.3 10.0131C26.3 10.0132 26.3 10.0133 26.3 10.0133C26.3 10.0134 26.3 10.0135 26.3 10.0135C26.3 10.0136 26.3 10.0137 26.3 10.0138C26.3 10.0138 26.3 10.0139 26.3 10.014C26.3 10.014 26.3 10.0141 26.3 10.0142C26.3 10.0142 26.3 10.0143 26.3 10.0144C26.3 10.0144 26.3 10.0145 26.3 10.0146C26.3 10.0146 26.3 10.0147 26.3 10.0147C26.3 10.0148 26.3 10.0149 26.3 10.0149C26.3 10.015 26.3 10.0151 26.3 10.0151C26.3 10.0152 26.3 10.0152 26.3 10.0153C26.3 10.0153 26.3 10.0154 26.3 10.0155C26.3 10.0155 26.3 10.0156 26.3 10.0156C26.3 10.0157 26.3 10.0157 26.3 10.0158C26.3 10.0158 26.3 10.0159 26.3 10.0159C26.3 10.016 26.3 10.016 26.3 10.0161C26.3 10.0161 26.3 10.0162 26.3 10.0162C26.3 10.0163 26.3 10.0163 26.3 10.0164C26.3 10.0164 26.3 10.0165 26.3 10.0165C26.3 10.0166 26.3 10.0166 26.3 10.0167C26.3 10.0167 26.3 10.0168 26.3 10.0168C26.3 10.0169 26.3 10.0169 26.3 10.0169C26.3 10.017 26.3 10.017 26.3 10.0171C26.3 10.0171 26.3 10.0171 26.3 10.0172C26.3 10.0172 26.3 10.0173 26.3 10.0173C26.3 10.0173 26.3 10.0174 26.3 10.0174C26.3 10.0175 26.3 10.0175 26.3 10.0175C26.3 10.0176 26.3 10.0176 26.3 10.0176C26.3 10.0177 26.3 10.0177 26.3 10.0177C26.3 10.0178 26.3 10.0178 26.3 10.0179C26.3 10.0179 26.3 10.0179 26.3 10.0179C26.3 10.018 26.3 10.018 26.3 10.018C26.3 10.0181 26.3 10.0181 26.3 10.0181C26.3 10.0182 26.3 10.0182 26.3 10.0182C26.3 10.0182 26.3 10.0183 26.3 10.0183C26.3 10.0183 26.3 10.0184 26.3 10.0184C26.3 10.0184 26.3 10.0184 26.3 10.0185C26.3 10.0185 26.3 10.0185 26.3 10.0185C26.3 10.0186 26.3 10.0186 26.3 10.0186C26.3 10.0186 26.3 10.0187 26.3 10.0187C26.3 10.0187 26.3 10.0187 26.3 10.0187C26.3 10.0188 26.3 10.0188 26.3 10.0188C26.3 10.0188 26.3 10.0188 26.3 10.0189C26.3 10.0189 26.3 10.0189 26.3 10.0189C26.3 10.0189 26.3 10.019 26.3 10.019C26.3 10.019 26.3 10.019 26.3 10.019C26.3 10.019 26.3 10.0191 26.3 10.0191C26.3 10.0191 26.3 10.0191 26.3 10.0191C26.3 10.0191 26.3 10.0191 26.3 10.0192C26.3 10.0192 26.3 10.0192 26.3 10.0192C26.3 10.0192 26.3 10.0192 26.3 10.0192C26.3 10.0192 26.3 10.0193 26.3 10.0193C26.3 10.0193 26.3 10.0193 26.3 10.0193C26.3 10.0193 26.3 10.0193 26.3 10.0193C26.3 10.0193 26.3 10.0193 26.3 10.0193C26.3 10.0194 26.3 10.0194 26.3 10.0194C26.3 10.0194 26.3 10.0194 26.3 10.0194C26.3 10.0194 26.3 10.0194 26.3 10.0194C26.3 10.0194 26.3 10.0194 26.3 10.0194C26.3 10.0194 26.3 10.0194 26.3 10.0194C26.3 10.0194 26.3 10.0194 26.3 10.0195C26.3 10.0195 26.3 10.0195 26.3 10.0195C26.3 10.0195 26.3 10.0195 26.3 10.0195C26.3 10.0195 26.3 10.0195 26.3 10.0195V10.0195C26.3 10.0195 26.3 10.0195 26.3 10.0195C26 10.0195 25.7 10.0195 25.7 10.0195C25.7 10.0195 25.7 10.0195 25.7 10.0195C25.7 10.0195 25.7 10.0195 25.7 10.0195C25.7 10.0195 25.7 10.0195 25.7 10.0195C25.7 10.0195 25.7 10.0195 25.7 10.0195C25.7 10.0195 25.7 10.0194 25.7 10.0194C25.7 10.0194 25.7 10.0194 25.7 10.0194C25.7 10.0194 25.7 10.0194 25.7 10.0194C25.7 10.0194 25.7 10.0194 25.7 10.0194C25.7 10.0194 25.7 10.0194 25.7 10.0194C25.7 10.0194 25.7 10.0194 25.7 10.0194C25.7 10.0194 25.7 10.0194 25.7 10.0193C25.7 10.0193 25.7 10.0193 25.7 10.0193C25.7 10.0193 25.7 10.0193 25.7 10.0193C25.7 10.0193 25.7 10.0193 25.7 10.0193C25.7 10.0193 25.7 10.0193 25.7 10.0193C25.7 10.0192 25.7 10.0192 25.7 10.0192C25.7 10.0192 25.7 10.0192 25.7 10.0192C25.7 10.0192 25.7 10.0192 25.7 10.0192C25.7 10.0192 25.7 10.0191 25.7 10.0191C25.7 10.0191 25.7 10.0191 25.7 10.0191C25.7 10.0191 25.7 10.0191 25.7 10.0191C25.7 10.0191 25.7 10.019 25.7 10.019C25.7 10.019 25.7 10.019 25.7 10.019C25.7 10.019 25.7 10.019 25.7 10.019C25.7 10.0189 25.7 10.0189 25.7 10.0189C25.7 10.0189 25.7 10.0189 25.7 10.0189C25.7 10.0189 25.7 10.0189 25.7 10.0188C25.7 10.0188 25.7 10.0188 25.7 10.0188C25.7 10.0188 25.7 10.0188 25.7 10.0188C25.7 10.0187 25.7 10.0187 25.7 10.0187C25.7 10.0187 25.7 10.0187 25.7 10.0187C25.7 10.0187 25.7 10.0186 25.7 10.0186C25.7 10.0186 25.7 10.0186 25.7 10.0186C25.7 10.0186 25.7 10.0186 25.7 10.0185C25.7 10.0185 25.7 10.0185 25.7 10.0185C25.7 10.0185 25.7 10.0185 25.7 10.0184C25.7 10.0184 25.7 10.0184 25.7 10.0184C25.7 10.0184 25.7 10.0184 25.7 10.0184C25.7 10.0183 25.7 10.0183 25.7 10.0183C25.7 10.0183 25.7 10.0183 25.7 10.0183C25.7 10.0182 25.7 10.0182 25.7 10.0182C25.7 10.0182 25.7 10.0182 25.7 10.0182C25.7 10.0181 25.7 10.0181 25.7 10.0181C25.7 10.0181 25.7 10.0181 25.7 10.0181C25.7 10.018 25.7 10.018 25.7 10.018C25.7 10.018 25.7 10.018 25.7 10.018C25.7 10.018 25.7 10.0179 25.7 10.0179C25.7 10.0179 25.7 10.0179 25.7 10.0179C25.7 10.0179 25.7 10.0178 25.7 10.0178C25.7 10.0178 25.7 10.0178 25.7 10.0178C25.7 10.0178 25.7 10.0177 25.7 10.0177C25.7 10.0177 25.7 10.0177 25.7 10.0177C25.7 10.0177 25.7 10.0176 25.7 10.0176C25.7 10.0176 25.7 10.0176 25.7 10.0176C25.7 10.0176 25.7 10.0175 25.7 10.0175C25.7 10.0175 25.7 10.0175 25.7 10.0175C25.7 10.0175 25.7 10.0174 25.7 10.0174C25.7 10.0174 25.7 10.0174 25.7 10.0174C25.7 10.0174 25.7 10.0174 25.7 10.0173C25.7 10.0173 25.7 10.0173 25.7 10.0173C25.7 10.0173 25.7 10.0173 25.7 10.0172C25.7 10.0172 25.7 10.0172 25.7 10.0172C25.7 10.0172 25.7 10.0172 25.7 10.0172C25.7 10.0171 25.7 10.0171 25.7 10.0171C25.7 10.0171 25.7 10.0171 25.7 10.0171C25.7 10.017 25.7 10.017 25.7 10.017C25.7 10.017 25.7 10.017 25.7 10.017C25.7 10.017 25.7 10.017 25.7 10.0169C25.7 10.0169 25.7 10.0169 25.7 10.0169C25.7 10.0169 25.7 10.0169 25.7 10.0169C25.7 10.0168 25.7 10.0168 25.7 10.0168C25.7 10.0168 25.7 10.0168 25.7 10.0168C25.7 10.0168 25.7 10.0168 25.7 10.0167C25.7 10.0167 25.7 10.0167 25.7 10.0167C25.7 10.0167 25.7 10.0167 25.7 10.0167C25.7 10.0167 25.7 10.0166 25.7 10.0166C25.7 10.0166 25.7 10.0166 25.7 10.0166C25.7 10.0166 25.7 10.0166 25.7 10.0166C25.7 10.0166 25.7 10.0166 25.7 10.0165C25.7 10.0165 25.7 10.0165 25.7 10.0165C25.7 10.0165 25.7 10.0165 25.7 10.0165C25.7 10.0165 25.7 10.0165 25.7 10.0165C25.7 10.0165 25.7 10.0164 25.7 10.0164C25.7 10.0164 25.7 10.0164 25.7 10.0164C25.7 10.0164 25.7 10.0164 25.7 10.0164C25.7 10.0164 25.7 10.0164 25.7 10.0164C25.7 10.0164 25.7 10.0164 25.7 10.0163C25.7 10.0163 25.7 10.0163 25.7 10.0163C25.7 10.0163 25.7 10.0163 25.7 10.0163C25.7 10.0163 25.7 10.0163 25.7 10.0163C25.7 10.0163 25.7 10.0163 25.7 10.0163C25.7 10.0163 25.7 10.0163 25.7 10.0163C25.7 10.0163 25.7 10.0163 25.7 10.0163C25.7 10.0163 25.7 10.0163 25.7 10.0163C25.7 10.0163 25.7 10.0163 25.7 10.0163V10.0163C25.7 10.0163 25.7 10.0163 26 10.0163ZM24.7123 8.33595C24.433 8.33595 24.2612 8.33466 24.1586 8.33335C24.1073 8.3327 24.0732 8.33204 24.0514 8.33153C24.0405 8.33127 24.0327 8.33105 24.0274 8.33088C24.0247 8.3308 24.0226 8.33073 24.0211 8.33067C24.0203 8.33065 24.0196 8.33062 24.0191 8.3306C24.0189 8.33059 24.0186 8.33058 24.0184 8.33058C24.0183 8.33057 24.0182 8.33057 24.0182 8.33056C24.0181 8.33056 24.0181 8.33056 24.018 8.33056C24.018 8.33056 24.018 8.33056 24.018 8.33056C24.018 8.33055 24.0179 8.33055 24.0303 8.03081C24.0426 7.73106 24.0425 7.73106 24.0425 7.73106C24.0425 7.73106 24.0425 7.73106 24.0425 7.73106C24.0424 7.73106 24.0424 7.73105 24.0424 7.73105C24.0423 7.73105 24.0423 7.73105 24.0422 7.73105C24.0422 7.73104 24.0421 7.73104 24.0421 7.73104C24.0421 7.73104 24.0422 7.73105 24.0425 7.73106C24.0431 7.73108 24.0442 7.73112 24.0461 7.73117C24.0497 7.73129 24.056 7.73147 24.0656 7.7317C24.0847 7.73215 24.1167 7.73277 24.1663 7.7334C24.2655 7.73467 24.4347 7.73595 24.7123 7.73595V8.33595ZM24.0277 8.3308L20.3594 8.29994L20.3645 7.69996L24.0328 7.73082L24.0277 8.3308Z" fill="white" mask="url(#path-2-outside-1_1031_10026)"/>
<path d="M13.7086 11.9838L13.7086 11.9838L13.7091 11.9834L13.8405 11.8794L13.8814 11.8469H13.9336H16.3608H18.788H18.8476L18.891 11.8879L19.0181 12.0079C19.1452 12.128 19.2176 12.2801 19.2138 12.4425C19.21 12.6046 19.1308 12.7549 18.9978 12.8732L18.9978 12.8732L18.9967 12.8741L18.8866 12.9701L18.8445 13.0068L18.7888 13.0071L16.4209 13.0191L16.4208 13.0191C16.3734 13.0193 16.3269 13.0195 16.2813 13.0197C15.0617 13.0253 14.4358 13.0282 14.1019 12.9985C13.9315 12.9833 13.8087 12.9582 13.719 12.901C13.6291 12.8437 13.5889 12.7628 13.5607 12.7061C13.5584 12.7015 13.5562 12.697 13.5541 12.6928C13.424 12.4362 13.489 12.1593 13.7086 11.9838Z" fill="white" stroke="white" stroke-width="0.3"/>
<path d="M13.7868 15.1439L13.7871 15.1437C13.8429 15.1121 13.8996 15.0946 14.0107 15.0828C14.1172 15.0715 14.2867 15.0643 14.5754 15.0593C15.1553 15.0492 16.2382 15.0482 18.3131 15.0482C20.3139 15.0482 21.3977 15.0492 21.9932 15.0583C22.29 15.0627 22.47 15.0693 22.5829 15.0792C22.6894 15.0885 22.7623 15.1021 22.821 15.1402C22.9108 15.1976 22.9889 15.2591 23.0382 15.3482C23.0876 15.4375 23.0971 15.5346 23.0972 15.6367C23.0995 15.7527 23.0777 15.861 23.0206 15.9558C22.963 16.0513 22.8776 16.1199 22.7754 16.1694L22.7754 16.1694L22.774 16.17C22.7465 16.183 22.7158 16.1871 22.7045 16.1886L22.7034 16.1888C22.6853 16.1912 22.6634 16.1933 22.6387 16.195C22.5889 16.1987 22.52 16.2018 22.4316 16.2047C22.2545 16.2103 21.9932 16.2149 21.6376 16.2184C20.9262 16.2254 19.8338 16.2284 18.2749 16.2284H13.9373H13.8851L13.8442 16.196L13.7133 16.0923C13.386 15.8368 13.4298 15.3473 13.7868 15.1439Z" fill="white" stroke="white" stroke-width="0.3"/>
<path d="M14.1344 19.4468L14.1344 19.4468C14.1736 19.4506 14.329 19.4533 14.5604 19.4556C14.7975 19.4579 15.1255 19.4598 15.5204 19.461L14.1344 19.4468ZM14.1344 19.4468L14.1317 19.4465M14.1344 19.4468L14.1317 19.4465M14.1317 19.4465C13.8221 19.4105 13.5575 19.2481 13.5019 18.9581M14.1317 19.4465L23.0175 19.1658M23.0175 19.1658L23.0175 19.1658C23.122 19.0222 23.1294 18.8416 23.0803 18.689C23.031 18.5358 22.9199 18.3924 22.7588 18.3146M23.0175 19.1658L23.0163 19.1674M23.0175 19.1658L23.0163 19.1674M22.7588 18.3146C22.7585 18.3145 22.7581 18.3143 22.7578 18.3142L22.6929 18.4494L22.7597 18.3151C22.7594 18.3149 22.7591 18.3148 22.7588 18.3146ZM22.7588 18.3146C22.7365 18.3037 22.7143 18.2996 22.7073 18.2983L22.7067 18.2982C22.6953 18.2961 22.6829 18.2944 22.6708 18.2931C22.6464 18.2903 22.6152 18.2879 22.5788 18.2857C22.5057 18.2812 22.4049 18.2772 22.2811 18.2735C22.0331 18.2662 21.6883 18.2603 21.2794 18.2556C20.4615 18.2464 19.3846 18.2424 18.3069 18.2434C17.2293 18.2444 16.1505 18.2504 15.3289 18.2611C14.9182 18.2665 14.5711 18.2731 14.3204 18.2809C14.1952 18.2847 14.0929 18.2889 14.0183 18.2935C13.9812 18.2958 13.9493 18.2983 13.9243 18.301C13.9119 18.3024 13.8995 18.304 13.8881 18.3059C13.8801 18.3073 13.8607 18.3108 13.841 18.3191L13.8991 18.4574L13.8428 18.3183C13.5963 18.4181 13.4505 18.6977 13.5019 18.9581M13.5019 18.9581C13.5019 18.9579 13.5018 18.9577 13.5018 18.9575L13.6491 18.9295L13.502 18.9587C13.502 18.9585 13.5019 18.9583 13.5019 18.9581ZM23.0163 19.1674C23.013 19.1718 23.0089 19.178 23.0041 19.1855C22.9782 19.2253 22.9288 19.3015 22.8339 19.3458C22.7355 19.3918 22.5851 19.4123 22.3329 19.4258C21.8634 19.451 20.9481 19.4533 19.1058 19.458C18.9153 19.4585 18.7149 19.459 18.504 19.4595L23.0163 19.1674Z" fill="white" stroke="white" stroke-width="0.3"/>
</svg>
