<svg width="67" height="64" viewBox="0 0 67 64" fill="none" xmlns="http://www.w3.org/2000/svg">
<mask id="mask0_1031_9999" style="mask-type:luminance" maskUnits="userSpaceOnUse" x="40" y="0" width="27" height="25">
<path fill-rule="evenodd" clip-rule="evenodd" d="M40.918 0.151123H67V24.7432H40.918V0.151123Z" fill="white"/>
</mask>
<g mask="url(#mask0_1031_9999)">
<path fill-rule="evenodd" clip-rule="evenodd" d="M50.2082 21.7474L40.918 5.6749L44.0545 0.151123L54.8495 18.8082C54.9945 19.0345 55.2277 19.163 55.4906 19.163H67V24.7433H55.4906C53.3448 24.7433 51.4201 23.6513 50.2082 21.7474" fill="white"/>
</g>
<path fill-rule="evenodd" clip-rule="evenodd" d="M44.2876 25.008L37.0864 12.4344L40.4008 6.59717L49.4505 22.2508C50.8313 24.4238 53.0324 25.6717 55.4906 25.6717H67V31.2596H55.1888C50.6743 31.2596 46.5977 28.9229 44.2876 25.008" fill="white"/>
<path fill-rule="evenodd" clip-rule="evenodd" d="M36.5768 13.321L43.5284 25.4589C46.0029 29.652 50.362 32.1524 55.1886 32.1524H67V37.7128H55.2903C45.2662 37.7128 40.2737 30.5038 38.9827 28.2956L33.5 18.7408L36.5768 13.321Z" fill="white"/>
<mask id="mask1_1031_9999" style="mask-type:luminance" maskUnits="userSpaceOnUse" x="0" y="0" width="27" height="25">
<path fill-rule="evenodd" clip-rule="evenodd" d="M0 0.151123H26.0821V24.7432H0V0.151123Z" fill="white"/>
</mask>
<g mask="url(#mask1_1031_9999)">
<path fill-rule="evenodd" clip-rule="evenodd" d="M16.7918 21.7474L26.0821 5.6749L22.9456 0.151123L12.1505 18.8082C12.0055 19.0345 11.7723 19.163 11.5094 19.163H0V24.7433H11.5094C13.6552 24.7433 15.5799 23.6513 16.7918 21.7474" fill="white"/>
</g>
<path fill-rule="evenodd" clip-rule="evenodd" d="M22.7124 25.008L29.9136 12.4344L26.5991 6.59717L17.5495 22.2508C16.1687 24.4238 13.9676 25.6717 11.5094 25.6717H0V31.2596H11.8112C16.3257 31.2596 20.4021 28.9229 22.7124 25.008" fill="white"/>
<mask id="mask2_1031_9999" style="mask-type:luminance" maskUnits="userSpaceOnUse" x="0" y="13" width="34" height="25">
<path fill-rule="evenodd" clip-rule="evenodd" d="M0 13.321H33.5V37.7128H0V13.321Z" fill="white"/>
</mask>
<g mask="url(#mask2_1031_9999)">
<path fill-rule="evenodd" clip-rule="evenodd" d="M30.4232 13.321L23.4716 25.4589C20.9969 29.652 16.638 32.1524 11.8114 32.1524H0V37.7128H11.7097C21.7338 37.7128 26.7263 30.5038 28.0173 28.2956L33.5 18.7408L30.4232 13.321Z" fill="white"/>
</g>
<path fill-rule="evenodd" clip-rule="evenodd" d="M13.8986 51.8323L12.1557 41.2875H8.54621L6.9723 47.4091L5.38381 41.2875H1.77429L0.03125 51.8323H3.65297L4.5064 46.5951L5.86546 51.8323H8.06455L9.42346 46.5951L10.2891 51.8323H13.8986ZM20.4426 47.9733L19.5546 45.0308L18.6592 47.9733H20.4426ZM14.057 51.8323L17.2659 41.2875H21.8432L25.0519 51.8323H21.6242L21.2257 50.5233H17.8908L17.4849 51.8323H14.057ZM28.8377 43.9759H29.5054C29.8403 43.9759 30.5146 44.1988 30.5146 45.0095C30.5146 45.7607 29.9258 46.0431 29.5054 46.0431H28.8377V43.9759ZM28.8377 51.8323V47.7044L30.6492 51.8323H34.4076L32.5617 47.5372C32.8102 47.4221 34.0549 46.4433 34.0549 44.6896C34.0549 42.3097 32.0986 41.2875 30.7564 41.2875H25.2688V51.8323H25.0461H28.8377ZM36.9853 44.7341H34.8704V41.2875H42.6504V44.7341H40.5353V51.8323H36.9853V44.7341ZM43.4547 51.8323H47.0045V41.2875H43.4547V51.8323ZM47.862 51.8323V41.2875H51.4118L54.605 46.8013V41.2875H58.1747V51.8323H54.553L51.4118 46.3185V51.8323H47.862ZM60.0137 48.3111C60.7764 48.8184 61.5646 49.0952 62.1571 49.1519C62.4888 49.1887 62.9396 49.1156 63.0535 48.7099C63.1302 48.278 62.8281 48.0233 62.3156 47.9239C59.6528 47.5011 58.9143 45.7323 58.9181 44.3991C58.9181 43.2597 59.913 41.0813 63.3403 41.0813C63.9454 41.0813 64.482 41.1505 65.0859 41.2875C65.6225 41.4259 66.225 41.7025 66.8289 42.0458L65.4393 44.4436C65.0382 44.194 64.282 43.9367 63.8343 43.8826C63.467 43.8362 63.0331 43.8612 62.849 44.2513C62.7584 44.4545 62.8381 44.9117 63.6004 45.0644C66.4751 45.6013 66.9531 47.5011 66.9686 48.533C66.9686 50.0027 65.7169 51.8888 62.6987 51.8888C60.2848 51.8888 59.3088 51.1683 58.6251 50.6598L60.0137 48.3111Z" fill="white"/>
</svg>
