<svg width="76" height="65" viewBox="0 0 76 65" fill="none" xmlns="http://www.w3.org/2000/svg">
<path d="M29.5859 6.16098L19.0477 24.0883C17.673 26.212 15.49 27.4298 13.0558 27.4298H0.00035888V21.2056H13.0558C13.354 21.2056 13.6185 21.0623 13.7829 20.8099L26.0282 0L29.5859 6.16098Z" fill="#ACB7BD"/>
<path d="M46.4141 6.16103L56.9523 24.0883C58.3271 26.212 60.5102 27.4299 62.9443 27.4299H75.9997V21.2056H62.9443C62.6461 21.2056 62.3817 21.0623 62.2171 20.8099L49.972 4.92606e-05L46.4141 6.16103Z" fill="#ACB7BD"/>
<path d="M42.068 13.7007L50.2365 27.7253C52.857 32.092 57.4812 34.6982 62.602 34.6982H75.9996V28.4656H62.9442C60.1558 28.4656 57.6592 27.0736 56.0929 24.6498L45.8276 7.1901L42.068 13.7007Z" fill="#ACB7BD"/>
<path d="M41.49 14.6897L49.3752 28.2281C52.1825 32.9052 57.1268 35.6941 62.6018 35.6941H75.9997V41.8961H62.7172C51.3468 41.8961 45.6834 33.8554 44.2189 31.3922L37.9999 20.7349L31.781 31.3922C30.3163 33.8554 24.6531 41.8961 13.2827 41.8961H0V35.6941H13.3979C18.8731 35.6941 23.8175 32.9052 26.6243 28.2281L34.5098 14.6897L37.9999 20.7349L41.49 14.6897Z" fill="#ACB7BD"/>
<path d="M25.7635 27.7253L33.932 13.7007L30.1724 7.1901L19.9072 24.6498C18.3408 27.0736 15.844 28.4656 13.0559 28.4656H0.000287104V34.6982H13.3981C18.5189 34.6982 23.1431 32.092 25.7635 27.7253Z" fill="#ACB7BD"/>
<path d="M15.7449 57.6598L13.7659 45.8871H9.66783L7.88081 52.7217L6.07735 45.8871H1.97916L0.000287104 57.6598H4.11213L5.08115 51.8127L6.62421 57.6598H9.12097L10.664 51.8127L11.6468 57.6598H15.7449Z" fill="#1A4E86"/>
<path fill-rule="evenodd" clip-rule="evenodd" d="M15.9249 57.6598L19.5682 45.8871H24.765L28.4084 57.6598H24.5167L24.0639 56.1983H20.2776L19.8167 57.6598H15.9249ZM23.1748 53.3515L22.1668 50.0664L21.1501 53.3515H23.1748Z" fill="#1A4E86"/>
<path fill-rule="evenodd" clip-rule="evenodd" d="M32.7067 57.6598V53.0513L34.7633 57.6598H39.0305L36.9347 52.8648C37.2171 52.7359 38.63 51.6432 38.63 49.6854C38.63 47.0284 36.4089 45.8871 34.885 45.8871H28.6546V57.6598H32.7067ZM32.7067 48.8886H33.4649C33.845 48.8886 34.6107 49.1374 34.6107 50.0426C34.6107 50.881 33.9418 51.1964 33.4649 51.1964H32.7067V48.8886Z" fill="#1A4E86"/>
<path d="M41.9575 49.7349H39.5562V45.8871H48.3895V49.7349H45.9878V57.6598H41.9575V49.7349Z" fill="#1A4E86"/>
<path d="M49.3028 57.6598H53.3332V45.8871H49.3028V57.6598Z" fill="#1A4E86"/>
<path d="M54.3065 57.6598V45.8871H58.337L61.9624 52.0431V45.8871H66.0156V57.6598H61.9034L58.337 51.5037V57.6598H54.3065Z" fill="#1A4E86"/>
<path d="M68.1033 53.7284C68.9694 54.2949 69.8644 54.6039 70.5372 54.6672C70.9137 54.7085 71.4255 54.6269 71.555 54.1736C71.6421 53.6917 71.2989 53.4072 70.7171 53.2961C67.6937 52.8243 66.8549 50.8496 66.8597 49.3609C66.8597 48.0891 67.9891 45.657 71.8806 45.657C72.5675 45.657 73.1768 45.7342 73.8623 45.8871C74.4716 46.0415 75.1558 46.3504 75.8414 46.7337L74.2636 49.4107C73.8084 49.1323 72.9497 48.8449 72.4413 48.7845C72.0246 48.7328 71.5316 48.7603 71.3226 49.196C71.2197 49.423 71.3104 49.9335 72.1759 50.1038C75.4399 50.7031 75.9826 52.8243 76 53.9762C76 55.6172 74.5787 57.7228 71.1521 57.7228C68.4114 57.7228 67.3032 56.9183 66.5271 56.3509L68.1033 53.7284Z" fill="#1A4E86"/>
<path d="M14.615 63.5265H15.5233V63.6587C15.5233 63.7637 15.5317 63.8602 15.5485 63.9484C15.5654 64.0324 15.5969 64.1037 15.6432 64.1625C15.6894 64.2213 15.7504 64.2674 15.8261 64.301C15.906 64.3346 16.0048 64.3514 16.1226 64.3514C16.2613 64.3514 16.3854 64.3073 16.4947 64.2192C16.6083 64.1268 16.665 63.9862 16.665 63.7973C16.665 63.6965 16.6503 63.6104 16.6209 63.5391C16.5957 63.4635 16.5515 63.3964 16.4884 63.3376C16.4253 63.2788 16.3412 63.2263 16.2361 63.1802C16.1352 63.1298 16.009 63.0794 15.8576 63.029C15.6558 62.9619 15.4813 62.8884 15.3341 62.8086C15.1869 62.7289 15.0628 62.6365 14.9619 62.5316C14.8652 62.4224 14.7937 62.2986 14.7474 62.16C14.7012 62.0173 14.678 61.8536 14.678 61.6689C14.678 61.2239 14.8021 60.8922 15.0502 60.6739C15.2983 60.4556 15.639 60.3465 16.0721 60.3465C16.274 60.3465 16.459 60.3696 16.6272 60.4158C16.7996 60.4577 16.9468 60.5291 17.0688 60.6299C17.1949 60.7264 17.2916 60.8524 17.3589 61.0077C17.4304 61.1588 17.4662 61.3414 17.4662 61.5555V61.6815H16.5957C16.5957 61.4674 16.5578 61.3036 16.4821 61.1903C16.4064 61.0728 16.2803 61.014 16.1036 61.014C16.0027 61.014 15.9186 61.0287 15.8513 61.0581C15.784 61.0874 15.7294 61.1273 15.6873 61.1777C15.6495 61.2239 15.6221 61.2785 15.6053 61.3414C15.5927 61.4044 15.5864 61.4695 15.5864 61.5366C15.5864 61.6752 15.6158 61.7927 15.6747 61.8893C15.7336 61.9816 15.8597 62.0677 16.0532 62.1474L16.7534 62.4497C16.9258 62.5253 17.0667 62.605 17.176 62.689C17.2853 62.7687 17.3715 62.8569 17.4346 62.9535C17.5019 63.0458 17.5482 63.1487 17.5734 63.262C17.5986 63.3754 17.6112 63.5013 17.6112 63.6398C17.6112 64.1142 17.4725 64.4605 17.1949 64.6789C16.9216 64.8929 16.5389 65 16.0469 65C15.5338 65 15.1659 64.8887 14.943 64.6663C14.7243 64.4438 14.615 64.1247 14.615 63.7091V63.5265Z" fill="#1A4E86"/>
<path d="M19.0151 64.9307H18.1068V60.4347H19.0151V64.9307Z" fill="#1A4E86"/>
<path d="M20.4206 63.5265H19.5123V63.7091C19.5123 64.1247 19.6216 64.4438 19.8403 64.6663C20.0631 64.8887 20.4311 65 20.9442 65C21.4362 65 21.8189 64.8929 22.0922 64.6789C22.3698 64.4605 22.5085 64.1142 22.5085 63.6398C22.5085 63.5013 22.4959 63.3754 22.4707 63.262C22.4454 63.1487 22.3992 63.0458 22.3319 62.9535C22.2688 62.8569 22.1826 62.7687 22.0733 62.689C21.9639 62.605 21.8231 62.5253 21.6506 62.4497L20.9505 62.1474C20.757 62.0677 20.6309 61.9816 20.572 61.8893C20.5131 61.7927 20.4837 61.6752 20.4837 61.5366C20.4837 61.4695 20.49 61.4044 20.5026 61.3414C20.5194 61.2785 20.5468 61.2239 20.5846 61.1777C20.6267 61.1273 20.6813 61.0874 20.7486 61.0581C20.8159 61.0287 20.9 61.014 21.0009 61.014C21.1775 61.014 21.3037 61.0728 21.3794 61.1903C21.4551 61.3036 21.4929 61.4674 21.4929 61.6815H22.3634V61.5555C22.3634 61.3414 22.3277 61.1588 22.2562 61.0077C22.1889 60.8524 22.0922 60.7264 21.966 60.6299C21.8441 60.5291 21.6969 60.4577 21.5245 60.4158C21.3563 60.3696 21.1712 60.3465 20.9694 60.3465C20.5362 60.3465 20.1956 60.4556 19.9475 60.6739C19.6994 60.8922 19.5753 61.2239 19.5753 61.6689C19.5753 61.8536 19.5985 62.0173 19.6447 62.16C19.691 62.2986 19.7625 62.4224 19.8592 62.5316C19.9601 62.6365 20.0842 62.7289 20.2314 62.8086C20.3785 62.8884 20.5531 62.9619 20.7549 63.029C20.9063 63.0794 21.0325 63.1298 21.1334 63.1802C21.2385 63.2263 21.3226 63.2788 21.3857 63.3376C21.4488 63.3964 21.4929 63.4635 21.5182 63.5391C21.5476 63.6104 21.5623 63.6965 21.5623 63.7973C21.5623 63.9862 21.5056 64.1268 21.392 64.2192C21.2827 64.3073 21.1586 64.3514 21.0199 64.3514C20.9021 64.3514 20.8033 64.3346 20.7234 64.301C20.6477 64.2674 20.5867 64.2213 20.5404 64.1625C20.4942 64.1037 20.4627 64.0324 20.4458 63.9484C20.429 63.8602 20.4206 63.7637 20.4206 63.6587V63.5265Z" fill="#1A4E86"/>
<path d="M22.7202 60.4347H25.5966V61.1777H24.6126V64.9307H23.7042V61.1777H22.7202V60.4347Z" fill="#1A4E86"/>
<path d="M28.5075 60.4347H25.9907V64.9307H28.5706V64.1877H26.899V62.9787H28.4129V62.2356H26.899V61.1777H28.5075V60.4347Z" fill="#1A4E86"/>
<path d="M29.0465 64.9307V60.4347H30.3964L31.0398 63.6084H31.0524L31.7022 60.4347H33.0458V64.9307H32.2131V61.3414H32.2005L31.3994 64.9307H30.6929L29.8918 61.3414H29.8792V64.9307H29.0465Z" fill="#1A4E86"/>
<path fill-rule="evenodd" clip-rule="evenodd" d="M35.6966 60.4347L36.8888 64.9307H35.9426L35.7344 63.9799H34.5359L34.3277 64.9307H33.3816L34.5738 60.4347H35.6966ZM35.5767 63.2368L35.1415 61.2155H35.1289L34.6936 63.2368H35.5767Z" fill="#1A4E86"/>
<path d="M38.7364 64.9307V60.4347H40.0863L40.7297 63.6084H40.7423L41.392 60.4347H42.7356V64.9307H41.903V61.3414H41.8903L41.0892 64.9307H40.3827L39.5816 61.3414H39.569V64.9307H38.7364Z" fill="#1A4E86"/>
<path fill-rule="evenodd" clip-rule="evenodd" d="M45.3864 60.4347L46.5786 64.9307H45.6324L45.4243 63.9799H44.2258L44.0176 64.9307H43.0714L44.2636 60.4347H45.3864ZM45.2666 63.2368L44.8313 61.2155H44.8187L44.3835 63.2368H45.2666Z" fill="#1A4E86"/>
<path fill-rule="evenodd" clip-rule="evenodd" d="M46.8919 64.9307V60.4347H48.5698C48.9483 60.4347 49.2427 60.5312 49.4529 60.7243C49.6632 60.9132 49.7683 61.2029 49.7683 61.5933C49.7683 61.8956 49.7074 62.1432 49.5854 62.3364C49.4634 62.5253 49.2742 62.647 49.0177 62.7016V62.7142C49.2448 62.7478 49.4109 62.8212 49.516 62.9346C49.6211 63.0479 49.6863 63.2305 49.7116 63.4824C49.72 63.5664 49.7263 63.6587 49.7305 63.7595C49.7347 63.856 49.7389 63.9652 49.7431 64.0869C49.7515 64.3262 49.7641 64.5088 49.7809 64.6348C49.8062 64.7607 49.8608 64.8468 49.945 64.8929V64.9307H48.9609C48.9147 64.8678 48.8852 64.7964 48.8726 64.7166C48.86 64.6327 48.8516 64.5466 48.8474 64.4585L48.8221 63.5958C48.8137 63.4194 48.7696 63.2809 48.6897 63.1802C48.6098 63.0794 48.4752 63.029 48.286 63.029H47.8003V64.9307H46.8919ZM47.8003 61.1021V62.3993H48.1787C48.3974 62.3993 48.5656 62.3489 48.6834 62.2482C48.8011 62.1432 48.86 61.969 48.86 61.7255C48.86 61.3099 48.6497 61.1021 48.2292 61.1021H47.8003Z" fill="#1A4E86"/>
<path d="M52.9228 60.4347H50.0464V61.1777H51.0305V64.9307H51.9388V61.1777H52.9228V60.4347Z" fill="#1A4E86"/>
<path d="M54.2694 64.9307H53.3611V60.4347H54.2694V64.9307Z" fill="#1A4E86"/>
<path d="M55.9903 60.4347H54.9432V64.9307H55.7758V61.7822H55.7884L56.8986 64.9307H57.9331V60.4347H57.1005V63.5139H57.0879L55.9903 60.4347Z" fill="#1A4E86"/>
<path d="M58.3887 63.5265H59.297V63.6587C59.297 63.7637 59.3054 63.8602 59.3223 63.9484C59.3391 64.0324 59.3706 64.1037 59.4169 64.1625C59.4631 64.2213 59.5241 64.2674 59.5998 64.301C59.6797 64.3346 59.7785 64.3514 59.8963 64.3514C60.0351 64.3514 60.1591 64.3073 60.2685 64.2192C60.382 64.1268 60.4388 63.9862 60.4388 63.7973C60.4388 63.6965 60.424 63.6104 60.3946 63.5391C60.3694 63.4635 60.3252 63.3964 60.2621 63.3376C60.1991 63.2788 60.115 63.2263 60.0098 63.1802C59.9089 63.1298 59.7827 63.0794 59.6313 63.029C59.4295 62.9619 59.255 62.8884 59.1078 62.8086C58.9606 62.7289 58.8365 62.6365 58.7356 62.5316C58.6389 62.4224 58.5674 62.2986 58.5211 62.16C58.4749 62.0173 58.4518 61.8536 58.4518 61.6689C58.4518 61.2239 58.5758 60.8922 58.8239 60.6739C59.072 60.4556 59.4127 60.3465 59.8458 60.3465C60.0477 60.3465 60.2327 60.3696 60.4009 60.4158C60.5733 60.4577 60.7205 60.5291 60.8425 60.6299C60.9686 60.7264 61.0654 60.8524 61.1326 61.0077C61.2041 61.1588 61.2399 61.3414 61.2399 61.5555V61.6815H60.3694C60.3694 61.4674 60.3315 61.3036 60.2558 61.1903C60.1801 61.0728 60.054 61.014 59.8774 61.014C59.7764 61.014 59.6923 61.0287 59.625 61.0581C59.5578 61.0874 59.5031 61.1273 59.461 61.1777C59.4232 61.2239 59.3959 61.2785 59.379 61.3414C59.3664 61.4044 59.3601 61.4695 59.3601 61.5366C59.3601 61.6752 59.3895 61.7927 59.4484 61.8893C59.5073 61.9816 59.6335 62.0677 59.8269 62.1474L60.5271 62.4497C60.6995 62.5253 60.8404 62.605 60.9497 62.689C61.059 62.7687 61.1453 62.8569 61.2083 62.9535C61.2756 63.0458 61.3219 63.1487 61.3471 63.262C61.3723 63.3754 61.385 63.5013 61.385 63.6398C61.385 64.1142 61.2462 64.4605 60.9686 64.6789C60.6953 64.8929 60.3126 65 59.8206 65C59.3075 65 58.9396 64.8887 58.7167 64.6663C58.498 64.4438 58.3887 64.1247 58.3887 63.7091V63.5265Z" fill="#1A4E86"/>
</svg>
